<?xml version="1.0" encoding="UTF-8"?>
<svg enable-background="new 0 0 1394.308 1679.69" version="1.1" viewBox="0 0 1394.308 1679.69" xmlns="http://www.w3.org/2000/svg">
 <path d="m1303.8 40.04c5.496 2.836-3.026 23.325-4.846 38.13 5.562-2.138 3.391-9.446 6.603-13.486 9.458-11.65 0.53-5.442 16.206-21.511 2.876-0.616 5.294 0.895 7.521 2.518-0.895 2.619-1.981 5.148-3.1 7.666 2.966 0.761 6.883 1.22 8.271 4.432 1.108 2.138-0.47 4.309-1.332 6.211-1.891 3.425-2.641 7.398-4.992 10.576-2.865 3.984-3.38 9.043-5.697 13.307-0.674 1.141-19.276 38.325-22.775 51.169-15.199 36.659-20.231 35.843-29.814 53.26-1.384 2.516-3.929 3.67-5.715 5.81-2.371 2.839-0.204 5.315-1.451 8.194-1.105 2.55-5.726 2.302-11.088 6.763-13.15 10.94-20.203 22.68-32.334 30.013 0 0-32.388 29.366-32.389 29.367-5.954 4.521-12.065 8.819-17.996 13.363-7.761 3.003-45.058 32.724-63.055 40.995-10.017 5.003-21.052 7.566-31.057 12.568-46.352 27.215-79.665 58.371-98.723 70.329-1.122 0.814-33.321 17.482-35.623 19.339-10.229 3.164-29.097 14.995-36.217 24.969-27.974 74.222-26.273 56.288-40.182 90.94-13.68 34.083 4.842 61.122 9.617 77.194-2.384 2.071-4.667 4.242-6.782 6.592 20.018 201.77-1.662-3.218 40.369 244.42 3.131 18.447 24.254 68.81 31.393 104.41 4.734 15.176 5.036 31.225 8.875 46.591 2.211 8.42 10.085 24.741 10.431 46.759 0.157 6.771 2.272 13.497 1.153 20.279-1.119 5.395 3.19 10.14 2.261 15.568-2.909 17.327 20.57 23.104-22.798 46.759 0.481 3.156 0.862 6.323 1.242 9.513 3.086 6.422 5.45 23.908 6.133 31.024 1.728 24.024 25.338 63.647 25.831 64.767 16.403 34.406 39.571 141.19 36.687 232.95-0.927 32.539 4.37 34.554 9.021 44.711 9.196 23.101 1.859 17.155 12.121 22.539 8.741 4.586 18.963 23.513 49.772 19.052 13.239-1.917 17.813 1.854 16.28 5.372-1.234 2.831-9.644 5.172-12.342 6.435-15.791 7.395-31.909 16.81-49.459 19.117-56.422 7.418-62.09 26.326-75.631 14.754-6.794-5.807 0.584-11.23 1.699-12.476 5.382-6.012 2.611-13.77 3.626-20.983 4.31-36.258-23.266-106.67-37.828-140.26-3.562-6.362-12.417-45.29-30.251-70.229-28.36-39.43-21.027-93.088-29.401-114.93-8.102-32.791-22.861-25.659-35.276-94.134-16.289-1.135-50.356 7.792-55.925-2.764-2.563-3.268-0.481-7.23-0.258-10.845 0.548-4.678-0.615-9.3-2.037-13.71-6.189-17.64-7.37-42.25-11.55-45.998-6.159 16.716 1.952 21.523-0.347 29.177-2.261 6.391-5.853 12.456-6.435 19.351-0.537 7.834 0.638 15.713-0.369 23.536-1.074 5.708 1.388 11.203 2.07 16.81 6.379 31.702-16.113 62.96-0.101 113.73 21.025 75.144-6.466 62.256 3.76 154.85 2.203 51.166-1.705 49.657 2.048 91.335 0.549 6.103 5.7 12.165 7.296 18.326 1.902 7.341 2.554 14.94 3.307 22.464 3.396 33.928 10.978 29.451 16.03 43.465 5.082 14.103-24.75 8.746-54.313 6.3-13.64-1.129-42.688 1.119-42.287-16.08 0.227-9.758 10.165-9.822 11.708-10.276 4.296-1.265 11.481-9.68 9.888-14.562-1.936-5.932 0.895-11.852 0.201-17.851-1.281-13.147 4.274-6.768-3.055-31.18-2.259-7.267-61.427-142.63-60.055-228.54 0.448-44.34 12.929-22.518-6.939-146.34-6.946-6.998-24.387-3.579-45.763-9.244-3.615-0.985-18.702-1.865-29.02-6.592-3.212-2.249-6.737-3.951-10.229-5.697 0.073-1.13 14.957-97.795 13.162-105.14-14.652-59.122 10.921-57.403 7.252-146.42-1.462-32.954 23.188-203.22 6.312-242.95 0.652-7.65-5.409-39.675-3.794-58.511 1.351-10.754 2.895 3.02-15.501-35.22-1.69-4.163-2.507-8.853-5.887-12.076-31.727-46.131-35.47-66.265-45.618-74.078-9.86-8.136-22.395-11.908-33.15-18.601-3.209-0.897-47.033-20.073-61.969-28.472-44.494-32.305-79.637-61.817-98.879-67.721-25.854-9.328-47.667-27.281-60.503-36.888-8.864-7.375-19.116-12.781-28.304-19.698-4.779-4.331-9.513-8.808-14.907-12.367-4.645-5.753-10.207-10.711-15.4-15.948-5.227-2.887-7.331-8.976-12.557-11.83-3.212-1.791-3.995-5.809-7.017-7.801-2.283-1.656-4.488-3.458-5.876-5.965-4.667 0.761-8.528 4.432-13.497 3.85-16.976-1.798-25.572-13.618-25.07-17.426 2.093-4.421 7.476-5.518 11.113-8.316 0.649-1.701 1.074-3.939-0.257-5.428-4.018-5.238-8.092-10.476-12.915-15.019-4.488-4.264-6.961-10.095-11.102-14.639-18.166-21.542-21.314-33.374-35.825-47.017-17.005-14.43-14.681-24.422-23.592-34.706-3.089-2.943-2.619-8.282 0.235-11.225 1.074 0.078 3.234 0.246 4.309 0.336 0.27-8.716-9.666-22.012-9.726-28.349 0.705-4.824 7.487-3.928 10.341-1.578 7.655 7.297 7.734 19.53 15.512 26.636-5.445-14.83-6.461-14.217-18.746-41.924 1.891-3.57 6.838-2.552 10.028-1.645 4.88 2.608 10.934-1.265 15.545 2.294 33.732 30.304 43.38 81.263 75.914 67.822 8.707-8.909 11.192-22.596 21.813-29.815 7.154-5.948 19.597-2.971 16.911 2.574-2.089 4.814-21.15 29.475-25.73 62.786-2.183 11.017-8.218 17.413-0.616 25.204 11.273 1.428 14.794 8.497 15.971 19.753 2.147 0.659 19.832 13.468 20.951 14.303 5.428 3.984 11.841 6.413 17 10.8 11.899 8.537 4.049 7.116 43.614 28.304 4.488 3.738 9.748 6.357 14.426 9.838 0.716 0.235 2.126 0.705 2.843 0.94 2.344 3.365 31.919 25.499 41.783 30.104 10.396 4.854 21.416 8.227 32.471 11.211 60.37 16.295 44.112 14.723 74.921 25.6 2.876 1.813 6.581 1.567 9.278 3.727 1.242 0.257 2.496 0.515 3.76 0.783 4.6 3.984 10.912 4.88 16.15 7.801 27.526 15.911 70.381-10.956 134.72 30.885 4.157 2.704 2.152 2.31 7.513 2.053 6.082-0.292 11.278 3.076 17.5 1.723 16.375 2.631 12.914-1.831 22.887 1.712 11.263-12.665 3.978-15.004 1.556-21.969-1.477-4.264-2.63-8.662-4.522-12.759-1.97-2.753-4.645-5.025-5.853-8.26-1.925-3.727-1.567-8.17-3.481-11.908-1.444-2.753-3.167-5.338-4.656-8.069-0.526-0.146-1.6-0.448-2.138-0.604-0.571-3.604-0.974-7.219-1.365-10.845-6.521-12.768-4.247-19.671-3.951-23.38 0.616-5.417-1.007-11.057 0.996-16.295 5.128-13.945 0.082-18.635 4.756-26.032 2.261-3.693 1.925-8.159 3.503-12.087 5.369-14.888 13.307-18.615 15.467-27.051 2.529-1.477 4.958-3.324 7.946-3.816 3.85-4.119 8.506-7.845 14.482-7.834 0.481-0.291 1.466-0.873 1.947-1.175-0.481-2.283-0.94-4.566-1.321-6.861 1.365-0.168 2.753-0.347 4.141-0.526 0.257 1.209 0.548 2.417 0.873 3.626 1.69-0.414 4.163 0.325 5.26-1.455 2.317-2.977 4.04-6.995 7.991-8.136 3.011-0.907 6.155-2.25 9.367-1.567 5.215 1.175 10.61-0.951 15.769 0.772 5.506 1.891 11.102 3.503 16.653 5.26 6.592 2.104 11.002 7.812 17.012 10.957 3.514 2.283 7.89 1.701 11.874 2.227 0.862 4.891 1.69 9.905 3.839 14.426 13.42 20.117 28.511 47.959 32.456 69.479-4.543 42.952-10.165 41.801-12.535 50.285-7.912 25.192-6.112 14.795-9.569 21.678-2.093 3.895-3.514 8.159-6.279 11.662-2.227 3.358-5.876 5.842-6.625 10.028 2.641-0.011 5.327 0.235 7.98-0.157 4.488-1.231 8.472-4.79 13.408-3.481 3.19-3.134 7.879-3.481 11.516-5.887 4.974-2.266 0.029-4.19 12.792-7.599 3.111-3.279 7.107-5.473 10.61-8.293 1.052-0.257 2.126-0.504 3.212-0.75 20.21-12.79 15.969-8.488 28.673-13.609 4.063-1.668 8.584-0.828 12.815-1.779 3.716-1.063 7.017-3.626 11.024-3.604 1.121-0.029 34.876-0.962 36.586-1.332-4.689-0.795-9.457-0.526-14.18-0.761 39.641-0.487 12.444 1.81 51.122-12.726 29.589-11.12 33.583-12.539 40.08-15.428 42.526-18.907 34.669-8.935 57.136-17.198 1.119-0.412 23.513-6.983 28.346-12.621 5.462-2.305 8.752-7.678 13.688-10.856 9.144-5.652 17.773-12.289 27.8-16.374 4.096-1.354 6.995-5.047 11.416-5.674 2.745-2.299 21.324-13.925 27.14-15.008 22.806-19.362 39.194-24.468 56.172-38.489 2.272-1.724 0.728-4.745 1.052-7.096 0.627-1.377 1.6-2.563 2.473-3.805 1.242-0.022 2.496-0.034 3.772-0.045 2.697-2.776 4.891-6.01 6.312-9.625-6.663-17.65-3.385-45.45-20.403-75.421-0.884-1.724-0.336-4.219 1.936-4.342 20.817-5.193 20.433 17.237 28.114 28.942 5.096 7.11 20.733 0.237 22.249-0.269 31.87-55.163 28.663-73.463 41.19-71.13z"/>
</svg>
