<?xml version="1.0" encoding="utf-8"?>
<svg version="1.1" id="Layer_1" xmlns="http://www.w3.org/2000/svg" xmlns:xlink="http://www.w3.org/1999/xlink" x="0px" y="0px"
	 viewBox="0 0 1696.987 1629.575" enable-background="new 0 0 1696.987 1629.575" xml:space="preserve">
<path d="M1678.643,115.162c-9.078-1.829-8.422,2.493-49.653,8.84c-6.297,1.282-11.592,6.505-18.327,5.223
	c0.229-2.356,0.021-5.327,2.429-6.682c8.548-5.369,18.932-6.724,27.542-11.999c11.78-7.641,25.676-11.228,37.394-18.921
	c5.671-3.711-0.313-13.698-6.401-11.686c-20.641,7.188-10.732,6.719-41.616,14.709c-6.66,1.341-18.873,13.833-27.229,12.364
	c-0.719-2.596-0.229-5.619,2.335-7.005c21.721-13.356,18.849-14.102,25.03-18.754c5.256-4.115,20.261-10.792,22.163-18.108
	c-0.135-5.973-7.683-7.287-12.072-5.15c-5.671,2.825-11.321,5.786-16.304,9.726c-4.274,3.419-9.684,4.775-14.344,7.527
	c-12.739,8.023-21.026,19.849-50.821,18.89c-1.141-6.556,11.714-17.901,10.331-32.014c-0.553-5.64-1.126-11.999-5.41-16.19
	c-1.897-1.793-4.222-4.441-7.037-2.752c-2.898,4.67-1.011,10.571-3.263,15.491c-9.599,23.175-26.518,25.031-29.909,34.756
	c-2.742,6.651-6.984,12.499-10.404,18.796c-3.836,6.912-8.736,13.771-16.106,17.201c-3.743,1.678-6.828,5.108-11.144,5.192
	c-5.369,0.146-10.352,2.304-15.377,3.951c-87.682,31.215-147.536,11.894-191.91,28.908c-28.112,9.675-30.448,16.351-60.61,22.622
	c-11.4,2.285-23.561-1.63-52.906,6.661c-12.442,3.084-51.581,12.41-64.613,10.164c-42.407-12.559-111.251-17.153-145.228,8.329
	c-1.585,1.032-3.492,2.7-5.442,1.491c-4.462-2.022-8.413-5.119-13.208-6.391c-22.109-5.576-18.082-14.304-19.171-19.609
	c-7.67-28.925-12.049-11.862-0.584-44.201c25.506,8.821,19.669-25.08,5.556-31.639c-3.701-1.334-4.264-5.64-4.691-9.028
	c-0.589-11.154-9.501-47.281-20.631-60.485c-6.468-8.064-36.109-30.706-52.197-30.315c-14.564-0.806-32.367-0.398-45.494,7.798
	c-9.753,5.477-27.896,29.601-29.752,32.755c-9.928,14.922-10.291,34.535-6.234,75.027c-5.835,5.691-12.812,11.126-11.207,29.367
	c1.095,5.16,7.089,8.319,12.082,7.162c3.503-0.99,5.942-3.836,8.569-6.161c2.637,4.9,6.515,9.414,8.006,14.762
	c-2.898,10.529-6.797,21.048-7.078,32.077c-26.362,14.782-1.363-0.28-39.343,17.316c-63.714-27.503-83.778-17.61-147.573-5.869
	c-16.52,2.927-6.955,9.364-80.729-5.421c-44.233-2.937-21.097,2.881-51.582-6.182c-40.563-16.85-41.728-27.702-133.969-30.273
	c-29.134,0.877-56.657-11.316-57.701-11.655c-4.212-1.261-8.653-0.636-12.948-1.188c-8.046-1.258-30.99-11.064-33.682-11.665
	c-20.328-4.86-25.238-9.143-32.869-27.574c-12.43-29.627-1.096-16.889-17.076-29.888c-9.32-6.378-21.28-20.528-24.665-32.64
	c-4.451-11.525-11.632-2.218-12.364,2.846c-3.215,19.897,11.207,31.138,12.02,41.261c-5.264-0.021-9.997-2.669-15.126-3.482
	c-12.499-2.158-22.789-10.102-32.557-17.67c-6.693-5.369-14.553-8.976-21.475-14c-26.617-19.84-26.648-4.369-24.54-1.459
	c8.274,11.522,13.571,7.006,32.796,29.262c-6.555,5.058-0.498,3.479-18.389-2.971C51.592,93.054,35.753,80.864,27.494,81.73
	c-4.337-0.532-7.965,4.17-7.12,8.246c0.824,2.596,3.544,3.659,5.682,4.941c5.369,2.877,10.258,6.578,15.783,9.184
	c5.473,2.596,10.102,6.568,15.043,10.008c11.664,7.237,35.479,15.836,25.634,19.807c-4.618,0.427-9.017-1.501-13.312-2.919
	c-6.078-2.669-12.843-2.794-19.098-4.879c-9.028-2.377-17.587-6.37-26.781-8.079c-5.129-0.73-9.393,4.806-7.443,9.601
	c2.567,5.464,24.453,10.178,35.715,15.658c19.218,9.101,22.382,5.321,31.118,10.675c1.751,1.063,1.053,3.419,1.282,5.108
	c-1.147,0.15-28.073,1.176-32.974-0.636c-4.931-2.002-10.633-2.658-15.752-1.011c-16.365,15.91,40.781,15.887,52.124,19.911
	c39.898,15.198,42.368,20.687,64.123,20.933c42.616,0.372,156.309,71.006,222.246,75.944c1.06,0.068,27.436,3.724,49.497,11.363
	c7.746,1.605,15.835,1.908,23.268,4.9c33.129,13.962,31.547,12.661,43.419,16.127c52.117,17.812,58.272,32.163,128.642,25.655
	c4.879-0.427,9.726-2.335,14.647-1.241c9.379,1.485,8.216,5.787,13.667,21.85c23.53,66.934,28.436,71.842,32.004,98.087
	c6.889,68.669,27.132,109.663,24.894,137.69c-1.241,19.463-6.995,38.592-5.577,58.243c3.073,30.942-14.113,57.362-18.869,106.479
	c-0.438,4.848-2.554,9.341-2.867,14.209c-1.501,1.032-3.18,1.783-4.639,2.888c0.438,2.783,1.491,5.4,2.815,7.881
	c-1.397,2.085-3.326,4.191-2.585,6.901c0.917,3.93-2.7,6.891-2.398,10.769c0.407,3.315-2.606,5.139-4.253,7.558
	c-0.627,2.624-1.623,23.487-1.939,24.936c-1.71,2.398-4.764,3.742-5.848,6.578c-1.241,4.212,3.326,7.433,2.419,11.613
	c-0.855,6.714-3.117,13.281-2.314,20.151c0.646,5.379-5.275,6.547-8.882,8.59c-0.24,3.941,1.918,7.235,3.784,10.508
	c-5.479,4.003-10.176,4.195-10.894,12.26c0.844,4.587,3.67,8.496,6.276,12.27c1.602,2.372,4.798,14.939,4.17,17.847
	c-6.9,32.459-7.734,114.7-6.244,131.529c10.812,145.231-14.671,135.643-23.529,183.121c-1.459,14.073-3.419,28.084-5.223,42.116
	c-0.782,10.268,0.323,20.568-0.156,30.847c-0.302-6.536,0.354-13.135-0.751-19.609c-1.234,38.695,1.444,63.521,1.699,72.108
	c2.568,28.408-0.725,67.76,0.521,79.145c1.119,7.926-0.183,54.142-12.77,74.725c-2.523,4.149-0.657,9.195-1.793,13.688
	c-1.532,2.908-4.587,4.535-6.745,6.932c-4.243,4.024-6.307,9.632-9.695,14.303c-17.976,26.086-45.846,29.297-52.906,40.969
	c-2.919,2.44-2.085,6.297-0.615,9.299c9.792,8.399,13.753,3.951,18.41,4.629c4.636,1.76,37.885,4.503,49.966,0.834
	c31.324-4.967,16.175-7.691,35.601-15.7c4.472-1.887,9.361-2.304,13.98-3.701c4.587-1.126,7.172-5.421,10.133-8.715
	c5.99-9.743-0.969-28.767,2.804-49.341c0.636-3.273,3.294-6.109,2.617-9.591c-5.659-28.295-0.548-38.827,6.891-58.243
	c20.917-72.686,21.655-120.608,37.769-146.437c20.171-34.119,14.828-75.756,23.862-112.932
	c3.107-13.239,12.562-23.602,18.316-35.642c17.54-51.223,15.557-91.748,39.812-142.726c26.669-51.593,33.986-69.924,38.874-88.475
	c26.249-11.702,21.971-10.746,33.088-10.404c1.678,3.451,5.619,5.504,6.265,9.445c1.902,9.802,15.312,35.458,16.607,37.623
	c43.571,79.686,36.147,60.012,55.919,115.048c15.782,58.072,24.811,76.732,36.31,95.991c2.627,4.806,6.359,9.049,7.808,14.449
	c9.28,24.774,13.437,62.989,13.875,70.503c8.708,58.868,20.211,33.692,36.716,108.011c0,0,22.86,76.181,22.862,76.184
	c12.086,35.227,0.22,53.289,6.265,70.815c2.221,9.57,7.172,18.171,10.091,27.501c0.98,2.971-0.396,6.088,0.24,9.132
	c4.136,23.74,5.046,14.222,10.946,23.154c0.5,3.346-1.168,7.37,1.772,10.008c3.763,3.138,9.56,0.25,13.375,3.305
	c2.293,1.595,4.483,4.003,7.547,3.816c9.038-0.135,18.16,0.667,27.136-0.813c5.139,0.834,10.727,2.168,15.658-0.334
	c3.034-1.741,6.609-0.5,9.841-1.449c5.765-1.877,11.613-3.534,17.17-5.984c-0.622-13.061,2.086-2.568-27-28.97
	c-49.444-45.853-7.313-24.923-33.86-71.493c-6.447-9.759-2.287-67.772-6.036-99.046c-5.902-54.28,13.546-109.478-19.244-184.216
	c-0.448-1.043-13.281-23.236-15.356-46.536c-0.08-0.767-4.76-30.063-6.161-36.101c-12.265-46.662,2.827-37.207-7.996-126.557
	c-0.022-1.055-3.646-35.845-10.675-79.301c-0.917-8.663-4.941-16.836-4.649-25.666c0.76-7.371,3.705-11.758,2.523-27.219
	c-2.273-6.38-6.359-12.207-12.051-15.992c1.136-3.075,3.565-5.796,3.816-9.111c-1.105-4.264-6.912-5.838-7.245-10.487
	c0.313-3.795,3.847-8.319,0.063-11.446c-5.723-4.785-3.43-13.01-5.786-19.275c-2.9-6.955-2.927-13.019-8.673-23.497
	c1.042-2.815,2.585-5.838,1.626-8.892c-1.397-1.147-3.023-1.939-4.41-3.055c-1.366-1.845-1.605-4.483-3.607-5.796
	c-1.293-1.105-3.023-1.824-3.826-3.367c0.219-2.366,1.178-4.597,1.366-6.953c-0.698-4.597-3.586-8.882-2.711-13.656
	c2.8-24.52-17.927-57.489-16.846-90.727c0.354-50.439-24.105-28.245,11.801-205.858c7.193-40.837,17.488-54.343,28.689-83.242
	c11.526-30.552,7.753-36.397,21.006-39.458c20.285-3.647,51.277,6.504,90.049-10.091c28.928-12.182,74.2-35.637,97.43-40.198
	c4.962-1.011,9.435-3.471,13.761-6.015c6.984-4.402,101.865-23.524,113.693-26.99c32.319-6.484,64.625-21.838,95.147-35.152
	c29.709-14.603,34.206-11.557,44.034-15.429c16.479-6.166,30.612,1.245,49.747-4.545c12.87-2.527,1.813-3.694,34.923-7.902
	c15.573-4.217,50.934,8.183,60.203,1.939c3.326-4.368-1.459-9.143-5.108-11.28c-5.588-1.011-11.426-0.01-16.971-1.387
	c-19.345-5.287-21.835-4.442-24.676-8.09c-0.667-3.054,0.156-6.766,2.346-9.038c3.16-1.244,56.259-15.483,66.604-19.87
	C1683.338,125.176,1681.809,116.464,1678.643,115.162z"/>
</svg>
