<?xml version="1.0" encoding="UTF-8"?>
<svg enable-background="new 0 0 2374 2535" version="1.1" viewBox="0 0 2374 2535" xmlns="http://www.w3.org/2000/svg">
 <path d="m1174.7 57.16c14.704 1.8636 22.417 4.7733 33.442 8.2298 7.995 2.5082 15.941 5.1727 23.83 7.9963 3.6522 1.3072 7.1211 2.5705 10.359 4.5118 2.6606 1.5951 5.6624 2.1774 8.4056 3.6978 5.2206 2.8934 10.38 5.9044 15.38 9.1675 10.998 7.1782 20.543 16.068 29.92 25.19 9.9486 9.6776 20.205 21.276 26.132 33.947 2.3 4.55 3.55 9.54 5.78 14.12 2.22 4.47 3.1699 9.39 4.48 14.17 0.77 3.7398 0.6899 7.6396 2.0597 11.26 4.0038 10.58 1.8665 24.213 1.3937 35.276-0.713 16.685-2.0737 33.359-5.2283 49.764-2.4462 12.721-5.3906 25.637-11.075 37.36 3.25 0.85 6.74 1.83 10.08 0.81 4.88-1.9 8.64-6.12 13.92-7.09 1.88-0.56 3.5699 0.69 5.0599 1.68 1.76 2.06 3.4701 4.19 4.66 6.65-1.8101 4.89-2.62 10.06-4 15.07-1.28 9.28-2.12 18.76-5.53 27.56-3.45 8.33-7.1899 16.54-10.36 24.99-3 8.15-6.5599 16.27-12.19 22.97-0.11 0.49-0.3401 1.46-0.4501 1.94-1.22 1.56-2.39 3.16-3.2999 4.92-2.4801 4.88-5.9301 9.27-7.65 14.53-2.39 6.3-4.78 13.6-11.28 16.81-3.87 1.35-7.48-1.45-11.28-1.75-4.1699 9.67-3.1799 20.64-5.86 30.73-1.3099 8.61-2.52 17.38-5.9199 25.48-4.39 10.63-3.0601 22.34-4.0601 33.52-0.29 4.8-0.59 9.6-1.3 14.36 0.42 0.93 0.8501 1.87 1.3 2.81 0.96 0.14 1.9401 0.29 2.9301 0.44 5.73 2.4 11.93 3.3199 17.72 5.53 4.1799 0.72 8.0699 2.51 12.06 3.9 4.8401 1.57 8.78 5.0099 13.56 6.75 0.41 0.3 1.24 0.92 1.66 1.22 4.9299 1.51 9.6499 3.74 14.75 4.69 4.35 1.7 9.0299 2.31 13.39 4.01 1.65 0.75 3.3401 1.44 5.0601 2.1 5.1 1.69 9.5601 5.1 14.93 5.95 2.0099 0.61 4 1.29 5.99 2.02 1.64 0.75 3.3199 1.42 5.0299 2.03 4.2101 2.19 8.64 3.87 12.91 5.94 1.35 0.89 2.85 1.53 4.4 2.08 0.38 0.4 1.15 1.21 1.53 1.62 0.59 0 1.76 0.02 2.35 0.03 1.6799 1.12 3.4399 2.15 5.09 3.36 2.8 0.85 5.24 2.53 7.5 4.37 0.59 0.06 1.76 0.17 2.35 0.23 1.1901 0.93 2.41 1.86 3.64 2.8 0.27-0.15 0.8201-0.45 1.0901-0.6 1.72 0.88 3.5499 1.53 5.4199 2.1 0.37 0.4 1.12 1.2 1.49 1.6 1.4401-0.01 2.91 0 4.4 0.01 0.41 0.49 1.22 1.45 1.63 1.93 1.29 0.07 2.6 0.16 3.9399 0.27 1.26 0.9901 2.7001 1.73 4.1901 2.39 1.72 1.04 3.62 1.78 5.67 1.9-0.01 0.37-0.03 1.12-0.04 1.49 1.17-0.01 2.35 0 3.5599 0.01 0.78 0.83 1.5701 1.68 2.39 2.53 0.5801-0.07 1.74-0.22 2.3201-0.29 1.6899 0.78 3.4099 1.55 5.14 2.31 1.6 0.7 3.23 1.36 4.87 2.03 1.72 0.73 3.5 1.27 5.3199 1.79 0.71 0.49 1.4401 0.99 2.1901 1.5 16.32 3.27 31.48 10.57 47.62 14.55 1.6499 0.78 3.3099 1.57 5 2.36 1.74 0.54 3.5 1.05 5.2899 1.55 0.39 0.39 1.1901 1.18 1.5901 1.5699 0.5699 0.05 1.72 0.16 2.2899 0.21 0.8201 0.92 1.67 1.85 2.53 2.78 0.3101-0.1801 0.9301-0.53 1.24-0.71 2.3201 2.17 4.83 4.19 7.62 5.76 5.01 2.87 9.28 6.81 13.83 10.35 0.8899 0.7 1.7899 1.42 2.7 2.17 3.0599 2.94 6.05 5.97 9.04 9 1.0199 1.1201 2.0599 2.2401 3.1 3.39 0.5399 0.05 1.62 0.15 2.16 0.2 2.59 2.44 5.1699 4.9 7.6799 7.44 1.3101 1.33 2.64 2.66 3.99 3.98 1.86 1.89 3.6 3.89 5.3301 5.92 0.1299 0.44 0.4099 1.3199 0.5499 1.7599 3.26 3.58 4.66 8.32 7.26 12.35 1 2.56 2.0601 5.11 2.95 7.73 2.42 4.72 3.39 9.96 4.92 15 1.05 4.29 2.83 8.43 2.83 12.93 2.04 3.91 2.41 8.41 4.05 12.49 0.37 0.38 1.11 1.15 1.48 1.53 0.11 0.59 0.34 1.76 0.4501 2.34 1.7 3.11 3.08 6.39 4.24 9.75 2.84 4.9399 4.14 10.57 7.09 15.47 0.1801 0.8 0.39 1.62 0.63 2.46 3.0599 4.17 4.58 9.18 6.26 14.02 2.24 3.56 3.04 7.81 5.25 11.41 0.08 0.57 0.25 1.71 0.34 2.28 0.5 0.62 1.02 1.24 1.5601 1.88 0.5 3.31 1.7699 6.42 3.0699 9.5 3.37 7.94 5.58 16.29 8.83 24.28 1.7401 4.8 3.63 9.56 5.9401 14.13 0.89 3.08 2.14 6.05 3.66 8.89 2.6799 4.8 3.9199 10.24 6.5399 15.08 0.17 0.81 0.37 1.63 0.6001 2.47 2.6 4.02 3.5199 8.8199 5.24 13.25 2.5599 8.3 6.0599 16.27 9.08 24.42 1.64 3.45 3.38 6.93 3.76 10.81 0.4 0.29 1.1799 0.87 1.5699 1.16 0.05 1.43 0.13 2.89 0.24 4.36 3.74 6.1 4.5801 13.49 7.25 20.07 1.7001 3.86 2.66 7.98 4.12 11.93 2.55 9.03 5.4601 17.95 8.55 26.81 1.41 3.68 3.33 7.16 4.28 11.01 4.6699 10.43 6.71 21.78 11.04 32.33 2.1101 4.6 3.5901 9.4399 5.0901 14.26 0.28 0.4399 0.85 1.2999 1.13 1.73 1.5499 4.5699 3.36 9.0599 4.6699 13.72 0.4701 0.64 0.9601 1.29 1.4701 1.96 0.1 0.62 0.2999 1.87 0.3999 2.5 4.87 8.77 7.4301 18.56 11.77 27.57 4.75 11.29 8.5901 22.95 13.69 34.1 3.22 9.2999 7.4 18.2 10.83 27.42 3.41 9.5599 9.03 18.18 12.16 27.86 3.27 8.35 6.4199 16.75 10.06 24.97 1.5901 3.75 3.11 7.54 4.61 11.35 3.8501 9.5701 8.3201 18.91 11.17 28.85 0.27 0.3401 0.8 1 1.0601 1.3401 1.4299 4.5699 3.1699 9.0499 5.23 13.39 7.52 15.92 8.88 34.26 18.4 49.31 2.87 4.54 4.25 9.78 6.5499 14.61 1.16 2.42 2.16 4.97 2.25 7.71 2.04 15.97-2.14 31.84-6.29 47.12-0.3099 0.3401-0.9299 1.01-1.24 1.3501-0.2799 3.9199-2.3999 8.45 0.2301 12.01 6.88 10.68 16.88 19.47 21.12 31.74 2.37 6.59 5.5399 12.84 9.11 18.87 5.1799 8.84 2.2899 19.34 3.34 28.98 0.64 5.7999 6.13 8.9199 9.64 12.97 4.14 3.98 6.42 9.6 11.16 13 2.0599 1.58 4.2699 2.98 6.34 4.58 3.59 2.64 4.99 7.0701 7.29 10.73 3.34 5.38 6.45 10.91 9.6399 16.4 3.66 6.4 6.0901 13.48 10.3 19.59 6.5601 9.7999 11.75 20.42 17.2 30.85 5.9401 7.76 10.87 16.26 15.36 24.93 3.2699 6.15 8.45 11.03 11.59 17.25 3.2 5.9 6.5499 11.94 7.52 18.68 1.1 6.22 2.71 12.75 7.2999 17.4 4.74 4.52 7.2201 10.7 11.38 15.69 3.8201 4.5701 5.62 10.31 8.25 15.56 1.63 3.53 1.67 7.51 2.13 11.32-1.47 3.9601-2.9299 7.9401-4.88 11.71-0.8199 2.88-2.53 5.73-2.14 8.8199 1.16 2.46 3.5601 4.01 5.4501 5.92 8.5599 7.97 14.15 18.36 21.19 27.56 4.53 6.1801 7.5601 13.26 11.17 19.98 2.99 5.5801 5.01 11.73 9.0099 16.75 5.4102 2.6801 12.7 2.5601 16.13 8.25 5.1399-0.6499 9.8201 1.7101 14.82 2.3301 0.3398 0.26 1.02 0.7799 1.3499 1.0399 3.54 1.5901 7 3.39 10.52 5.0801 0.3601 0.2999 1.0801 0.9 1.4399 1.2 0.5701 0.17 1.7002 0.5 2.27 0.66 1.3701 0.76 2.75 1.49 4.1802 2.24 3.51 1.59 6.98 3.29 10.35 5.21 0.6899 0.0901 2.0701 0.26 2.75 0.35 0.3601 0.4401 1.0701 1.3301 1.4199 1.77 0.5901 0.12 1.78 0.3401 2.3801 0.4601 1.96 1.22 4.21 1.72 6.52 2.0299 1.1599 0.7201 2.3401 1.4501 3.5601 2.2101 6.7898 2.22 12.69 6.87 19.87 7.85 3.21 1.6899 6.6001 3.1 10.18 3.88 10.72 9.09 16.2 22.38 24.55 33.4 6 8.49 14.66 14.6 20.96 22.84 2.0801 2.66 5.1702 4.1899 8.01 5.9399 3.6201 3.42 7.4602 6.78 9.99 11.16 2.8901 4.67 5.23 9.85 9.3801 13.61 3.6099 3.37 6.97 7 10.59 10.4 6.2598 6.24 16.06 8.7 20.12 17.14 3.25 6.61-1.5701 14.04-7.3601 17.28-4.2898 2.5299-9.3999 1.95-14.14 2.0299-6.3899 0.3601-12.08-2.9199-18.12-4.38-0.6802-0.5499-1.3401-1.0699-1.9702-1.5699l-3-0.16c-0.3398-0.34-1.02-1.02-1.3599-1.36-4.22-1.6-8.1501-3.8099-12.02-6.0699-2.0701-1.3201-4.0801-2.6901-6.0601-4.0601-1.03-0.6699-2.01-1.2999-2.98-1.9299-5.6399-4.27-12.57-8.67-14.11-16.07-6.2402-4.8199-11.84-10.45-17.02-16.37-1.1201-0.0499-2.2002-0.0699-3.26-0.0599 0.47 6.6 2.5598 12.92 3.4099 19.47 2.4399 7.0599 5.49 13.91 8.3301 20.82 3.1599 7.3 3.9399 15.37 7.25 22.62 2.79 5.8501 6.8499 10.97 10.59 16.25 6.04 8.7001 12.26 17.27 18.58 25.77 5.26 6.6899 9.52 14.1 12.91 21.9 3.2102 6.74 4.8801 14.08 8.1702 20.8 3.48 7.1001 5.9399 14.71 10.32 21.36 7.9602 13.09 12.8 27.86 15.28 42.92 0.2 4.1799 0.6101 8.6899-1.4099 12.55-1.76 3.6899-4.55 6.8201-7.9199 9.1101-1.79 0.5198-3.4702 1.2698-5.02 2.25-2.48 0.0698-4.9302 0.0898-7.3601 0.0999-1.3401-0.8301-2.6599-1.6299-3.97-2.3799-0.03 0.8398-0.0901 2.51-0.1201 3.3398 2.8201 5.27 5.4102 10.97 5.3701 17.08-0.6001 6.3501-4.71 11.79-9.6599 15.56-1.4502 0.7-2.8401 1.49-4.2002 2.3198-3.5498 0.1201-7.0999 0.1301-10.63 0.1201-9.2-4.4399-13.63-14-18.48-22.38-1.1401 2.5698-2.1201 5.23-2.8 7.98-2.05 3.5598-5.3101 6.0798-8.72 8.24-4.6899 0.9099-9.46 1-14.13 0.0698-8.0198-4.7-13.52-12.4-19.52-19.27-6.28-7.22-11.96-14.92-17.12-22.96-0.27 2.8601 0.01 5.8401-0.77 8.6602-1.74 4.3799-5.8699 7.0598-9.5999 9.6199-3.3-0.01-6.6101 0.3-9.8601-0.1899-2.3501-0.72-4.46-2.02-6.6001-3.1401-9.9299-6.5198-17.63-15.78-25.49-24.53-3.6199-3.6802-5.46-8.53-8.1699-12.8-5.3101-7.3401-11.22-14.21-16.73-21.39-10.75-17.19-21.4-34.73-35.47-49.46-8.5901-8.04-18.16-15.22-25.09-24.85-6.12-7.51-10.9-15.97-15.77-24.3-9.3999-12.6-16.3-26.78-23.03-40.92-3.7001-9.34-7.05-18.83-10.97-28.08-2.21-5.15-2.1499-10.79-2.2699-16.26-3.24-1.04-6.75 0.14-9.61 1.71-1.25 0.15-2.4601 0.3199-3.64 0.52-3.0801 1.53-6.62 1.73-9.61 3.45-4.3201-0.1-8.3301 1.47-12.5 2.2101-6.27 0.0399-13.01 1.12-18.67-2.2301-1.9301-2.5599-3.79-5.3999-3.86-8.6899-0.24-5.17 0.0399-10.49-1.7101-15.42-2.24-6.8099-6.1499-12.84-9.5199-19.09-0.29-0.37-0.87-1.12-1.16-1.49-0.17-0.5701-0.5-1.71-0.66-2.29-3.39-6.26-4.24-13.71-8.87-19.32-6.34-7.8101-11.61-16.39-17.31-24.64-4.4301-5.12-8.7301-10.47-14.21-14.51-7.0399-0.88-12.82-5.76-16.98-11.21-0.0599-0.63-0.17-1.88-0.23-2.51-3.64-3.51-6.52-7.6801-9.61-11.65-2.97-4.17-5.13-8.86-8.24-12.93-3.23-4.25-6.23-8.6899-8.4501-13.55-6.6499-13.83-15.2-26.61-23.9-39.2-5.9301-8.2699-10.39-17.45-14.02-26.93-3.28-8.9401-8.79-16.78-12.82-25.36-2.35-4.77-5.4299-9.13-7.51-14.02-2.73-6.36-7.4099-11.61-10.29-17.89-5.37-8.97-8.88-18.89-14.34-27.8-3.36-5.3899-6.1399-11.11-9.1499-16.68-10.76-14.79-18.86-31.25-26.05-47.99-2.13-4.0701-4.54-8.12-8.22-10.98-3.87-3.1801-6.22-7.66-9.02-11.69-3.85-5.87-7.9-11.6-11.81-17.42-5.5599-8.33-8.6599-18.1-14.83-26.04-2.96-4.12-5.27-8.65-8.24-12.76-2.99-4.1801-4.77-9.02-6.29-13.87-2.83-6.5701-5.9-13.11-10.24-18.81-4.9299-7.61-10.03-15.09-15.03-22.65-2.74-4.28-6.6899-7.5901-9.4399-11.85-3.35-5.0499-7.6-9.4099-10.94-14.45-1.2 0-2.37 0.03-3.5299 0.0699 1.7 12.8 4.65 25.39 7.0599 38.08 2.36 10.29 5.14 20.47 7.4 30.78 5.42 19.44 8.58 39.39 13.17 59.03 3.1899 18.17 8.9199 36.4 6.64 55.03-0.1801 4.35 0.2899 8.8199-0.9501 13.07-0.78 2.5801-1.1899 5.25-1.2999 7.9601-0.16 4.73-2.04 9.22-1.91 13.98 0.22 5.96-2.12 11.59-2.49 17.51-1.61 6.48-1.29 13.24-3.03 19.7-0.58 6.3401-2.4 12.49-2.71 18.87-2.05 8.7201-2.89 17.69-5.2001 26.36-1.02 4.2301-2.6 9-0.21 13.1 4.6801 8.5699 7.13 18.26 12.71 26.36 3.53 5.2 5.9301 11.04 8.23 16.86 2.87 7.45 7.5901 14.19 9.0601 22.15 0.72 3.98 4.74 6.11 5.87 9.8999 2.58 6.9801 4.62 14.14 6.96 21.21 1.9701 5.6599-0.73 11.46-2.22 16.9-2.26 7.0299-6.87 12.92-11.2 18.77-2.03 2.64-1.6801 6.15-2.73 9.1801-1.52 4.7-4.9701 8.4301-8.6801 11.54-1.15 1.4299-2.29 2.87-3.36 4.37 3.6899 13 9.52 25.42 11.46 38.89 1.8301 7 1.49 14.3 2.6801 21.42 1 8.37 4.2 16.28 5.26 24.64 2.24 11 3.97 22.07 5.49 33.18-0.16 6.83 1.9 13.41 2.4399 20.19 0.7101 6.71 1.8 13.38 3.4301 19.93 1.2 15.7-1.76 31.29-2.4401 46.95 0 6.4199-3.01 13.22-0.1699 19.4 2.6899 1.78 5.38 3.9202 6.62 7.02 0.7799 2.48-0.03 5.1101-0.6001 7.5801-1.61 5.3801-0.9399 11.12-2.47 16.54-0.36 8.0701-0.39 16.18-1.02 24.25-0.9199 5.51-1.7799 11.04-1.7 16.66 1.86 0.5801 3.73 1.27 5.55 2.0801 0.4399 0.21 1.3199 0.6299 1.7699 0.8301 8.1101 7.5898 13.39 17.49 19.43 26.69 2.45 2.8599 1.1801 6.8101 1.11 10.22-1.71 1.8999-3.8199 3.9099-3.85 6.6799-0.51 7.8101 0.2 15.86-2.48 23.38-2.54-0.8901-4.6-2.6802-5.8301-5.03-3.1899-5.74-7.0199-11.07-10.48-16.61-2.21-3.45-2.9099-7.53-3.35-11.5-1.3199-0.95-2.63-1.8999-3.9301-2.78 0.1201 9.8601-0.2999 19.78 0.6001 29.63-1.1001 8-2.5901 15.95-4.39 23.84-1.4501 6.5999-1.5701 13.45-0.72 20.16 1.5499 9.77-0.55 19.78 1.8999 29.48 0.3401 11.36 8.63 20.4 10.17 31.49 1.01 7.04 2.59 13.98 4.0601 20.94 1.5399 18.6 2.45 37.52 7.97 55.48 2.58 8.3 0.5399 17.08 2.39 25.51 1.34 4.1001-3.63 6.1602-3.7101 9.99-0.3199 2.5-0.26 5.1001 0.42 7.5801 1.96 6.01 0.62 12.38 0.89 18.58 0.2 5.2-2.63 9.8198-3.47 14.84-0.1101 4.1702 1.0499 8.3501 2.84 12.13 4.3099 8.1199 8.6899 16.26 11.78 24.95h-428.96c-1.8999-10.17-5.52-19.92-7.9199-29.97-2.77-11.54-6.48-22.83-9.0801-34.41-2.95-10.85-6.3199-21.61-8.6499-32.61-1.3501-6.03-1.5701-12.31-3.8-18.1-1.92-5.0498-1.6801-10.52-2.77-15.72-1.96-7.4099-3.62-14.9-5.64-22.29-2.16-7.46-2.21-15.29-3.72-22.86-1.3-5.9102-1.21-12.1-3.4301-17.76-1.75-4.28 0.55-9.3101-1.8199-13.35-7.73-11.26-12.23-24.44-20.32-35.47-4.52-6.5999-7.4801-14.03-10.86-21.21-1.88-4.5601-2.5199-9.49-3.4399-14.28-0.27-5.46-4.79-9.1499-6.74-13.96-1.11-0.02-2.21-0.01-3.29 0.03-0.33 0.48-1 1.4399-1.33 1.9199-1.27 0.03-2.52 0.0901-3.76 0.1899-2.22 1.4502-4.83 1.9402-7.4301 2.02-2.7799 2.52-2.9399 6.3401-3.3099 9.8301-0.66 10.81-3.9501 21.25-4.76 32.05-3.09 16.03-4.92 32.63-11.95 47.57-6.2599 12.23-10.32 25.41-16.13 37.84-1.8 4.03-5.2101 7.02-7.1801 10.95-4.51 11.24-9.61 22.26-13.14 33.87-4.0599 10.27-6.52 21.08-10.82 31.26-3.4301 8.6299-6.79 17.28-9.5901 26.15-4.4199 10.56-5.99 21.96-9.36 32.85-2.23 8.5-5.2599 16.79-6.8799 25.46h-403.18c2.23-3.6201 4.47-7.23 6.73-10.81-1.14-2.4199-2.56-4.8101-2.9-7.48-0.16-2.8799 0.93-5.73 0.48-8.5801-2.35-9.5198-1.6299-19.46-1.16-29.15 0.97-5.04 1.97-10.09 2.15-15.22 0.72-2.1201 1.22-4.3 1.64-6.46-0.8199-0.1702-2.46-0.5-3.28-0.6702 0.31-6.25 1.44-12.47 0.73-18.73-0.58-4.1899 1.8-7.75 3.27-11.43 2.54-7.97 5.17-15.95 6.25-24.27 2.62-11.69 4.76-23.48 6.99-35.25 0.73-3.8298 2.31-7.4099 3.74-11 2.32-5.49 2.79-11.69 6.04-16.78 4.06-6.3499 2.43-14.51 6.09-21.02 3.65-6.0698-0.9-12.73-0.22-19.16 0.55-11.73-2.42-23.24-1.98-34.97-0.48-7.3301 2.14-14.33 5.28-20.8 1.26-4.3201 1.2-8.9099 1.93-13.32-0.75-0.26-1.49-0.48-2.22-0.6599-1.56 1.53-3.1299 3.04-4.75 4.53-0.46 3.46-0.66 7-1.65 10.39-1.13 6.0701-7.82 7.9602-12 11.56-0.17 0.5-0.52 1.51-0.69 2.01-0.83 0.26-2.48 0.78-3.31 1.04-0.6-0.9099-1.2-1.79-1.79-2.6499 0.74-5.54 1.25-11.12 1.16-16.71-3.5-2.8799-7.61-6.46-7.26-11.44 1.08-6.3499 6.26-10.8 11.85-13.34 0.64-0.0098 1.92-0.0298 2.56-0.0398 2.75-2.4202 5.2599-5.0901 7.54-7.9502 2.85-3.7998 7.46-5.46 11.39-7.8699 0.51-16.95-3.17-33.62-5.53-50.31-0.74-8.3201-3.95-16.13-5.05-24.38 3.31-4.5801 9.19-7.97 9.15-14.26 0.66-12.63 3.16-25.06 3.92-37.68 1.71-9.97 1.38-20.09 2.46-30.11 0.75-7.15 3.9-13.69 5.69-20.57 3.23-10.39 5.77-20.98 7.9-31.65 1.21-11.07 1.08-22.28 2.96-33.27 0.77-6.49 0.3-13.03 0.34-19.53-0.03-4.14 2.21-7.77 3.9-11.4-1.06-3.14-4.89-4.47-5.63-7.5499 1.85-14.62 5.73-28.9 9.64-43.09 2.04-6.89 2.69-14.07 4.66-20.96 1.52-4.97 1.72-10.24 3.65-15.07 1.18-3.0099 1.98-6.1499 2.04-9.3799-6.33-4.65-12.21-10.73-14.13-18.57-2.21-8.13-0.02-16.61 2.87-24.26 2.17-5.26 1.07-11.05 1.86-16.53 2.27-13.22 3.7-26.6 6.6-39.71 3.74-20.07 6.92-40.61 15.85-59.17 2.92-6.1599 8.12-10.81 11.51-16.68 3.08-4.42 4.04-9.8201 6.35-14.61 1.58-3.3401 3.21-6.65 4.84-9.9601-0.85-2.6799-1.74-5.34-3.04-7.8199-1.77-4.22-3.86-8.29-5.81-12.41-3.12-7.96-1.92-16.68-0.86-24.91 2.04-11.34 5.79-22.25 8.53-33.41 3.54-12.93 8.4-25.45 12.66-38.14 2.66-4.4301 0.96-9.5699 0.9-14.36-0.09-10.31-3.96-20.01-5.9-30.01-0.97-7.3101-3.58-14.26-4.96-21.48-2.25-6.5901-3.3-13.51-5.79-20-3.11-8.03-5.49-16.28-7.8199-24.55-1.14-0.01-2.27 0-3.39 0.03-1.25 2.88-2.53 5.76-3.91 8.59-3.16 7.72-4.82 15.98-8.66 23.42-4.41 9.5-7.8 19.5-13.16 28.54-2.4 4.46-3.81 9.3899-6.27 13.84-3.82 6.8199-6.12 14.33-9.61 21.32-8.9901 18.27-18.96 36.06-27.3 54.65-3.67 9.08-5.86 18.8-10.74 27.37-4.7 8.39-6.86 17.86-10.29 26.78-3.59 11.51-10.28 21.62-15.28 32.5-3.84 8.3099-6.09 17.21-9.27 25.77-2.65 10.05-8.6801 18.7-12.75 28.18-3.83 9.3101-7.7401 18.62-12.5 27.5-3.46 8.22-6.6801 16.57-11.07 24.37-3.83 9.01-9.82 16.83-14.24 25.54-3.42 6.6-7.65 12.72-12.09 18.67-3.56 4.73-4.95 10.54-7.18 15.93-2.03 5.26-6.69 8.8201-9.31 13.74-6.03 10.73-11.68 21.68-18.07 32.2-2.45 3.72-5.94 6.7-7.91 10.76-1.82 3.75-5.75 5.61-8.95 7.99-6.26 0.3099-10.5 5.5-14.21 9.9399-5.63 7.38-8.64 16.3-12.28 24.74-2.8 6.51-4.17 13.52-6.74 20.13-2.18 5.51-2.92 11.44-4.93 17.02-2.15 4.39-3.99 8.9301-5.64 13.53-0.83 2.9199-2.39 6.12-1.18 9.1599 2.21 3.28 5.74 5.79 6.53 9.92 1.13 6.04-3.18 11.32-7.8 14.63-3.4 1.37-6.79 3.1801-10.54 3.25-5.06 0.14-10.12-0.0699-15.18 0-1.13 7.72-3.05 15.29-4.98 22.85-5.89 21.14-17.63 39.94-25.94 60.1-4.12 7.01-8.33 13.99-11.89 21.31-1.92 4.1201-5.88 6.71-8.3 10.48-2.62 8.96-3.78 18.27-5.42 27.45-1.42 5.05-1.09 10.4-2.54 15.46-1.68 5.99-1.86 12.28-3.58 18.28-2.94 9.6001-7.4 18.85-8.56 28.93-0.7 4.7-2.81 9-4.18 13.53-1.65 5.6301-4.42 10.85-7.22 15.99-3.48 5.8699-7.76 11.71-14 14.86-3.88 2.03-8.5999 1.6001-12.57 0.1299-5.3918-1.9966-5.739-9.376-5.2702-14.171 0.7386-7.5532 3.5893-14.704 4.8206-22.169 0.4791-2.9045 1.3719-5.6726 2.0028-8.5342 0.5693-2.5825 1.8474-4.7039 2.9141-7.1389 2.4034-5.4861 3.9829-11.334 4.6546-17.286 0.7769-6.885 0.349-13.848 1.2028-20.727 0.825-6.647 4.3515-12.638 4.9258-19.264 0.46-6.0801 2.51-11.88 3.25-17.91-1.63-0.0999-3.26-0.1599-4.88-0.2-1.62 1.8-3.83 3.3901-4.27 5.95-2.02 9.9102-3.49 19.96-3.93 30.07-0.61 10.8-6.45 20.15-10 30.1-2.95 6.99-5.64 14.1-8.92 20.95-2.19 5.25-5.08 10.25-6.56 15.78-2.55 9.71-6.75 18.88-10.62 28.12-3.27 6.25-6.38 12.73-11.06 18.09-2.1 2.46-5.22 3.52-8.03 4.95-3.79-0.1399-8.03 0.8201-11.39-1.4299-5.03-2.7-8.26-8.96-6.32-14.54 1.74-11.42 6.44-22.03 9.67-33.05 2.5061-8.8293 7.7772-16.658 10.835-25.323 2.9886-8.4697 5.0567-17.238 6.2275-26.14 1.1683-8.884 4.9304-17.364 6.8448-26.111 0.6817-3.115 1.4744-6.2053 2.083-9.3362 1.11-5.54 3.87-10.52 5.42-15.9-1.38-0.0898-2.76-0.1499-4.13-0.1899-2.58 3.01-5.33 6.1702-5.91 10.26-1.8574 11.064-2.9688 22.165-6.3689 32.865-4.4162 13.898-11.444 26.486-17.241 39.775-3.45 8.0898-8.21 15.65-10.56 24.17-4.6 14.48-10.21 28.64-16.84 42.32-2.0233 3.8335-5.1816 6.9548-8.8143 9.2773-8.9765 5.7383-23.585-3.1472-23.626-13.577-0.0337-8.7441 2.2257-16.908 4.7271-25.253 2.6285-8.7693 5.5908-17.757 9.823-25.862 6.4367-12.326 10.127-26.08 12.351-39.713 1.5821-9.7002 5.635-18.74 9.2105-27.821 3.601-9.146 7.5962-18.122 10.629-27.492 1.78-5.5 4.36-10.83 4.72-16.69-1.03-0.4299-2.06-0.8398-3.08-1.22-3.06 0.8801-6.77 0.6899-9.01 3.3301-1.95 2.28-2.75 5.26-3.97 7.97-2.32 5.9099-6.22 10.98-9.75 16.22-2.28 3.3501-4.28 6.8999-6.83 10.08-5.63 6.6099-9.19 14.62-14.07 21.76-3.65 6.8499-9.17 12.57-12.47 19.61-2.4 9.4001-7.16 17.96-12.06 26.27-5.39 7.6699-9.72 16.59-18.01 21.63-2.87 0.47-5.79 1.48-8.71 0.8899-6.31-1.4399-11.52-6.8301-12.69-13.2-1.07-7.26 0.61-14.66 3.91-21.13 3.7-7.21 5.59-15.24 10.1-22.03 5.42-8.46 11.27-16.81 14.43-26.44 2-5.0601 2.18-10.62 4.29-15.63 3.22-7.53 5.37-15.86 11.21-21.9 3.47-3.76 5.14-8.6699 7.63-13.04 2.4-4.5298 5.98-8.6499 6.41-13.96-2.2 0.3201-4.49 0.6101-6.38 1.9001-5.27 3.1799-10.96 6.0798-17.17 6.71-3.09 0.3599-5.8-1.3601-8.48-2.5601-1.08-1.3699-2.17-2.71-3.29-4.01 0.02-2.4099-0.65-5.1199 1.04-7.0999 4.07-5.49 8.65-10.6 13.75-15.13 3.08-2.76 5.69-6.1499 6.63-10.23 1.33-5.61 5.38-10.13 6.31-15.86 1.57-7.92 3.54-16.07 8.55-22.6 3.31-4.0801 4.81-9.24 7.89-13.47 3.82-5.48 5.91-11.87 8.78-17.83 2.96-5.91 4.67-12.34 7.64-18.24 3.55-7.77 5.65-17.03 12.93-22.3 6.55-5 14.5-7.8099 20.82-13.15 6.97-4.92 12.59-11.4 19.19-16.74 3.09-2.28 3.92-6.2301 6.04-9.2201 3.28-4.62 8.43-7.61 11.3-12.54 2.23-3.74 3.73-7.8501 4.99-11.98 2.57-8.6699 6.06-17.04 8.06-25.87 1.53-7.2999 5.86-13.49 8.76-20.25 1.58-3.83 4.23-7.0299 6.84-10.17-3.76-6.97-11.42-11.4-13.36-19.36-2.14-9.39 0.89-18.85 4.45-27.47 2.18-8.86 4.47-17.74 7.93-26.21 2.42-5.87 2.68-12.27 3.55-18.46 1.04-5.11 2.06-10.22 3.38-15.26 1.89-8.5601 6.86-15.92 10.59-23.73 3.63-7.8101 8.55-14.91 12.26-22.68 5.87-10.55 10.23-21.96 17.24-31.85 5.6-8.54 11.53-16.97 15.79-26.29 3.68-7.7999 7.95-15.31 11.7-23.08 4.13-8.6 11.1-15.41 15.14-24.05 2.56-5.1899 6.35-9.62 9.16-14.66 2.26-3.9901 5.12-7.6001 8.15-11.01 2.81-3.16 6.19-5.88 8.26-9.62 3.43-6.14 6.37-12.94 6.07-20.12-0.34-7.0901 1.5-13.99 2.05-21.01 1.01-11.16 4.5-21.87 8.15-32.4 1.54-6.9501 5.14-13.15 7.05-19.97 4.29-13.72 9.82-26.99 14.49-40.57 2.04-8.22 5.57-15.95 7.87-24.09 3.57-11.1 7.38-22.12 11.03-33.2 4.9-11.64 9.4-23.43 13.67-35.31 5.93-12.35 9.21-25.73 12.96-38.84 4.4-11.96 7.34-24.38 12.01-36.24 2.9-11.35 7.77-22.1 10.78-33.43 3.59-10.54 7.28-21.07 9.98-31.89 1.76-6.72 4.56-13.12 6.19-19.87 1.13-3.8099 1.47-7.89 3.38-11.42 0.24-6.46 2.17-12.66 4.28-18.7 1.76-4.86 2.53-10 4.32-14.84 1.54-4.05 2.05-8.37 3.18-12.52 1.54-6.24 3.69-12.29 5.51-18.44 3.13-10.38 5.32-21.03 8.63-31.34 0.9-5.72 2.73-11.22 4.09-16.83 0.82-5.85 3.7-11.13 4.73-16.93 2.48-8.5 4.76-17.06 6.75-25.69 2.5-7.4 3.52-15.23 6.36-22.51 1.99-7.21 3.01-14.78 6.07-21.65 1.03-7.71 3.83-15.05 4.97-22.74 2.22-5.75 2.58-12 4.81-17.74 0.08-1.09 0.17-2.16 0.27-3.22 1.88-4.66 3.61-9.47 4.1-14.49 1.44-3.98 2.22-8.15 3.65-12.12 0.32-2.8 1.26-5.45 2.56-7.93-0.11-0.41-0.32-1.23-0.43-1.63 3.45-7.89 4.54-16.58 8-24.47 0.82-2.66 1.74-5.29 2.39-7.9901 0.37-0.41 1.11-1.22 1.48-1.6299 0.07-1.33 0.15-2.65 0.23-3.97 3.61-9.38 7.09-18.83 10.65-28.23 0.91-2.16 1.98-4.26 3.4-6.13 0.01-0.51 0.04-1.53 0.05-2.05 0.56-0.3 1.66-0.92 2.22-1.22-0.09-0.65-0.25-1.93-0.33-2.57 0.87-0.68 1.75-1.35 2.63-2.02-0.27-0.44-0.82-1.34-1.1-1.78 1.04-0.73 2.08-1.45 3.13-2.16-0.29-0.4901-0.85-1.46-1.14-1.95 0.71-0.56 1.42-1.12 2.15-1.66 1.93-5.88 4.56-11.61 8.31-16.55-0.02-0.61-0.06-1.82-0.08-2.43 0.92-0.47 1.86-0.94 2.8-1.39-0.33-0.49-0.98-1.46-1.31-1.94 0.8-0.57 1.62-1.13 2.4399-1.68 1.32-4.62 4.63-8.23 6.69-12.49 0.63-1.33 1.23-2.66 1.61-4.09 0.75-0.66 1.51-1.31 2.28-1.95-0.17-0.46-0.52-1.36-0.7-1.82 0.67-0.49 1.34-0.97 2.02-1.44 1.56-3.89 3.85-7.46 6.56-10.64-0.09-0.38-0.26-1.14-0.35-1.53 1.7-1.95 4.44-3.65 4.16-6.58 1.42-1.41 2.88-2.78 4.37-4.12-0.2-0.39-0.61-1.18-0.81-1.57 1.36-1.87 5.74-3.17 3.96-5.95 1.27-0.32 2.28-1.13 3-2.21 2.56-3.64 6.24-6.24 9.06-9.65 0.89 0.18 1.8 0.28 2.72 0.31-0.37-1.01-0.7599-2.01-1.18-2.98 1.02 0.35 2.09 0.72 3.13 1.1 3.91-5.82 10.91-7.99 15.66-12.83 0.29 0.24 0.86 0.72 1.15 0.97 0.44-1.01 0.89-2.01 1.35-3 0.64-0.06 1.92-0.19 2.5699-0.25 0.4-0.37 1.2-1.11 1.61-1.48 2.85-1.1 5.65-2.33 8.42-3.64 7.72-3.81 16.21-5.62 24.17-8.84 6.45-2.66 13.15-4.66 19.56-7.45 4.99-1.64 9.82-3.86 15.01-4.88 5.99-1.2599 11.51-3.96 17.33-5.78 11.46-3.25 21.79-9.34 32.52-14.36 8.61-3.6801 16.94-8.01 25.76-11.23 9.9301-4.48 20.6-6.88 30.99-10.03 10.78-3.44 22.03-4.94 32.85-8.23 4.79-1.24 8.44-4.8199 12.87-6.87 0.58 0.47 1.74 1.42 2.32 1.89l0.4-2.88c1.99-1.22 4-2.41 5.99-3.64 4.95-1.81 9.54-4.5 14.54-6.18 8.05-1.82 15.73-4.92 23.45-7.79 2.44-0.96 4.87-1.95 7.37-2.78 1.73-3.41-0.12-7.06-0.32-10.6-1.75-14.28-3.5-28.57-4.92-42.88-2.96-12.45-3.12-25.36-6.07-37.83-0.72-7.13-1.25-14.28-2.05-21.4 1.43-4.81-0.57-9.66-2.7-13.91-4.67-1.07-8.25 3.21-12.82 3.04-2.92 0.16-5.77-0.56-8.57-1.28-5.29-2.84-9.81-6.84-13.47-11.58-10.68-11.82-18.15-26.07-24.42-40.6-4.34-11.82-7.92-24.05-9.38-36.59 0.09-7.68-0.79-15.3-1.23-22.95 0.8-7.22 2.26-15.86 9.08-19.91 1.94-0.24 3.9-0.17 5.87-0.18 1.19 0.84 2.39 1.65 3.63 2.45 1.65 1.11 3.33 2.18 5 3.28 0.54 0.1 1.61 0.3 2.15 0.4 0.3701 0.41 1.11 1.24 1.48 1.65 2.44 0.56 5.01 2.24 7.5299 1.04 1.2699-0.6047 2.6329-1.0544 3.9158-1.6476-2.0679-12.376-2.8018-24.766-4.1676-37.206-1.2206-11.118 0.4056-21.547 1.0991-32.664 0.556-8.0056 0.9995-16.021 1.4991-24.03 0.4688-7.5138 2.4782-14.844 2.9338-22.232 0.5828-9.4484 2.1737-20.082 7.285-28.225 3.2983-5.2552 4.3542-11.589 7.5804-16.882 3.3865-5.5554 7.3326-11.196 11.537-16.194 5.6346-6.6974 12.188-12.628 19.155-17.908 8.2389-6.2437 16.144-13.343 24.571-19.337 3.5515-2.526 7.491-3.6074 11.22-5.6384 3.1354-1.7075 5.0375-3.86 8.5538-5.2799 3.9844-1.6088 7.8552-3.4597 11.921-4.9127 14.11-5.0428 28.814-7.338 43.495-10.033 21.351-2.9211 39.231-3.685 60.383-2.4591zm966.41 1986.8c2.45 2.9601 4.23 6.4001 6.5 9.52 4.5999 7.21 10.85 13.15 16 19.97 3.77 4.4001 7.9199 8.52 11.09 13.42 0.6802 0.01 2.04 0.0298 2.7202 0.0498-3.3201-6.01-8.4001-10.86-10.82-17.4-1.3-2.7-2.5701-5.4199-3.8501-8.1001-3.53-5.75-5.25-12.43-9.1699-17.93-1.8401-1.02-3.5801-2.1699-5.53-2.86-2.55-3.38-5.7 0.93-6.9399 3.3299m-34.95 21.04c-0.3901 1.3901-1.6702 2.99-0.3101 4.3301 5.1199 8.4099 11.29 16.4 19.26 22.31-0.1001-1.9902-0.1301-3.9902-1.1899-5.7002-2.0901-3.99-3.4001-8.29-5.3201-12.33-3.08-4.0101-6.6401-9.4203-12.44-8.6102m-41.47 9.6799c0.6301 3.98 4.6702 5.4502 7.1501 8.1401-0.46-1.05-0.9299-2.1201-1.3201-3.1101-1.7299-1.9699-2.8-4.9599-5.83-5.03m116.34 17.97c0.8801 2.4502 2.1599 4.76 3.5 7.02 3.04 8.5 7.23 16.51 11.74 24.33 1.99 3.23 3.1001 7.28 6.6401 9.27-0.8401-2.55-1.6902-5.1001-2.1802-7.72-0.77-2.01-1.45-4.02-2.01-6.0601-1.97-4.05-4.0498-8.03-6.21-11.96-3.6899-5.0599-5.6899-11.71-11.48-14.88m-40.24 28.18c4.51 11.37 12.94 20.61 22.07 28.52 3.74 3.76 5.4299 8.98 9.29 12.69-2.24-6.03-7.3901-10.36-9.6702-16.39-3.0999-4.2998-5.6199-9.0198-8.9099-13.15-2.3201-2.3301-4.4199-4.8401-6.6799-7.1799-1.8101-1.8001-3.24-4.46-6.1001-4.49m-1491.6 92.33c-0.03 1.3201-0.06 2.6702-0.08 4.04 2.6801 0.1401 4-1.5999 4.15-4.0999-1.36-0.0099-2.72 0.0101-4.07 0.0599m977.89 10.7c1.4501 2.25 2.89 4.51 4.3601 6.7898 1.2899 1.8101 2.3999 4.4402 5.1 4.1401 0.49-3.8801 0.5699-7.79 0.51-11.67-3.05-0.02-6.1001-0.1401-9.02-1-0.23 0.4299-0.7099 1.2998-0.9501 1.74m-989.16 15.27c-0.66 2.72-0.09 5.49 0.31 8.23 3.6801-1.8901 8.17-4.8201 8.01-9.47-2.72 0.71-5.51 1.1399-8.32 1.24z"/>
</svg>
