<?xml version='1.0' encoding='utf-8'?>
<svg xmlns="http://www.w3.org/2000/svg" width="3e3" height="3e3" version="1.1" viewBox="0 0 793.75 793.75"> <g transform="translate(0 496.75)"> <circle cx="396.88" cy="-99.875" r="388.58" fill="#fcfcfc" style="paint-order:normal"/> <path transform="matrix(.26458 0 0 .26458 0 -496.75)" d="m1621.3 37.408c-4.274 0.54434-8.1893 1.6381-13.531 3.3184-15.342 4.8258-25.569 4.9786-131.13 1.9609-42.996-1.2292-85.433-2.6691-112.59-3.7734a1468.7 1468.7 0 0 0-1332.7 1461.1 1468.7 1468.7 0 0 0 1463.5 1468.4c6.3366-0.4571 13.002-0.9597 20.266-1.5332 23.602-1.8636 59.739-2.5817 83.549-1.7051a1468.7 1468.7 0 0 0 1370-1465.2 1468.7 1468.7 0 0 0-1347.4-1462.6z" fill="#ff9d5d" stroke-width="3.0303"/> <path transform="matrix(.26458 0 0 .26458 0 -496.75)" d="m1629.2 39.861c-7.3543-0.068464-12.56 1.0649-20.555 3.5449-14.3 4.4361-29.952 4.8475-133.39 3.5039-64.452-0.83716-124.31-2.8725-133.01-4.5234-0.9392-0.17813-1.9725-0.32663-3.0566-0.45703a1468.7 1468.7 0 0 0-857.02 399.8c-3.5386 3.418-7.0538 6.838-10.539 10.264a1468.7 1468.7 0 0 0-93.852 100.74c-0.64277 0.75733-1.281 1.5171-1.9219 2.2754a1468.7 1468.7 0 0 0-344.49 944.99 1468.7 1468.7 0 0 0 636.94 1210.3c1.6415 1.1259 3.2797 2.2603 4.9238 3.3789a1468.7 1468.7 0 0 0 790.89 253.21c11.547-0.7393 25.49-1.8065 43.478-3.2246 25-1.9738 65.908-2.8562 90.908-1.9668 10.328 0.3674 21.235 0.3568 32.639 0.0039a1468.7 1468.7 0 0 0 366.09-81.209c21.749-9.5611 43.205-21.025 72.162-37.615 36.442-20.878 61.297-29.894 73.568-26.686 2.3988 0.6273 7.4202-0.6188 14.447-3.3535a1468.7 1468.7 0 0 0 130.69-73.859c3.6955-2.3707 7.4029-4.7649 11.123-7.1855a1468.7 1468.7 0 0 0 603.02-795.45c0.6896-2.3577 1.3804-4.7394 2.08-7.1641a1468.7 1468.7 0 0 0 33.5-131.2c2.7832-20.867 1.631-43.21 4.0039-62.652l1.8497-15.152-6.0098 7.5762c-4.9311 6.2159-6.7207 6.869-9.9629 3.6406-39.278 9.1516-55.629-104.82-45.668-155.31 8.5278-43.226 14.439-152.56 18.162-188.91 0.8556 0.8462 3.1245 1.7585 7.795 2.8496 3.3944 2.098 51.366 45.443 57.049 7.3184a1468.7 1468.7 0 0 0-1229.7-1345.2c-32.978-3.762-68.761-8.0517-82.762-9.9473-10.646-1.4413-17.665-2.2221-23.385-2.2754zm-1010.3 425.05c16.094-0.24381 21.285 3.2456 26.598 10 3.3399 4.246 6.0723 8.8949 6.0723 10.332 0 5.1089-22.957 27.907-46.904 46.578-13.369 10.424-44.081 29.48-68.248 42.348-77.56 41.297-97.472 53.68-119.07 74.049-23.885 22.525-49.359 52.957-68.709 82.08-7.198 10.833-15.857 22.766-19.242 26.516-9.255 10.251-20.879 8.8406-32.059-3.8926-7.9814-9.0903-9.4043-13.137-9.4043-26.725 0-20.249 6.7577-43.346 20.219-69.105 14.953-28.616 28.153-42.722 59.725-63.82 46.121-30.821 49.39-34.032 62.402-61.295 17.028-35.677 28.003-43.082 75.836-51.176 62.3-10.542 94.545-15.612 112.79-15.889zm790.47 99.496c13.16 0.30552 27.183 4.4059 42.838 12.164 51.505 25.525 90.266 78.897 90.266 124.29 0 45.529-33.105 81.967-84.24 92.723-55.919 11.762-140.43-11.668-164.62-45.637-18.677-26.23 10.092-108.27 53.592-152.82 20.697-21.199 40.233-31.23 62.166-30.721zm-839.64 355.45c12.193-0.13276 20.715 8.7052 30.344 29.381 3.6869 7.9167 7.8854 14.395 9.3301 14.395 1.4447 0 4.6482 3.0843 7.1191 6.8555 3.9566 6.0388 3.9718 11.802 0.125 48.309-2.4023 22.798-5.6013 46.942-7.1094 53.654-5.9645 26.546-31.144 56.248-59.197 69.828-13.586 6.577-19.906 7.0518-40.271 3.0273-17.679-3.4934-24.138-7.5229-49.74-31.031l-22.402-20.57 0.10156-17.738c0.08345-14.701 1.8138-20.496 10.113-33.848 6.4381-10.357 11.532-24.032 14.26-38.291 2.334-12.199 6.4798-26.574 9.2148-31.945 8.9961-17.668 25.503-38.122 36-44.609 9.1064-5.6281 11.815-5.9761 23.041-2.9531 10.413 2.804 15.034 2.5426 25.477-1.4453 5.0575-1.9315 9.5312-2.9733 13.596-3.0176zm560.37 246.8c32.386 0 57.777 21.067 52.957 43.94-4.1515 19.702-19.023 40.343-35.127 48.756-22.976 12.003-48.345-2.3348-52.44-29.637-2.5925-17.288 2.9329-45.018 11.02-55.299 5.2896-6.7245 8.4376-7.7598 23.59-7.7598zm-954.22 70.141c1.4829-0.034 2.8658 1.1939 5.3281 3.6563 4.2226 4.2226 5.209 10.882 5.209 35.18 0 25.747-0.89885 31.18-6.3809 38.529-14.019 18.794-22.72 9.6118-23.072-24.35-0.25533-24.645 4.0837-41.036 12.996-49.102 2.8558-2.5844 4.4371-3.88 5.9199-3.9141zm2727.5 137.53c1.0511 0.0127 1.6504 2.0294 1.6504 5.7891 0 2.1422-3.1813 3.6252-4.5567 5.0273 0.6328-5.8303 1.2084-9.6419 1.711-10.15 0.4456-0.4508 0.8449-0.6702 1.1953-0.666zm-1971.8 56.482c1.8057 0.0155 3.6998 0.1589 5.6895 0.4257 17.805 2.3877 29.505 15.595 29.414 33.201-0.07831 15.102-9.1672 36.71-20.375 48.438-5.865 6.1369-10.901 8.334-19.109 8.334-29.656 0-41.705-35.159-23.965-69.932 7.3421-14.392 15.706-20.576 28.346-20.467zm-633.17 412.11c10.619 0.2325 18.494 10.531 24.834 32.34 5.1313 17.651 4.1219 46.73-2.0195 58.205-4.245 7.9317-7.0077 7.4998-18.922-2.961-33.06-29.027-36.89-84.4-6.0527-87.496 0.73267-0.0735 1.4522-0.1034 2.1602-0.0879zm513.66 930.44c6.0497-0.1406 41.144 18.394 53.168 28.244 12.913 10.579 3.6575 9.311-18.246-2.4981-24.257-13.078-39.674-24.254-35.414-25.674 0.13296-0.0443 0.29703-0.0677 0.49219-0.0723zm303.47 91.986c12.632 0.1069 27.658 1.4648 38.07 4.0156 16.346 4.0044 40.418 21.485 40.418 29.35 0 4.9465-9.5726 5.1811-30.303 0.7402-41.581-8.9075-74.539-22.939-71.902-30.611 0.8439-2.4555 11.084-3.601 23.717-3.4941zm557.28 4.3418c10.886 0 14.235 4.7174 6.3457 8.9394v-0.0019c-7.4956 4.0117-14.527 4.0749-16.951 0.1523-3.1713-5.1312 1.4477-9.0898 10.606-9.0898zm157.09 22.172c3.9331 0.0149 4.9613 1.8355 1.7031 5.0938-1.6076 1.6077-7.3132 3.8021-12.678 4.875-13.442 2.6884-12.628-3.4486 1.0566-7.9649 4.1525-1.3704 7.5581-2.0128 9.918-2.0039z" fill="#e8663e" stroke-width="3.0303"/> <path transform="matrix(.26458 0 0 .26458 0 -496.75)" d="m1623.2 40.85c-6.7497 0.095165-10.085 1.371-15.354 3.6602-10.842 4.7105-20.702 5.2805-79.053 4.5723-36.667-0.44504-101.27-2.0735-143.57-3.6191-29.388-1.074-47.659-1.7008-61.772-1.625a1468.7 1468.7 0 0 0-224.25 43.66c-20.328 7.339-43.198 18.81-73.436 36.697-68.265 40.382-90.051 51.421-95.611 48.445-3.0275-1.6202-8.4135-2.9453-11.969-2.9453-5.085 0-6.0542-1.2929-4.541-6.0605 1.4629-4.6093-0.14121-6.557-6.1641-5.4766a1468.7 1468.7 0 0 0-199.13 104.94c-1.1912 0.76157-2.3815 1.5245-3.5703 2.2891a1468.7 1468.7 0 0 0-110.77 79.213c-6.3197 5.5416-9.4609 9.0812-7.9805 9.3867 8.0853 1.6687 29.825-9.9964 56.398-30.262 34.345-26.192 49.902-34.921 69.766-39.141 17.497-3.7165 38.054-13.182 68.053-31.336 28.643-17.333 37.033-18.572 71.027-10.498 15.968 3.7926 37.215 6.9487 47.215 7.0137 27.357 0.17813 35.323-5.934 51.932-39.85 15.049-30.729 32.907-51.028 52.781-59.99 13.543-6.107 10.005-7.1066 48.316 13.645 22.8 12.349 41.495 12.069 96.543-1.4473 54.678-13.424 58.321-13.424 70.533-0.00391 12.657 13.909 29.697 23.627 55.213 31.486 28.164 8.6749 49.366 8.2148 77.484-1.6797 20.811-7.3233 28.048-8.1968 77.5-9.3574 81.795-1.9197 145.24 5.486 169.38 26.805 31.448 27.775 48.321 23.957 107.84 27.246 71.377 3.9439 249.65 41.44 322.27 64.932 49.137 15.893 56.547 21.645 86.477 67.109 26.024 39.532 71.512 90.845 97.896 110.43 18.226 13.532 3.8397 38.044 5.4317 65.545 1.0956 18.926-6.4091 20.639-11.631 32.443-14.067 31.8-38.179 55.983-62.525 62.705-9.0879 2.5093-14.152 2.1073-24.82-1.9668-33.64-12.847-77.503 14.225-88.879 54.855-6.5846 23.518 0.2318 37.368 31.361 63.723 6.8505 5.7997 11.133 12.098 11.133 16.377 0 11.73-20.486 27.375-72.875 55.652-93.154 50.28-121.1 75.083-130.16 115.55-4.5185 20.162 0.3248 42.824 16.184 75.723 12.073 25.046 34.205 59.19 99.188 153.03 26.824 38.736 54.197 89.808 61.606 114.95 6.2087 21.063 6.1947 53.298-0.0313 77.043-6.3687 24.289-6.2218 67.62 0.3145 92.861 16.077 62.086 58.618 122.75 101.66 144.96 19.847 10.244 29.191 22.793 43.236 58.064 18.189 45.678 29.373 98.419 29.373 138.52v22.57c0 29.544-0.3606 40.851-13.662 77.316-9.4983 26.039-29.732 41.17-55 45.033-7.2208 1.1041-26.409-1.1885-50.529-6.0391-125.87-25.312-319.2-24.498-395.24 1.6641-30.816 10.602-35.333 20.814-16.058 36.303 14.687 11.803 16.971 17.203 10.367 24.5-8.5284 9.4239-39.209 16.809-136.72 32.912-157.02 25.932-200.05 40.552-218.34 74.193-6.7902 12.486-6.4646 57.223 0.6055 83.332 12.908 47.667 47.358 105.64 83.521 140.55 28.416 27.433 49.754 37.007 88.025 39.492 53 3.442 98.639 19.522 125.39 44.178 24.806 22.866 21.765 42.513-8.7403 56.478-31.296 14.328-54.682 17.478-130.28 17.551-60.919 0.0588-73.569-0.7795-100.45-6.6621-46.477-10.172-87.026-25.329-156.61-58.537-81.647-38.964-93.825-43.152-126.27-43.436-23.66-0.2063-27.788 0.711-50.678 11.272-13.705 6.3233-31.763 12.308-40.129 13.299-31.53 3.7342-84.619-10.033-152.21-39.469-58.171-25.336-85.379-35.612-110.02-41.557-30.728-7.4127-39.994-7.3608-61.439 0.3398-30.532 10.964-59.478 14.984-107.77 14.965-66.676-0.026-123.55-9.7784-169.28-29.025-37.536-15.799-54.461-29.547-111.27-90.393-86.335-92.465-89.223-94.266-86.096-53.711 1.5176 19.68 0.99443 23.925-3.3906 27.564-4.076 3.3828-7.0738 3.589-14.031 0.9629-3.7157-1.4025-6.9094-1.9194-8.2148-1.4453a1468.7 1468.7 0 0 0 56.643 98.746c0.57305 0.9025 1.1287 1.7699 1.6953 2.6582a1468.7 1468.7 0 0 0 81.586 114.09c2.1042 2.6655 4.2166 5.3256 6.3398 7.9804a1468.7 1468.7 0 0 0 173.1 180.58c3.3872 1.7716 5.3652 1.4843 7.5293 0.1328 12.488-7.7987 48.665-0.7806 105.81 20.525 65.815 24.537 87.606 27.211 107.91 13.242 17.86-12.287 30.641-15.857 57.24-15.984 33.826-0.162 44.49 3.5813 65.672 23.055 10.001 9.1937 23.178 18.806 29.285 21.359 6.7243 2.8119 27.837 5.6523 53.529 7.2012 23.333 1.4067 74.468 5.9955 113.63 10.197 133.55 14.327 212.65 15.538 235.61 3.6074 16.03-8.3314 13.663-17.974-9.8496-40.139-10.833-10.212-19.697-20.864-19.697-23.67 0-12.626 43.802-19.943 119.39-19.943 105.59 0 191.82 13.969 239.34 38.773 28.491 14.87 38.265 31.932 28.674 50.062-1.9258 3.6404-8.178 12.357-13.895 19.369s-9.5476 14.121-8.5117 15.797c3.9526 6.3955 26.035 9.3027 71.363 9.3945 54.61 0.1106 103.06 4.2344 114.62 9.7578 4.9098 2.3457 8.5176 6.8486 9.1523 11.42 0.5762 4.1498 2.4496 9.2514 4.1602 11.336 1.7126 2.0824 6.7264 3.7852 11.143 3.7852 10.861 0 59.616-27.638 129.1-73.186 104.56-68.536 144.91-90.166 180.4-96.701 19.151-3.5262 20.379-3.3646 37.879 4.9883 25.808 12.318 50.341 11.692 107.01-2.7304 58.958-15.005 65.138-11.414 42.814 24.865-9.7948 15.918-11.457 24.582-4.7188 24.582 5.1249 0 47.863-21.673 94.803-48.074 36.704-20.644 48.944-23.468 37.211-8.584-6.9979 8.877-7.2917 11.203-2.8965 8.6856a1468.7 1468.7 0 0 0 232.81-258.67c9.4768-14.107 19.724-29.802 30.022-45.949a1468.7 1468.7 0 0 0 51.219-83.541c2.3998-4.1194 4.6261-7.9934 6.6992-11.652a1468.7 1468.7 0 0 0 67.555-143.43c1.3333-5.1506 1.046-8.1077-0.2949-11.051-1.7814-3.9096-3.2383-11.928-3.2383-17.82s-4.4042-20.488-9.7871-32.434c-8.3721-18.58-9.7971-25.225-9.8496-45.963-0.0554-21.843 0.9491-26.105 10.15-43.07 11.018-20.315 15.416-24.106 37.568-32.379 8.8649-3.3106 17.495-9.3928 22.338-15.742 4.3405-5.6906 11.444-12.048 15.785-14.129 2.851-1.3664 4.8914-3.0029 6.6523-5.9707a1468.7 1468.7 0 0 0 24.258-128.14c-1.3732-0.8591-3.8395-1.4727-6.2793-1.4727-11.705 0-13.574-10.366-13.385-74.244 0.2436-82.244 16.857-209.18 29.248-223.46 2.0624-2.3778 3.3409-4.4962 4.0118-7.5469a1468.7 1468.7 0 0 0-50.094-296.6c-0.0186-0.067-0.0361-0.1342-0.0547-0.2012a1468.7 1468.7 0 0 0-264.11-519.19c-0.3231-0.41573-0.6105-0.79299-0.9355-1.2109a1468.7 1468.7 0 0 0-874.36-528.45c-5.9219-0.61552-12.348-1.2438-19.646-1.9297-11.667-1.0963-47.003-5.3987-78.523-9.5605-31.342-4.1383-45.666-5.9681-54.344-5.8457zm848.42 1162.8c17.417 0.0048 30.008 4.7035 40.062 14.096 17.949 16.766 16.392 22.738-29.338 112.54-9.9895 19.617-37.055 41.684-63.062 51.414-33.564 12.558-59.95 6.3117-94.906-22.471-20.407-16.802-42.188-28.563-78.719-42.504-43.009-16.413-55.902-28.468-48.297-45.158 7.5247-16.515 37.796-25.896 108.46-33.617 52.1-5.692 49.634-5.1777 96.768-20.234 29.366-9.3814 51.61-14.069 69.027-14.064zm-480.67 1039.5c6.1214-0.0644 11.697 0.6555 16.404 2.209 29.353 9.6874 15.093 34.49-30.645 53.297-21.512 8.8457-32.79 9.1926-45.56 1.4062-21.012-12.812-14.887-31.493 14.953-45.605 15.277-7.2247 31.381-11.165 44.848-11.307zm352.73 65.193c2.432-0.0203 5.1118-0.0136 8.0918 0.0097 55.015 0.4321 63.854 11.52 45.1 56.57-5.0597 12.154-13.895 27.584-19.635 34.289-16.736 19.553-75.521 45.402-143.47 63.084-27.262 7.0946-54.778 9.5929-59.012 5.3594-4.5386-4.5387-1.4817-15.433 7.3301-26.123 5.143-6.2393 22.53-20.718 38.637-32.174 32.042-22.789 37.916-28.434 50.752-48.773 15.754-24.964 25.949-36.369 39.727-44.443 10.579-6.1997 15.453-7.6569 32.476-7.7988z" fill="#bf4229" stroke-width="3.0303"/> <path d="m647.03 21.425c-2.2458-0.82578-4.1599-3.018-7.2406-8.2929-3.5115-6.0126-5.394-7.1736-11.631-7.1736-2.4006 0-9.8701-0.56075-16.599-1.2461-26.261-2.6747-38.568-5.3369-55.357-11.974-17.541-6.9344-19.814-7.3843-26.65-5.2728-7.1165 2.1981-16.134 2.2423-20.333 0.09964-4.128-2.106-7.6665-6.3197-10.436-12.427-4.1423-9.1357-8.714-10.708-67.796-23.32-13.652-2.9141-25.378-5.6106-26.057-5.9923-2.6805-1.5055 2.1171-1.8121 21.475-1.3727 21.403 0.48582 33.182 1.8771 53.049 6.266 14.088 3.1123 14.533 3.1106 18.152-0.06727 3.8639-3.3926 8.7429-5.5879 12.468-5.6101 3.4996-0.02085 4.6568 1.3432 8.8279 10.405 3.1597 6.8649 6.9387 11.083 10.571 11.8 2.2954 0.45286 7.9902 2.3824 44.596 15.111 6.8351 2.3766 13.422 4.3295 14.639 4.3399 1.2162 0.01034 8.6618 1.4633 16.546 3.2288 22.677 5.0781 19.748 5.3204 31.423-2.6001 5.4983-3.7301 11.392-7.2425 13.097-7.8053 9.5633-3.1562 30.93 5.2719 30.93 12.2 0 2.7767-1.8666 7.8036-4.3702 11.77-2.6886 4.2591-6.3402 6.5394-9.4695 5.9136-2.0894-0.41788-2.8662 0.086863-7.1188 4.6258-6.8259 7.2855-9.2226 8.6794-12.716 7.395zm35.876-253.21c-12.47-4.5796-32.738-27.274-42.358-47.431-1.7464-3.6592-4.769-11.472-6.7168-17.361-4.0847-12.351-7.0973-17.87-14.193-26.002-6.1383-7.0348-12.149-12.331-23.884-21.045-4.8716-3.6174-8.8717-6.8093-8.8892-7.0931-0.62399-10.114-1.7116-13.187-6.0352-17.054-14.797-13.232-20.743-20.061-30.272-34.766-4.5983-7.0962-7.49-9.3935-16.126-12.812-15.351-6.0756-66.312-16.242-86.241-17.204-10.044-0.4849-12.226-0.83862-16.035-2.5993-2.4252-1.1209-5.2871-2.7606-6.3599-3.6438l-1.9505-1.6059 1.9505-1.263c2.829-1.8319 12.31-3.4824 33.219-5.7827 24.084-2.6496 26.057-3.0132 26.057-4.8007 0-1.3844-2.1428-2.0532-19.126-5.9701-7.6531-1.765-15.049-3.939-16.436-4.8312-4.9772-3.2017-7.8096-4.034-27.416-8.0566-10.936-2.2438-20.182-4.2636-20.546-4.4884-1.3532-0.83631-0.59584-1.9176 1.3431-1.9176 3.4831 0 2.2913-2.2375-2.0044-3.7632-2.2049-0.7831-4.0088-1.6668-4.0088-1.9637s6.0433-0.48284 13.43-0.41313c10.665 0.10065 14.004-0.13142 16.218-1.1273 2.4585-1.1058 3.6906-1.1276 10.423-0.18443 4.1992 0.58827 15.392 1.9434 24.873 3.0114 30.832 3.4732 44.605 7.5013 71.357 20.87 17.684 8.8372 30.152 14.428 37.683 16.896 15.008 4.9192 37.206 17.234 53.318 29.579 4.8507 3.7166 11.157 8.4472 14.014 10.512 12.302 8.8931 21.376 16.814 35.295 30.811 8.158 8.2034 15.35 15.899 15.982 17.102 1.0618 2.0198 1.0158 2.2799-0.60414 3.4146-2.2096 1.5477-2.1084 1.754 7.046 14.363 3.842 5.2917 8.7939 12.327 11.004 15.634 7.1462 10.693 8.0461 13.443 4.8562 14.843-2.5551 1.1216-2.1382 3.6677 3.4334 20.964 5.7448 17.834 7.3017 25.001 7.4649 34.361 0.11654 6.6869-0.0726 7.6339-2.5157 12.599-4.3859 8.9131-8.4379 10.504-20.005 7.8568-4.5185-1.0343-5.3797-1.0128-8.8194 0.22009-4.4339 1.5892-4.4773 1.5899-8.4249 0.14022z" fill="#662f23" stroke-width=".80177"/> <path transform="matrix(.26458 0 0 .26458 0 -496.75)" d="m1477.9 32.121a1468.7 1468.7 0 0 0-1446.6 1467.9 1468.7 1468.7 0 0 0 1451.8 1467.8c-288.46-60.118-550.6-236.34-741.42-499.08-196.04-269.92-303.95-613.42-304.32-968.74 0.14035-354.38 107.26-697.15 302.19-966.96 189.79-262.7 450.77-439.53 738.34-500.92z" fill-opacity=".31373"/> <ellipse transform="rotate(26.569)" cx="26.965" cy="-262.51" rx="5.1449" ry="7.39" fill="#ffb983" opacity=".434" style="paint-order:normal"/> <path transform="rotate(-58.231)" d="m640.98 203.07a2.5135 5.8208 0 0 1-2.5135 5.8208 2.5135 5.8208 0 0 1-2.5135-5.8208 2.5135 5.8208 0 0 1 2.5135-5.8208 2.5135 5.8208 0 0 1 2.5135 5.8208z" fill="#411916" opacity=".434" style="paint-order:normal"/> <path d="m506-463.45c5.0767 2.341 8.7985 4.9974 8.3129 5.9331-0.4856 0.93577-4.6206-0.67116-9.6972-3.0122-5.0767-2.341-9.1726-4.5297-8.687-5.4654 0.48561-0.93576 4.9947 0.20344 10.071 2.5445z" fill="#411916" opacity=".434" style="paint-order:normal"/> <path d="m537.35-453.84a15.284 2.7792 22.62 0 1 13.742 8.5909 15.284 2.7792 22.62 0 1-14.544-2.9101 15.284 2.7792 22.62 0 1-13.742-8.5909 15.284 2.7792 22.62 0 1 14.544 2.9101z" fill="#411916" opacity=".434" style="paint-order:normal"/> <path d="m590.73-389.33c3.3002 4.0466 6.2388 9.1214 4.7173 10.758s-6.9269-0.78473-10.227-4.8313c-3.3002-4.0466-5.584-9.3085-4.0624-10.945 1.5215-1.6366 6.2721 0.97181 9.5723 5.0184z" fill="#411916" opacity=".434" style="paint-order:normal"/> <path d="m634.44-389.28c4.6329 4.6809 8.8878 10.964 8.2621 11.886-1.0065 1.4831-6.8519-2.8318-11.485-7.5127-4.6328-4.6809-9.114-9.5288-8-10.933 0.59721-0.75267 6.5898 1.8787 11.223 6.5596z" fill="#411916" opacity=".434" style="paint-order:normal"/> <path d="m650.72-317.98c5.9424 4.2653 5.9062 9.5521 2.6982 12.591-1.6496 1.5626-5.6135-2.7736-8.9357-6.8939-3.3222-4.1202-4.619-8.6616-2.8966-10.143s4.8344 1.3602 9.1341 4.4465z" fill="#411916" opacity=".434" style="paint-order:normal"/> <path d="m698.86-292.81c2.4305 3.0476 4.13 9.7143 0.4346 13.429-2.4339 2.4466-6.0574-1.0189-8.8302-3.7589-3.7534-3.7091-3.3458-7.9919-1.2283-10.717 2.1174-2.7251 7.1934-2.0007 9.6239 1.0469z" fill="#411916" opacity=".434" style="paint-order:normal"/> </g> </svg>