<?xml version='1.0' encoding='utf-8'?>
<svg xmlns:xlink="http://www.w3.org/1999/xlink" xmlns="http://www.w3.org/2000/svg" width="1920" height="1080" viewBox="0 0 508 285.75" version="1.1" id="svg5"><defs id="defs2"><linearGradient id="linearGradient41521"><stop style="stop-color:#c7a1a1;stop-opacity:1;" offset="0" id="stop41517"/><stop style="stop-color:#ab8f73;stop-opacity:1;" offset="1" id="stop41519"/></linearGradient><linearGradient id="linearGradient40785"><stop style="stop-color:#ba9797;stop-opacity:1;" offset="0" id="stop40781"/><stop style="stop-color:#ab8f73;stop-opacity:1;" offset="1" id="stop40783"/></linearGradient><linearGradient id="linearGradient39957"><stop style="stop-color:#a18181;stop-opacity:1;" offset="0" id="stop39953"/><stop style="stop-color:#ab8f73;stop-opacity:1;" offset="0.3162517" id="stop39955"/></linearGradient><linearGradient id="linearGradient39221"><stop style="stop-color:#947878;stop-opacity:1;" offset="0" id="stop39217"/><stop style="stop-color:#ab8f73;stop-opacity:1;" offset="0.1558689" id="stop39219"/></linearGradient><linearGradient id="linearGradient39211"><stop style="stop-color:#876c6c;stop-opacity:1;" offset="0" id="stop39207"/><stop style="stop-color:#ab8f73;stop-opacity:1;" offset="0.24140063" id="stop39209"/></linearGradient><linearGradient id="linearGradient39201"><stop style="stop-color:#7a6262;stop-opacity:1;" offset="0" id="stop39197"/><stop style="stop-color:#ab8f73;stop-opacity:1;" offset="0.13009103" id="stop39199"/></linearGradient><linearGradient id="linearGradient38465"><stop style="stop-color:#6e5959;stop-opacity:1;" offset="0" id="stop38461"/><stop style="stop-color:#ab8f73;stop-opacity:1;" offset="0.30566341" id="stop38463"/></linearGradient><linearGradient id="linearGradient38389"><stop style="stop-color:#614f4f;stop-opacity:1;" offset="0" id="stop38385"/><stop style="stop-color:#ab8f73;stop-opacity:1;" offset="1" id="stop38387"/></linearGradient><linearGradient id="linearGradient34306"><stop style="stop-color:#544444;stop-opacity:1;" offset="0" id="stop34302"/><stop style="stop-color:#ab8f73;stop-opacity:1;" offset="1" id="stop34304"/></linearGradient><linearGradient id="linearGradient32676"><stop style="stop-color:#876c6c;stop-opacity:1;" offset="0" id="stop32672"/><stop style="stop-color:#ab8f73;stop-opacity:1;" offset="0.79962903" id="stop32674"/></linearGradient><linearGradient id="linearGradient32666"><stop style="stop-color:#2e1f1f;stop-opacity:1;" offset="0" id="stop32662"/><stop style="stop-color:#544638;stop-opacity:1;" offset="0.13416143" id="stop32664"/></linearGradient><linearGradient id="linearGradient31884"><stop style="stop-color:#2b1d1d;stop-opacity:1;" offset="0" id="stop31880"/><stop style="stop-color:#312921;stop-opacity:1;" offset="1" id="stop31882"/></linearGradient><linearGradient id="linearGradient31042"><stop style="stop-color:#281b1b;stop-opacity:1;" offset="0" id="stop31038"/><stop style="stop-color:#2e271f;stop-opacity:1;" offset="1" id="stop31040"/></linearGradient><linearGradient id="linearGradient30243"><stop style="stop-color:#251919;stop-opacity:1;" offset="0" id="stop30239"/><stop style="stop-color:#2b241d;stop-opacity:1;" offset="1" id="stop30241"/></linearGradient><linearGradient id="linearGradient30235"><stop style="stop-color:#221616;stop-opacity:1;" offset="0" id="stop30231"/><stop style="stop-color:#28211a;stop-opacity:1;" offset="1" id="stop30233"/></linearGradient><linearGradient id="linearGradient30227"><stop style="stop-color:#1f1515;stop-opacity:1;" offset="0" id="stop30223"/><stop style="stop-color:#251f18;stop-opacity:1;" offset="1" id="stop30225"/></linearGradient><linearGradient id="linearGradient21766"><stop style="stop-color:#ffcb99;stop-opacity:1;" offset="0" id="stop21762"/><stop style="stop-color:#ffa17e;stop-opacity:1;" offset="1" id="stop21764"/></linearGradient><linearGradient id="linearGradient10393"><stop style="stop-color:#fff8ae;stop-opacity:1;" offset="0" id="stop10389"/><stop style="stop-color:#f4b789;stop-opacity:1;" offset="0.81670135" id="stop10391"/></linearGradient><linearGradient xlink:href="#linearGradient10393" id="linearGradient10395" x1="242.85837" y1="236.23471" x2="242.85837" y2="264.00922" gradientUnits="userSpaceOnUse" gradientTransform="translate(-6.3499997,-186.26673)"/><radialGradient xlink:href="#linearGradient21766" id="radialGradient21768" cx="241.03566" cy="229.52916" fx="241.03566" fy="229.52916" r="169.83333" gradientTransform="matrix(1.5041764e-8,-1.4112274,1.4300388,0,-91.448922,409.07632)" gradientUnits="userSpaceOnUse" spreadMethod="pad"/><linearGradient xlink:href="#linearGradient30227" id="linearGradient30229" x1="167.30298" y1="123.12649" x2="167.30298" y2="190.5" gradientUnits="userSpaceOnUse"/><linearGradient xlink:href="#linearGradient30235" id="linearGradient30237" x1="182.38368" y1="144.48109" x2="182.38368" y2="190.5" gradientUnits="userSpaceOnUse"/><linearGradient xlink:href="#linearGradient30243" id="linearGradient30245" x1="177.44373" y1="122.38603" x2="177.44373" y2="190.5" gradientUnits="userSpaceOnUse"/><linearGradient xlink:href="#linearGradient31042" id="linearGradient31044" x1="194.70262" y1="110.44816" x2="194.70262" y2="190.5" gradientUnits="userSpaceOnUse"/><linearGradient xlink:href="#linearGradient31884" id="linearGradient31886" x1="168.25554" y1="53.924774" x2="168.25554" y2="190.5" gradientUnits="userSpaceOnUse"/><linearGradient xlink:href="#linearGradient32666" id="linearGradient32668" x1="192.85338" y1="105.65914" x2="192.85338" y2="190.5" gradientUnits="userSpaceOnUse"/><linearGradient xlink:href="#linearGradient32676" id="linearGradient32678" x1="273.63327" y1="96.469208" x2="273.63327" y2="114.90104" gradientUnits="userSpaceOnUse"/><linearGradient xlink:href="#linearGradient34306" id="linearGradient34308" x1="171.28612" y1="58.193291" x2="171.28612" y2="110.44816" gradientUnits="userSpaceOnUse"/><linearGradient xlink:href="#linearGradient38389" id="linearGradient38391" x1="177.61343" y1="57.101109" x2="177.61343" y2="110.44816" gradientUnits="userSpaceOnUse"/><linearGradient xlink:href="#linearGradient38465" id="linearGradient38467" x1="162.92622" y1="63.526649" x2="162.92622" y2="190.5" gradientUnits="userSpaceOnUse"/><linearGradient xlink:href="#linearGradient39201" id="linearGradient39203" x1="171.28047" y1="70.128067" x2="171.28047" y2="190.5" gradientUnits="userSpaceOnUse"/><linearGradient xlink:href="#linearGradient39211" id="linearGradient39213" x1="139.89001" y1="60.073975" x2="139.89001" y2="190.5" gradientUnits="userSpaceOnUse"/><linearGradient xlink:href="#linearGradient39221" id="linearGradient39223" x1="187.54556" y1="63.825764" x2="187.54556" y2="190.5" gradientUnits="userSpaceOnUse"/><linearGradient xlink:href="#linearGradient39957" id="linearGradient39959" x1="121.72514" y1="56.002712" x2="121.72514" y2="190.5" gradientUnits="userSpaceOnUse"/><linearGradient xlink:href="#linearGradient40785" id="linearGradient40787" x1="123.92236" y1="64.100479" x2="123.92236" y2="190.5" gradientUnits="userSpaceOnUse"/><linearGradient xlink:href="#linearGradient41521" id="linearGradient41523" x1="159.25458" y1="66.898849" x2="159.25458" y2="190.5" gradientUnits="userSpaceOnUse"/></defs><g id="layer2" style="display:inline" transform="matrix(1.5014065,0,0,1.5014065,0.02636918,0.01463687)"><rect style="opacity:1;mix-blend-mode:normal;fill:url(#radialGradient21768);fill-opacity:1;fill-rule:nonzero;stroke:none;stroke-width:2;stroke-linecap:round;stroke-linejoin:round;stroke-dasharray:none;stroke-opacity:1;paint-order:fill markers stroke" id="rect322" width="338.66666" height="190.5" x="-0.029166667" y="-0.029191611"/><circle style="fill:url(#linearGradient10395);fill-opacity:1;stroke:none;stroke-width:1;stroke-linecap:round;stroke-linejoin:round;paint-order:fill markers stroke" id="path5886" cx="236.50838" cy="70.159393" r="20.191439"/><path id="path41515" style="display:inline;opacity:1;fill:url(#linearGradient41523);fill-opacity:1;fill-rule:nonzero;stroke:none;stroke-width:2;stroke-linecap:round;stroke-linejoin:round;stroke-dasharray:none;stroke-opacity:1;paint-order:fill markers stroke" d="M 89.262776 66.898792 L -0.029265337 97.745847 L -0.029265337 190.47081 L 338.63748 190.47081 L 338.63748 136.90811 L 144.61352 69.221364 L 140.44955 67.782319 L 137.3147 67.644989 L 135.19451 67.173797 L 133.59989 68.054571 L 132.36873 67.933073 L 130.61304 68.820042 L 128.66046 68.254543 L 126.01436 68.711623 L 123.58681 69.962398 L 121.49828 69.905608 L 117.4534 71.650291 L 114.49408 70.442539 L 109.93292 70.46973 L 105.98785 69.996129 L 104.55121 69.137038 L 98.959896 69.696342 L 97.039333 68.872359 L 95.430604 69.089541 L 92.580737 68.119622 L 91.063562 68.026003 L 89.262776 66.898792 z "/><path id="path40687" style="display:inline;opacity:1;fill:url(#linearGradient40787);fill-opacity:1;fill-rule:nonzero;stroke:none;stroke-width:2;stroke-linecap:round;stroke-linejoin:round;stroke-dasharray:none;stroke-opacity:1;paint-order:fill markers stroke" d="M 20.908651 64.100553 L -0.029265337 73.869951 L -0.029265337 190.47081 L 338.63748 190.47081 L 338.63748 115.82908 L 51.154068 67.538291 L 41.596688 64.377623 L 37.638196 65.84145 L 34.791082 66.288892 L 31.589112 66.181506 L 30.043369 65.397793 L 26.26764 64.469865 L 22.721139 64.506349 L 20.908651 64.100553 z "/><path id="path39951" style="display:inline;opacity:1;fill:url(#linearGradient39959);fill-opacity:1;fill-rule:nonzero;stroke:none;stroke-width:2;stroke-linecap:round;stroke-linejoin:round;stroke-dasharray:none;stroke-opacity:1;paint-order:fill markers stroke" d="M 61.302072 56.002869 L 58.897239 57.080174 L 56.583959 58.716094 L 54.586643 60.159614 L 53.82599 59.988209 L 52.733197 60.608777 L 51.580515 62.026483 L 49.562548 63.527826 L 48.389559 63.177099 L 47.497083 64.155623 L 45.96201 64.913866 L 43.155166 65.229485 L -0.029265337 100.6852 L -0.029265337 190.47081 L 338.63748 190.47081 L 338.63748 136.78524 L 113.93925 72.470144 L 110.73625 70.759879 L 108.55169 71.35429 L 106.02399 71.300253 L 103.86903 72.302525 L 101.49655 72.35725 L 100.30601 71.861621 L 99.123728 72.156589 L 98.213699 71.263425 L 97.161175 71.469248 L 93.863521 70.407088 L 92.733212 70.624614 L 89.926713 68.743289 L 88.119388 67.582002 L 84.61591 66.879173 L 83.349991 65.728901 L 76.585687 62.023729 L 74.84479 62.018911 L 73.956788 61.225216 L 72.759018 61.010788 L 70.985768 59.871185 L 66.8156 56.760769 L 65.532472 57.283933 L 63.189592 56.181502 L 61.302072 56.002869 z "/><path id="path39215" style="display:inline;opacity:1;fill:url(#linearGradient39223);fill-opacity:1;fill-rule:nonzero;stroke:none;stroke-width:2;stroke-linecap:round;stroke-linejoin:round;stroke-dasharray:none;stroke-opacity:1;paint-order:fill markers stroke" d="M 213.1363 63.825892 L 211.58505 64.857075 L 209.2081 65.048099 L 207.18841 65.676584 L 205.75797 64.356284 L 204.19329 64.796843 L 203.79541 65.674175 L 201.43636 66.765591 L 197.96558 68.022217 L 118.00685 70.450799 L 113.28736 71.736337 L 108.29459 72.142133 L 107.17736 72.535195 L 105.55417 72.352087 L 102.52429 73.917793 L 99.669609 74.33185 L 95.248185 74.564176 L 92.441341 75.654216 L 87.47094 75.87243 L -0.029265337 102.78405 L -0.029265337 190.47081 L 338.63748 190.47081 L 338.63748 96.71604 L 248.6106 67.634663 L 245.61824 66.956959 L 242.44863 65.663505 L 241.80672 65.800147 L 239.96566 64.98649 L 236.5651 65.16409 L 234.85449 64.267139 L 233.31873 65.372667 L 231.4935 64.560042 L 228.74242 64.27953 L 223.46053 64.581726 L 221.97639 64.020357 L 220.10643 64.759326 L 213.56068 64.520461 L 213.1363 63.825892 z "/><path id="path39205" style="display:inline;opacity:1;fill:url(#linearGradient39213);fill-opacity:1;fill-rule:nonzero;stroke:none;stroke-width:2;stroke-linecap:round;stroke-linejoin:round;stroke-dasharray:none;stroke-opacity:1;paint-order:fill markers stroke" d="M 165.50738 60.073911 L 164.69269 61.118174 L 163.29874 60.760908 L 160.57071 61.363923 L 159.43971 62.637759 L 156.11108 63.764626 L 153.79299 65.74198 L 148.54655 67.753063 L 143.17241 67.739984 L 138.88729 70.137934 L 137.13056 69.738677 L 136.08079 70.511376 L 132.7439 70.393664 L 129.75291 71.837872 L 126.67864 72.450869 L 123.7589 74.821628 L 119.82244 75.886198 L 118.28392 77.806416 L -0.029265337 120.37131 L -0.029265337 190.47081 L 338.63748 190.47081 L 338.63748 121.89778 L 208.10394 76.338803 L 202.8131 70.847991 L 199.903 69.845375 L 196.23707 68.102757 L 193.54278 68.880619 L 189.44867 67.449835 L 186.51345 66.043487 L 182.93632 65.757468 L 178.44296 63.411835 L 174.03427 60.456647 L 169.50718 61.062416 L 165.50738 60.073911 z "/><path id="path39195" style="display:inline;opacity:1;fill:url(#linearGradient39203);fill-opacity:1;fill-rule:nonzero;stroke:none;stroke-width:2;stroke-linecap:round;stroke-linejoin:round;stroke-dasharray:none;stroke-opacity:1;paint-order:fill markers stroke" d="M 194.02739 70.127952 L 188.88972 70.450799 L 185.12603 71.863686 L 179.64796 74.708735 L 163.58957 76.032821 L 156.96708 74.487767 L 152.58627 75.421201 L 149.25247 75.371638 L 139.21977 79.157005 L -0.029265337 109.28574 L -0.029265337 190.47081 L 338.63748 190.47081 L 338.63748 111.61967 L 223.61266 76.585929 L 222.38563 76.691251 L 221.07944 77.053679 L 219.75845 76.944916 L 216.71928 76.054505 L 214.18538 75.761946 L 210.59895 74.316017 L 205.92318 73.316155 L 205.10952 72.605065 L 203.71556 72.112533 L 201.8129 72.149017 L 198.73139 70.7616 L 197.85062 70.891359 L 196.73855 70.323795 L 195.76622 70.483841 L 194.02739 70.127952 z "/><path id="path38459" style="display:inline;opacity:1;fill:url(#linearGradient38467);fill-opacity:1;fill-rule:nonzero;stroke:none;stroke-width:2;stroke-linecap:round;stroke-linejoin:round;stroke-dasharray:none;stroke-opacity:1;paint-order:fill markers stroke" d="M 14.880563 63.526793 L -0.029265337 64.705977 L -0.029265337 190.47081 L 338.63748 190.47081 L 338.63748 104.13774 L 196.43291 77.303215 L 190.99579 77.005493 L 190.01865 76.14124 L 188.58649 76.305417 L 186.74474 75.433592 L 185.57795 75.820458 L 182.08273 75.453899 L 177.44241 75.757472 L 176.5014 76.475101 L 174.77978 75.593639 L 170.7521 75.822867 L 169.40668 75.539602 L 168.59956 74.629916 L 166.92199 73.928119 L 165.30982 73.365373 L 163.74205 74.470213 L 162.69331 74.449906 L 160.51082 75.550616 L 159.90024 76.411771 L 158.36103 77.146266 L 153.53932 78.212212 L 150.12843 79.526662 L 146.16753 80.002672 L 142.70638 79.85123 L 138.2884 78.344724 L 136.94504 78.335431 L 134.04699 77.86596 L 130.42201 78.897144 L 126.80151 80.260468 L 125.19726 80.391947 L 122.8826 79.395526 L 121.55266 79.564522 L 119.22906 78.352296 L 113.01201 78.280361 L 108.94992 77.742397 L 98.239857 78.69786 L 94.610407 80.122105 L 92.884998 80.091128 L 91.444921 79.66055 L 83.925471 78.842074 L 68.364097 73.114805 L 63.205769 72.089473 L 56.996639 72.050924 L 53.261179 70.722363 L 48.684527 70.266315 L 47.291603 69.679821 L 45.075384 69.724909 L 38.266337 68.15232 L 33.986374 68.298943 L 30.53177 67.475649 L 25.811592 65.766761 L 24.313691 66.024213 L 14.880563 63.526793 z "/><path id="path38383" style="display:inline;opacity:1;fill:url(#linearGradient38391);fill-opacity:1;fill-rule:nonzero;stroke:none;stroke-width:2;stroke-linecap:round;stroke-linejoin:round;stroke-dasharray:none;stroke-opacity:1;paint-order:fill markers stroke" d="M 331.92171 57.10117 L 331.15348 57.807785 L 329.25942 57.413003 L 328.27574 58.095181 L 327.31718 57.625366 L 325.80069 59.129463 L 324.90615 58.213581 L 323.53766 58.970792 L 322.3516 58.505796 L 321.03818 59.235472 L 318.91282 59.102616 L 316.96266 60.542005 L 284.08594 69.109503 L 279.94227 66.955927 L 277.97456 65.043625 L 275.29231 63.983529 L 272.26863 64.823689 L 268.4602 64.537326 L 267.09688 65.251858 L 263.73486 66.126781 L 263.05234 65.652147 L 261.23021 65.589849 L 260.5649 66.061385 L 257.09102 63.104476 L 255.86124 64.029306 L 255.26373 63.499947 L 252.99967 64.460916 L 250.7721 64.37487 L 245.81374 69.427876 L 236.2715 75.065312 L 214.80044 79.248214 L 202.52089 74.920409 L 198.74103 75.667983 L 195.62752 76.963847 L 187.09753 81.475792 L 170.71355 81.244842 L 167.57491 82.163477 L 165.4382 80.719269 L 143.0757 81.237958 C 143.0757 81.237958 137.77516 82.942105 137.43379 82.813302 C 137.11784 82.694089 18.875141 86.244617 -0.029265337 86.812752 L -0.029265337 190.47081 L 338.63748 190.47081 L 338.63748 58.436614 L 336.08499 57.680092 L 334.98566 58.664122 L 333.68911 58.461396 L 331.92171 57.10117 z "/><path id="path34300" style="display:inline;opacity:1;fill:url(#linearGradient34308);fill-opacity:1;fill-rule:nonzero;stroke:none;stroke-width:2;stroke-linecap:round;stroke-linejoin:round;stroke-dasharray:none;stroke-opacity:1;paint-order:fill markers stroke" d="M 311.94476 58.193274 L 310.90807 59.480877 L 310.10853 58.392559 L 307.7622 59.2279 L 306.24675 59.279528 L 302.6383 60.937476 L 298.63712 61.45651 L 296.11664 62.870773 L 294.80391 62.137999 L 292.98179 62.606438 L 291.55445 64.093325 L 290.58178 63.793882 L 287.59492 64.934517 L 285.75146 66.5016 L 284.1472 66.326409 L 282.61867 68.678926 L 278.88459 70.74267 L 277.17295 72.776126 L 272.17776 76.514339 L 268.77548 80.844553 L 266.14382 81.826518 L 264.27627 84.094709 L 261.49696 85.392638 L 260.62616 87.203404 L 258.00656 88.975622 L 256.18684 92.371714 L 253.08331 95.067385 L 251.79364 98.918835 L 245.58795 104.55386 L 218.01102 118.20362 L -0.029265337 125.57542 L -0.029265337 190.47081 L 338.63748 190.47081 L 338.63748 71.195964 L 335.12643 71.125406 L 332.00156 68.969419 L 330.97313 68.506832 L 329.93988 67.273955 L 328.44164 67.232309 L 325.04761 63.463807 L 323.48603 63.081416 L 321.90071 61.497124 L 319.68415 60.898927 L 318.09676 59.909046 L 316.8773 59.938302 L 315.74665 59.172142 L 314.02055 58.947388 L 311.94476 58.193274 z "/><path id="path32670" style="display:inline;opacity:1;fill:url(#linearGradient32678);fill-opacity:1;fill-rule:nonzero;stroke:none;stroke-width:2;stroke-linecap:round;stroke-linejoin:round;stroke-dasharray:none;stroke-opacity:1;paint-order:fill markers stroke" d="M 338.63748 101.24141 L 329.31312 108.19777 L 315.96314 115.4756 L 276.00271 107.81916 L 269.22808 101.65684 L 263.03237 103.49308 L 258.66051 109.32326 L 243.56654 118.93743 L -0.029265337 185.62569 L -0.029265337 190.47081 L 338.63748 190.47081 L 338.63748 101.24141 z "/><path id="path32660" style="display:inline;opacity:1;fill:url(#linearGradient32668);fill-opacity:1;fill-rule:nonzero;stroke:none;stroke-width:2;stroke-linecap:round;stroke-linejoin:round;stroke-dasharray:none;stroke-opacity:1;paint-order:fill markers stroke" d="M 147.47062 105.65905 L 144.95117 106.97797 L 141.15651 107.02168 L -0.029265337 120.04846 L -0.029265337 190.47081 L 338.63748 190.47081 L 338.63748 113.68342 L 335.44412 111.80932 L 332.08348 111.72327 L 328.83126 110.56027 L 325.10027 110.92579 L 323.85018 113.23666 L 309.7399 111.04419 L 302.73157 112.44503 L 297.10446 111.58663 L 234.11827 120.48111 L 218.80265 112.06746 L 214.59875 111.60074 L 206.59124 109.21209 L 201.23157 111.12198 L 185.79031 110.74131 L 178.4495 107.31493 L 169.62214 107.41027 L 155.96515 105.75748 L 147.47062 105.65905 z "/><path id="path31878" style="display:inline;opacity:1;fill:url(#linearGradient31886);fill-opacity:1;fill-rule:nonzero;stroke:none;stroke-width:2;stroke-linecap:round;stroke-linejoin:round;stroke-dasharray:none;stroke-opacity:1;paint-order:fill markers stroke" d="M 2.683271 53.924669 L -0.029265337 54.969276 L -0.029265337 190.47081 L 338.63748 190.47081 L 338.63748 146.55085 L 172.08376 112.89557 L 146.82596 110.88415 L 132.68229 106.20974 L 122.91427 101.20837 L 121.68552 98.589793 L 115.66672 95.598809 L 111.83076 94.705989 L 95.302222 84.251658 L 85.315642 79.707016 L 80.394114 73.854119 L 77.822006 73.922268 L 73.321764 71.729798 L 70.616111 73.256955 L 68.424674 72.337976 L 56.834871 75.236029 L 33.876922 73.14888 L 25.026158 70.245664 L 21.619053 70.665916 L 13.641491 65.752649 L 8.1768367 59.063723 L 6.4559027 58.753955 L 4.5690705 55.442189 L 2.683271 53.924669 z "/><path id="path31036" style="display:inline;opacity:1;fill:url(#linearGradient31044);fill-opacity:1;fill-rule:nonzero;stroke:none;stroke-width:2;stroke-linecap:round;stroke-linejoin:round;stroke-dasharray:none;stroke-opacity:1;paint-order:fill markers stroke" d="M 239.45558 110.44806 L 213.08605 116.44173 L 184.66517 114.57727 L 149.11824 123.9925 L 18.914089 114.44958 L -0.029265337 117.1215 L -0.029265337 190.47081 L 338.63748 190.47081 L 338.63748 121.95698 L 319.24875 115.21883 L 309.14962 115.18786 L 294.72338 112.80195 L 283.20379 112.97095 L 269.93332 111.18944 L 258.32837 111.84649 L 239.45558 110.44806 z "/><path id="path29156" style="display:inline;opacity:1;fill:url(#linearGradient30245);fill-opacity:1;fill-rule:nonzero;stroke:none;stroke-width:2;stroke-linecap:round;stroke-linejoin:round;stroke-dasharray:none;stroke-opacity:1;paint-order:fill markers stroke" d="M 229.53267 122.38893 C 228.94913 122.38067 228.50931 122.38931 228.23268 122.41716 C 223.80657 122.86276 221.16406 124.2838 217.79108 125.01749 C 214.60457 125.71062 100.87615 126.84124 -0.029265337 136.23557 L -0.029265337 190.47081 L 338.63748 190.47081 L 338.63748 129.14257 C 326.31372 128.18576 313.89876 127.83436 312.11066 127.31184 C 309.47204 126.54077 307.14872 123.29539 306.16174 122.97508 C 305.17475 122.65477 296.99187 125.03561 287.91261 125.75095 C 279.4008 126.42158 238.28579 122.51295 229.53267 122.38893 z "/><path id="path28776" style="display:inline;opacity:1;fill:url(#linearGradient30237);fill-opacity:1;fill-rule:nonzero;stroke:none;stroke-width:2;stroke-linecap:round;stroke-linejoin:round;stroke-dasharray:none;stroke-opacity:1;paint-order:fill markers stroke" d="M 331.39166 144.48573 C 225.59728 144.69779 94.412473 152.19263 -0.029265337 148.49757 L -0.029265337 190.47081 L 338.63748 190.47081 L 338.63748 144.48951 C 336.22844 144.48644 333.82841 144.48084 331.39166 144.48573 z "/><path id="path27259" style="display:inline;opacity:1;fill:url(#linearGradient30229);fill-opacity:1;fill-rule:nonzero;stroke:none;stroke-width:2;stroke-linecap:round;stroke-linejoin:round;stroke-dasharray:none;stroke-opacity:1;paint-order:fill markers stroke" d="M 10.81021 123.1279 C 7.1566063 123.10977 3.5431561 123.26502 -0.029265337 123.59049 L -0.029265337 190.47081 L 338.63748 190.47081 L 338.63748 155.57061 C 299.28632 158.70929 250.03798 173.36226 195.31981 170.45979 C 141.13972 167.58585 70.886638 123.42609 10.81021 123.1279 z "/></g></svg>