<?xml version='1.0' encoding='utf-8'?>
<svg xmlns="http://www.w3.org/2000/svg" enable-background="new 479.9531 -0.0469 1600.0938 1600.0938" version="1.1" viewBox="479.9531 -0.0469 1600.0938 1600.0938">
<g stroke-width=".5">
	<path d="m1414 118.15c4.3667-1.4583 9.4501-1.3333 13.492 1.0333-4.125 2.05-9.725 0.7167-12.758 4.7333 3.8417-0.0333 7.6749-0.25 11.525-0.4-1.7333 2.5083-4.0416 4.5-6.5667 6.1583-3.225 2.1333-5.6166 5.2167-7.7 8.425-8.4166 0.5417-16.883 0.4083-25.275-0.4917-0.2667 0.9583-0.5333 1.9083-0.775 2.875-3.9916 0.325-8.0665 0.025-11.975 0.9333-2.4083 2.225-1.1832 5.8583-0.9916 8.6917-2.925 0.4167-5.8834 0.55-8.8 0.8917-3.4666 0.3667-6.075 3.3667-9.625 3.3667-6.875 0.225-13.808-0.9417-20.633 0.2667-0.1-1.8-0.1833-3.5917-0.2667-5.3833-4.3749 1.6333-8.7999 3.6417-13.592 3.3417-6.975-0.3417-13.925 0.4583-20.892 0.7-2.5583 0.075-4.9916 0.8583-7.3999 1.6167-3.6584 1.1917-7.6833 0.6667-11.208 2.3083-4.7167 2.175-9.825 3.3167-14.933 4.0917-5.2084 0.8417-10.617-1.7583-15.658 0.4-5.225 2.35-11.058 1.7917-16.625 1.6917-3.9083-0.025-7.625-1.5167-11.517-1.6167-4.1 0.3083-6.7499 3.9583-10.367 5.4583-2.9751 0.4333-5.9501-0.425-8.925-0.5-4.225-0.275-8.2666 1.2917-12.45 1.5667-8.6417 0.6833-17.6-1.325-26 1.5083-7.0916 2.1083-13.792 6.4917-21.458 5.8167-5.1667-0.45-10.358-1.0167-15.517-0.2083 1.875 0.7417 3.7667 1.4417 5.6667 2.1583-5.7917-0.05-11.608-0.3167-17.367 0.35-2.4417 0.175-4.9667 0.6667-7.3501-0.025-1.1083-1.6083-1.7583-3.475-2.875-5.0583-3.7333-0.775-7.5499 0.0667-11.292 0.3167-0.4-1.5083-0.7916-3.0083-1.1749-4.5083-5.3251-0.4917-10.675-0.4083-16.008-0.325-15.025-0.025-30.058 0.0583-45.083-0.075-3.4584-0.3-5.725 3.0333-9.0334 3.2583-3.2917 0.3-6.6083 0.375-9.825 1.1333-3.4833 0.6667-7.3917 1.5-10.675-0.2333-1.0416-1.1917-1.525-2.725-2.2083-4.1167 5.8917-2.6417 12.433-2.4417 18.725-2.9833 6.9332-0.3417 14.15-1.4667 20.8 1.15 0.3916-2.0667 0.7999-4.1167 1.1917-6.175 4.6166-0.15 9.375-0.0083 13.733-1.8 3.4-1.425 7.05-0.1167 10.567-0.3917 2.775-0.75 4.9584-2.875 7.75-3.6333 2.3167-0.825 4.9667-0.875 7.075-2.2417 0.875-2.825 0.8667-5.825 1.1833-8.7417 4.0083-0.1333 8.025-0.25 12.042-0.3 0.3-1.5333 0.6167-3.0667 0.9333-4.5917 0.3417 1.225 0.6918 2.4583 1.0417 3.6917 0.9916-0.0417 1.9916-0.0833 2.9999-0.125-0.2999-1.0083-0.5917-2.0167-0.8833-3.025 2.4417 1.1917 4.9834 2.5583 7.8 2.3 4.5083-0.2667 9.0083-0.85 13.533-0.6333 8.35 0.3583 16.667-0.525 24.992-0.9917 3.7584-0.1583 7.25-1.675 10.508-3.4417 4.9083-2.7667 10.725-1.8833 16.108-2.45 6.275-0.675 12.925 0.25 18.792-2.55 4.5834-2.0417 9.4584-3.4 14.433-4.0833 2.7667-0.4 5.2916 1.075 7.7916 2.0167 2.2501-1.825 5.1334-2.2167 7.9418-2.2083 7.0917-0.0833 13.975-2.4 21.1-2.125 5.2916 0.1833 10.575-0.175 15.842-0.65 6.675-0.5917 13.808 1.1 20.025-2.15 3.4584 1.5333 6.7917 3.9 10.742 3.7583 6.575-0.0333 13.158 0.05 19.708-0.5 5.9584-0.5083 11.883 0.675 17.842 0.3667 2.7667 0.0333 5.7917-0.4917 8.3083 0.975 2.3167 1.3333 4.7167 2.9083 7.5333 2.6583 4.3 0.3333 7.4083-3.4833 11.592-3.65 5.3251-0.325 10.65 0.3417 15.983 0.1167 4.2001 0.0667 7.275-3.7833 11.525-3.4917 7.175 0.1417 14.458-0.5167 21.533 1.0333 3.9501 0.85 8.0083 0.9083 12.025 0.6667 0.3335-1.9251-0.3498-4.5918 1.3002-5.9501z" fill="#EEA392" stroke="#EEA392"/>
	<path d="m824.26 188.55c4.6417-0.3 9.3-0.8083 13.958-0.775 1.9916-0.0667 3.125 1.9333 4.0167 3.4167 1.375 2.3167-0.3 4.9583-1.8083 6.7417-2.5667 2.9083-6.8167 2.45-10.25 3.3417-4.425 0.7333-8.075 3.9833-12.583 4.3083-3.15-0.9667-4.05-4.7583-5.6084-7.3-6.0333 1.075-11.633 3.675-17.45 5.5083-6.5667 2.3417-13.225 4.375-19.783 6.7333-5.7584 2.075-11.925 2.475-17.783 4.1417-3.9417 1.05-7.8334 2.7417-11.992 2.5333-7.425-0.3917-14.867-0.5583-22.25-1.4583-2.4667-0.15-5.15-0.6416-7.4667 0.475-4.35 3.2667-5.8167 8.7667-8.575 13.2-3.8417 4.6083-9.825 6.475-15.15 8.7667-5.825 2.25-10.95 5.9583-16.833 8.0583-5.9417 2.2083-12.225 3.9917-17.283 7.9833-4.625 3.6417-9.4833 7.5167-15.5 8.3917-5.55 0.825-10.983 2.175-16.358 3.775-7.725 1.85-15.608 5.3083-23.683 3.2917-1.825-0.3333-4.175-2.3083-3.1166-4.2917 0.9583-2.3667 2.5333-4.4084 4.0167-6.4583-4.7584 1.65-9.725 0.6167-14.583 0.3417-5.1917-0.2917-9.6334 2.7083-14.292 4.4666-2.675 1.0667-5.5667 0.3167-8.2917-0.0417-1.6417-4.125 0.0333-8.8333 3.2584-11.65 2.3583-0.8417 4.925-0.6167 7.3833-0.7583 1.9833-2.3 3.5334-6.125 7.075-6.025 5.8834 0.1333 11.642 1.8333 17.55 1.575 5.975-0.0166 11.283-3.1917 16.042-6.4833 2.7416-1.9917 5.25-4.2667 7.8-6.4917 4.0167-3.4917 6.9917-8.0167 11.192-11.308 4.45-3.4917 8.8333-7.55 14.608-8.625 1.325 2 2.4083 4.3083 4.375 5.775 2.525 1.5 5.5667 1.7083 8.4333 1.8333 8.5834 0.0083 17.325-0.775 25.45-3.6417 4.475-4.625 7.15-11.125 12.95-14.458 4.6917-2.475 9.9167-3.7083 14.992-5.1333 4.6583-1.1 9.8583-2.325 14.417-0.2083 1.4083 2.7417-1.6083 5.0583-2.7667 7.3083 6.4916-0.2583 13.075-0.275 19.425-1.8083 8.075-2 15.675-5.4333 23.475-8.2417 3.8334-1.4833 7.9333-0.3167 11.9-0.5333 8.6-0.55 17.125-1.9667 25.525-3.8833 1.3833 0.7 2.8167 2.2 4.475 1.35 3.6749-1.3001 7.1082-3.4835 11.092-3.7418z" fill="#F3ACA6" stroke="#F3ACA6"/>
	<path d="m1382.1 189.36c5.4834-2.7917 11.692 0.0667 17.425-1.575 0.525 4.2083 0.6085 8.4583 0.3085 12.692-3.3 1.8667-6.2417 4.6167-9.9751 5.5417-5.3167 0.0167-11.283-1.2-14.442-5.9167-0.8667 1.55-1.725 3.1-2.575 4.6583-11.15 0.8583-22.383-0.6-33.492 0.9667-2.2916 0.2417-4.5917 0.0667-6.8833 0.1667-2.6833 0.025-3.85 2.9083-5.3334 4.6833 6.3083-0.7833 12.425-2.7333 18.792-3.1667 0 1.5583-0.1833 3.175 0.2999 4.6917 3.1584 1.8917 7.0583 1.8 10.583 2.5583-3.7 2.05-8.375 3.0667-10.575 7.025 1.4667 0.2583 2.9584 0.5 4.45 0.75 0.3667 0.9083 0.7333 1.8167 1.1167 2.725-6.2167 2.925-12.9 4.5917-19.533 6.2583-6.4 1.4917-12.425 4.4333-19.025 5.075-4.9667 0.475-9.4417 2.7417-14.058 4.4167-4.7166 1.875-10.417 0.1-14.508 3.6667-1.5083-0.225-3.0083-0.4583-4.5083-0.6917-1.4166 1.2333-2.7833 2.575-4.4417 3.475-1.6167 0.1083-2.3334-1.7667-3.4-2.65-6.625-0.8333-13.275 0.1083-19.758 1.4583-9.4751 2.225-19.325-0.1083-28.825 1.8167-1.1917 0.6917-2.025 1.825-2.95 2.8167-3.3501-1.975-6.9-3.6333-9.9918-6.0083 5.8417-1.6583 11.55-3.8833 17.6-4.7167 5.0167-0.575 8.7917-4.4167 13.675-5.4167 7.3417-1.6167 14.575-3.7 21.833-5.6667 2.8584-0.775 5.5918-1.9583 8.2167-3.3417-8.1166 0.9083-16.042 2.8833-23.925 4.9583-6.8667 1.3417-13.342 4.0833-20.125 5.75-7.325 1.85-14.308 4.7833-21.6 6.7417-9.1416 2.1833-17.867 6.2917-27.367 6.7167-4.2499 0.2583-7.6 3.2583-11.608 4.3333-7.4917 2.1-14.133 6.45-21.75 8.175-7.2916 1.675-14.025 5.0167-21.15 7.225-4.3917 1.4-8.6083 3.3833-13.142 4.3416-2.9916 0.6584-6.0499 1.05-8.95 2.0583-3.4 1.1667-6.5083 3.0167-9.8583 4.2917-4.1334-0.2667-8.2417-0.975-12.158-2.3167 5.5668-0.4667 11.2-0.475 16.692-1.6667-1.5084-1.9833-2.9751-3.9917-4.4-6.0333-6.775-0.5667-13.567-0.0916-20.35-0.125-2.3168 0.0583-4.525-0.675-6.5668-1.7166 4.9084-2.4667 10.508-3.2667 15.183-6.2667-1.4166-1.2417-2.7084-3.025-4.7583-3.0917-4.0668-0.2833-8.1417-0.3416-12.208-0.5417-4.0166-0.5083-5.9333 4.4333-9.775 4.5334-4.725 0.075-9.45-0.5083-14.075-1.45 4.0833-0.475 8.1833-0.1833 12.267 0.175-0.0083-2.4666 0.0583-5.325 2.2833-6.9166 2.75-2.625 6.7833-1.5667 10.108-2.5667 1.3083-1.3083 2.1334-3 3.1-4.55 3.8334-0.1917 7.7334 0.0833 11.492-0.8083 0.7666-1.6167 1.0166-3.4167 1.3251-5.1583-7.7917-0.5583-15.533 0.7417-23.317 0.7833-6.1001 0-12.35 1.0083-18.275-0.95 3.9-2.3 8.5083-1.175 12.742-2.0083 0.9917-1.2083 1.6167-2.6583 2.3501-4.025 4.1499-0.4333 8.6416 0.0667 12.35-2.2083 2.5416-1.6083 5.5583-1.9167 8.5-1.975 0.4333 0.5583 0.875 1.125 1.3251 1.7 1.0499-0.85 2.0667-1.8083 3.3167-2.3667 3.75-0.0417 7.4583 1.35 11.225 0.6083 5.1749-0.8833 10.408-0.275 15.617-0.575 6.7417-1.0083 12.892-4.1833 19.125-6.7917 4.525-2.0417 9.7084-0.2417 14.275-2.1333 5.3417-2.125 10.392-5.0083 15.983-6.4917 5.9-1.6833 12.083-0.8417 18.125-1.325 4.1749-0.3333 8.375-0.4 12.558-0.7417 3.4666-0.1833 6.0583-2.8 9.2583-3.8 2.875-0.6167 5.8417-0.175 8.7666-0.15 5.3917 0.225 10.708-1.1833 16.108-0.9583 4.2167 0.1167 8.5 1.225 12.675 0.075 4.1416-1.1333 8.3666-1.8667 12.633-2.3667 5.6666-0.6417 10.683-3.7 16.317-4.5167 5.0083-0.8 9.8833-2.7417 15.033-2.4083 5.1083 0.2333 10.192 0.8083 15.292 1.25 0.8334 1.3333 1.675 2.6667 2.5333 4 3.1-1.2 6.2583-2.3833 9.6-2.675 5.2917-0.6667 10.742-0.0417 15.917-1.5833 4.225-1.275 8.6333-0.05 12.942-0.5083 4.0833-0.4333 8.2083-0.625 12.308-0.1417 0.6667 1.4917 1.35 2.9833 2.0417 4.475 3.2167-2.35 6.7166-4.325 10.6-5.3333 5.3667-1.425 9.6499-5.45 15.167-6.4417 4.025-0.675 8.1167-0.1583 12.158 0.0917-1.3328-0.9666-2.6579-1.9249-3.9579-2.8916z" fill="#F1AF9E" stroke="#F1AF9E"/>
	<path d="m867.72 205.13c1.9667-2.15 5.175-2.7917 7.9833-2.525 3.1666 0.2833 5.5583 2.575 7.7833 4.6167-0.9083 1.4833-1.8167 2.975-2.7167 4.4667 1.1833 1.5083 2.375 3.0167 3.5667 4.525-2.5416 1.025-5.175 1.8667-7.6 3.1583-3.1667 1.6917-3.9083 6.3083-7.7 7.05-6.1 1.5583-11.917 4.0083-18.017 5.5833-1.8666 0.3-2.3333 2.2417-3.0667 3.675 5.5417 1.4667 11.275 0.675 16.825-0.325 5.7083-1.0167 11.492 0.2583 16.883 2.125 4.125-1.825 8.7166-2.4833 12.592-4.8833 1.9083-1.2083 4.2083-1.0167 6.3583-0.825 2.4833 0.625 5.3417 0.9 7.2917 2.75 0.6083 2.5833-2.075 3.3167-3.9583 4.0167-0.45 1.875-0.8083 3.7583-1.175 5.65 1.3083-0.6084 2.6167-1.2083 3.8917-1.875-3.6 7.1833-11.633 10.458-19.05 12.075-5.35 1.45-10.683-2.05-15.992-0.3167-4.4333 1.2167-8.6166 3.1667-12.992 4.55-6.0417 2.0167-12.6 2.1417-18.417 4.8833-11.225 5.3083-23.692 7.625-34.442 13.992-2.5833 1.725-1.8167 5.3083-2.15 7.9667-2.35 0.4167-5.6917 1.7416-7.1083-1.0333-1.2-3.0583 2.2333-5.3917 3.9-7.525-0.725-0.625-1.45-1.25-2.1667-1.8666-2.5 0.6333-5.025 1.325-7.1917 2.775-4.4833 2.9583-9.4583 5.1-14.467 6.975-7.7 1.0917-15.625-0.9667-23.25 1.125-4.4 1.375-8.8167-1.2416-13.225-0.0916-8.425 1.775-17.1 3.1917-25.717 2.175-4.5667-0.525-9.0333 0.8083-13.55 1.1333-3.45 0.25-6.8667 0.7833-10.233 1.5333-3.1583-2.75-7.4833-2.975-11.317-4.1583 4.8583-2.7833 10.492-0.5917 15.708-0.6333-0.525-0.8667-1.0417-1.725-1.5583-2.5833-3.6333-0.1083-7.725 0.2083-10.533-2.55 2.125-1.5833 4.1583-3.3 6.3583-4.7917 2.1833-1.5167 4.9917-1.5083 7.3333-2.6833 2.1167-1.3083 3.6167-3.35 5.1667-5.2417-3.1166-0.2333-5.6417 1.5917-7.7917 3.6167-1.1583-2.2833-2.5167-4.475-4.1666-6.425-0.6667 1.4583-1.4083 2.8917-2 4.3917-1.325-0.575-2.7083-1.0833-3.875-1.9417-0.6917-1.3583-0.9833-2.875-1.3417-4.3417 4.6334-2.4666 9.3333-4.8583 14.408-6.2917 7.0667-2.7417 13.617-6.6583 20.733-9.3083 5.2333-1.8583 9.7833-5.0917 14.3-8.2333 4.0917-2.8417 7.525-6.65 12.142-8.7083 5.0583-2.2833 9.8917-5.5833 15.55-6.0917 3.65-0.425 4.9166 3.9 7.3167 5.8167 1.3 1.8417 3.5083 0.5833 5.175 0.0583 5.05-2.1417 9.9417-4.8833 15.467-5.6167-3.775 4.3-9.5583 5.425-14.558 7.6667-0.0167 0.7583-0.025 1.5167-0.0333 2.275-4.3417 1-8.9667 1.5167-13.292 0.1417-2.7083-0.6084-5.55-2.1917-8.3167-1.0333-3.6167 1.4583-7.175 3.0917-10.942 4.15-5.775 1.6583-9.8917 6.45-15.475 8.5167-4.1917 2.0583-9.5667 2.7-12.467 6.6917 0.025 0.3167 0.075 0.9417 0.1 1.25 2.1083 0.5417 4.2917 0.75 6.4584 1-5.5583 2.975-11.067 6.2667-17.225 7.875-3.0167 0.8-6.0083 1.725-8.8333 3.05 2.8666 0.0333 5.7583-0.1334 8.575-0.75 5.0167-1.1167 10.2-1.4333 15.1-3.05 1.0833-0.1083 2.1667-0.2083 3.25-0.2833-7.5333 4.3-15.833 7.25-22.908 12.342 3.4583 0.125 6.925-0.0417 10.367-0.375-5.4083 2.0583-10.883 3.95-16.425 5.6584 1.0917-1.2583 2.175-2.5083 3.2417-3.7834-3.0833 1.1-5.975 2.7-8.3917 4.9417 5.8583 1.25 11.325-1.825 16.742-3.525 10.825-4.2667 21.792-8.1667 32.675-12.283 4.6083-1.75 9.3917-3.1333 13.767-5.4417 3.8083-1.9667 6.7667-5.5 11.067-6.4667 5.2417-1.225 10.608-1.8833 15.767-3.4417 6.35-1.9417 12.95-3.175 19.042-5.8833 5.8167-2.5583 11.733-5.0333 18-6.25 3.7083-0.7 7.3666-1.75 10.692-3.575-7.0917-0.7167-14.167 0.9333-20.775 3.3833-6.625 2.4667-12.742 6.2083-19.625 7.9667-6.3167 1.6333-12.667 3.1583-19.108 4.1667-3.925 0.6167-7.8833 1.6-11.233 3.825-5.2667 3.4083-10.067 7.775-16.2 9.6167-11.083 3.55-21.908 8.3-33.508 9.9333 9.7-6.1167 20.658-9.9333 30.367-16.05 2.5416-0.7 5.4083-0.9417 7.4083-2.8667 3.6917-3.275 7.3-7.3667 12.475-8.1 11.658-1.1667 23.35-2.9917 34.55-6.525 8.5834-3.2583 17.267-6.225 25.992-9.0833 4.1166-1.3333 8.6333-0.4833 12.667-2.175 4.65-1.9333 9.05-4.4417 13.383-6.9917-7.2416 0.0583-13.717 4.0333-20.925 4.2333-2.925 0.1333-5.7167-0.8583-8.5-1.6 2.55 0.0583 5.1166 0.0583 7.675-0.15 6.3666-0.475 12.233-3.2083 18.358-4.8 5.0583-1.3167 9.9666-3.125 14.683-5.375 4.8667-2.4333 10.433-2.0333 15.667-2.9333 0.1417-1.9088 0.0417-3.8921 0.7084-5.7088z" fill="#F5A79F" stroke="#F5A79F"/>
	<path d="m819.13 225.7c7.2084-0.2 13.683-4.175 20.925-4.2333-4.3334 2.55-8.7333 5.0583-13.383 6.9917-4.0333 1.6917-8.55 0.8417-12.667 2.175-8.725 2.8583-17.408 5.825-25.992 9.0833-11.2 3.5333-22.892 5.3583-34.55 6.525-5.175 0.7333-8.7833 4.825-12.475 8.1-2 1.925-4.8666 2.1667-7.4083 2.8667 0.8667-1.2833 1.675-2.6 2.4833-3.9167-2.6333 0.8333-5.1167 2.0833-7.2167 3.9-3.4333 2.9417-8 3.8-12.067 5.5417-4.9 1.6167-10.083 1.9333-15.1 3.05-2.8167 0.6167-5.7084 0.7834-8.575 0.75 2.825-1.325 5.8167-2.25 8.8333-3.05 6.1583-1.6083 11.667-4.9 17.225-7.875-2.1667-0.25-4.35-0.4583-6.4584-1-0.025-0.3083-0.075-0.9333-0.1-1.25 2.9-3.9917 8.275-4.6333 12.467-6.6917 5.5833-2.0667 9.7-6.8583 15.475-8.5167 3.7667-1.0583 7.325-2.6917 10.942-4.15 2.7667-1.1584 5.6084 0.425 8.3167 1.0333 4.325 1.375 8.95 0.8583 13.292-0.1417 7.1417-1.85 14.05-4.4833 21.083-6.7 5.3833-1.65 10.625-4.725 16.45-4.0917 2.7835 0.7418 5.5751 1.7334 8.5001 1.6001z" fill="#F4B5AE" stroke="#F4B5AE"/>
	<path d="m802.89 237.75c6.6083-2.45 13.683-4.1 20.775-3.3833-3.325 1.825-6.9833 2.875-10.692 3.575-6.2667 1.2167-12.183 3.6917-18 6.25-6.0917 2.7083-12.692 3.9417-19.042 5.8833-5.1584 1.5583-10.525 2.2167-15.767 3.4417-4.3 0.9667-7.2583 4.5-11.067 6.4667-4.375 2.3083-9.1583 3.6917-13.767 5.4417-10.883 4.1167-21.85 8.0167-32.675 12.283-5.4167 1.7-10.883 4.775-16.742 3.525 2.4166-2.2417 5.3083-3.8416 8.3917-4.9417-1.0667 1.275-2.15 2.525-3.2417 3.7833 5.5417-1.7083 11.017-3.6 16.425-5.6583-3.4417 0.3333-6.9084 0.5-10.367 0.375 7.075-5.0917 15.375-8.0417 22.908-12.342-1.0833 0.075-2.1667 0.175-3.25 0.2833 4.0667-1.7416 8.6334-2.6 12.067-5.5417 2.1-1.8167 4.5833-3.0667 7.2167-3.9-0.8083 1.3167-1.6167 2.6333-2.4834 3.9167-9.7083 6.1167-20.667 9.9333-30.367 16.05 11.6-1.6333 22.425-6.3834 33.508-9.9333 6.1334-1.8417 10.933-6.2083 16.2-9.6167 3.35-2.225 7.3083-3.2083 11.233-3.825 6.4417-1.0083 12.792-2.5333 19.108-4.1667 6.8834-1.7583 13-5.4999 19.625-7.9666z" fill="#F7BAB2" stroke="#F7BAB2"/>
	<path d="m829.98 270.66c9.2584-3.3417 18.55-7.0083 28.383-8.2417-2.7417 2-5.575 3.875-8.2917 5.9167 8.1833-0.5417 15.558-4.7417 23.708-5.4583-2.475 2.2833-5.5833 3.6667-8.75 4.7167-6.3333 2.0917-12.492 4.7917-19.083 6.0417-7.9583 2.1667-15.967 4.1583-24.042 5.8917-3.1583 0.675-6.4083 0.7-9.6166 0.4417 4.4166-5.3001 11.425-7.1501 17.692-9.3085z" fill="#F6C3BA" stroke="#F6C3BA"/>
	<path d="m970.91 294.25c2.9917-1.625 7.0417-4.0833 10.15-1.3667-2.8667 1.6917-5.6417 3.6166-7.6417 6.3333-2.0583 2.8417-5.325 4.2834-8.325 5.8917-3.425 1.7917-6.6666 4.4417-10.725 4.4833-4.3334 0.225-8.7333 0.4417-12.892 1.825-4.6166 1.3417-8.7083 4.1667-13.475 5.025-2.9833 0.5333-5.7917-1.1-8.75-1.05-2.7 0.3417-5.3083 1.1917-7.95 1.825-3.8333 0.8583-6.9833 3.3083-10.3 5.2667 5.1166 0.8583 9.8917-1.375 14.667-2.8 2.75-0.9333 5.3583 0.7417 7.775 1.8333-4.9584 0.35-10.058 0.375-14.742 2.275-5.7583 2.275-11.625 4.3584-17.658 5.7834-4.45 1.05-9.0667 0.5833-13.558 1.3-5.1667 0.7583-10.142 2.4667-15.333 3.1083-5.9833 0.7-11.258 3.775-16.967 5.4167 0.625-0.95 1.2583-1.8834 1.9-2.8167-0.4417-0.9167-0.8833-1.8333-1.3167-2.7333 2.0667-1.7167 5.475-4.5083 7.8167-1.7417 8.4333-2.3667 16.375-6.0833 24.6-9.0333 7.3917-3.1333 15.183-5.1667 22.575-8.3 5.7-2.4833 12.05-2.5417 17.9-4.5583 5.2833-1.8916 11.017-1.7333 16.325-3.525 5.975-1.875 12.292-2.025 18.358-3.475 6.4335-1.6834 12.042-5.4 17.567-8.9667z" fill="#F3BEB1" stroke="#F3BEB1"/>
	<path d="m1116.8 305.89c3.2666-0.9417 7.0083-2.5417 10.158-0.3833-7.1333 4.575-15.658 6.1833-23.158 10-2.8251 1.8667-5.0751 4.5083-8.125 6.0417-8.05 5.1167-17.958 5.0333-26.708 8.2833-3.8417 0.9-0.2 5.9083-2.75 7.95-1.9916 1.3333-4.5 1.525-6.5667 2.7167-2.1083 2.0583-3.475 4.95-6.2916 6.2166-5.7916 3.0167-12.05 5.1584-18.4 6.6167-4.9166 1.1333-9.9833-0.1083-14.908 0.85-4.4167 0.775-8.8167 2.175-13.35 1.725-3.4584-0.25-6.825-1.5333-10.308-1.2-4.5333 0.5-8.7833 2.2167-13.108 3.525-3.2917 1.0167-6.7584 1.025-10.125 1.6083-3.025 0.5083-5.7666 1.925-8.575 3.0667-3.7667 1.5583-7.8083 2.2083-11.7 3.3417-5 1.4417-10.108 2.6333-15.317 2.95-3.6083 0.2417-7.15-0.7583-10.75-0.6166-3.5333 0.3833-6.7333 2.075-10.1 3.1-28.225 9.1417-57.633 14.267-85.508 24.55-7.975 3.0167-16.225 5.2-24.175 8.275-7.75 2.9917-15.633 5.5916-23.5 8.225-5.2332 1.7332-10.483 3.6415-16.033 4.0415 1.9166-1.8167 4.0583-3.3667 6.325-4.7083 3.6251-2.175 6.8834-4.9333 10.708-6.775 4.9583-2.4333 10.183-4.2333 15.283-6.3333 2.2416-0.85 4.4917-1.9417 6.9417-1.9917 11.492 0.6917 22.283-4.1 33.117-7.1667 7.4584-1.975 14.467-5.3083 21.933-7.2667 4.4833-1.1667 8.7084-3.1 13.167-4.3583 12.6-3.2083 24.975-7.2333 37.458-10.883 4.8417-1.2917 9.6334-3.7833 14.775-2.875 4.0083 0.5916 8.1 0.7 12.075-0.2083 6.3333-1.425 13-1.6417 18.983-4.3583 3.1334-1.325 6.0917-3.175 9.475-3.8416 2.125-0.4583 4.3333-0.4833 6.425-1.125 2.7917-1.15 4.2917-4.175 7.025-5.4 7.525-0.0083 15.033 0.9583 22.517 1.675 5.7417 0.475 11.192-2.4834 16.933-1.7667 7.2084 0.85 14.858 0.2167 21.392-3.15 3.0417-1.5667 6.6833-1.975 9.4083-4.1167 2.0333-2.725 3.3334-5.9333 5.4584-8.6083 1.7417-2.05 1-4.8667 0.9335-7.3 7.3499-0.5417 14.417-2.6917 21.55-4.3917 3.475-0.975 7.075-1.5916 10.433-2.95 2.9917-1.1584 2.6084-5.7417 5.925-6.5334 6.8834-2.5584 14.092-4.1167 21.058-6.45z" fill="#F2C2B4" stroke="#F2C2B4"/>
	<path d="m1146.6 360.71c13.133-4.35 26.575-7.6667 39.875-11.433 2.1249 0.8083 3.9166 2.2417 5.9166 3.2917 3.0083 0.1917 6.0833-0.525 9.0416 0.4833-5.5834 6.7417-14.95 6.3667-22.542 9.1333-9.2417 3.375-19.167 5.3333-27.45 10.875-4.2167 2.6583-9.0499 4.1083-13.275 6.7417-2.7499 1.6917-5.3416 3.625-8.2166 5.1-4.675 2.4583-9.8584 3.65-14.9 5.1083-8.0417 2.2917-16.15 4.3167-24.175 6.65-9.2 3.175-18.192 7.2083-27.842 8.8833-5.2583 1-10.733 0.725-15.867 2.3917-5.775 1.8833-11.767 2.9417-17.725 3.9917-3.1083 0.625-6.1417-0.475-9.1166-1.2-3.0083-0.7667-6.1333-0.725-9.2083-0.6583 0.7583-0.8583 1.5167-1.7083 2.275-2.5583 7.8-0.8417 15.5-2.3833 23.05-4.5 6.5667-1.7083 13.433-2.4833 19.683-5.2667 4.6666-2.0167 8.5667-5.3833 13.058-7.7167 4.6749-2.4583 9.7-4.15 14.458-6.4417 5.2084-2.525 10.875-3.9167 16.125-6.35 4.1334-1.8917 8.5166-3.15 12.758-4.775 11.1-4.6166 22.617-8.125 34.075-11.75z" fill="#EFC1AE" stroke="#EFC1AE"/>
		<radialGradient id="i" cx="1094.8" cy="578.17" r="1017.3" gradientTransform="matrix(.8333 0 0 -.8333 480 1333.3)" gradientUnits="userSpaceOnUse">
		<stop stop-color="#EC9F8A" offset="0"/>
		<stop stop-color="#EDA793" offset=".0973"/>
		<stop stop-color="#EFB19F" offset=".3021"/>
		<stop stop-color="#F0B5A3" offset=".5021"/>
		<stop stop-color="#E88F77" offset="1"/>
	</radialGradient>
	<path d="m1761.2 0h-1281.2v837.83c7.3-5.7583 16.767-7.7001 25.85-8.25 6.6833-0.2167 13.375-0.5417 20.058-0.175 7.6417 0.3833 14.883 3.0917 22.25 4.9249 10.933 2.5 22.3 0.3167 33.275 2.5084 9.7083 1.8832 19.792 3.75 29.625 1.65 10.258-2.875 19.942-7.4417 29.442-12.208 5.9916-3.025 12.617-4.7167 18.333-8.3 3.8-2.5167 6.4916-6.2833 9.7416-9.4 3.775-4.025 8.1583-7.4167 12.008-11.367 4.025-4.0583 5.65-9.7417 9.1167-14.2 4.3917-5.875 10.275-10.342 16.05-14.75 4.9667-3.7084 9.5333-8.175 15.417-10.433 7.2583-3.0834 15.258-3.6083 23.05-3.5334 8.5083 0.075 16.433 3.725 23.9 7.475 7.1667 3.5167 13.55 8.4 20.742 11.867 2.2333 1.1 4.5083 2.1166 6.725 3.2666 10.417 5.2667 17.425 15.617 28.442 19.892 9.975 4.4583 21.158 3.5583 31.808 3.8917 14.45-0.425 28.592 3.3917 42.175 7.9833 11.75 3.8583 23.142 8.8501 33.908 14.95 7.125 3.2833 13.875 7.3 20.8 10.984 5.1 3.25 10.408 6.1583 15.725 9.0416 17.317 9.4167 34.842 18.442 52.7 26.792 2.2916 1.2166 4.5082 2.575 6.8 3.8083 6.7833 3.3834 13.508 6.9334 20.5 9.8833 9.2916 3.9334 19.275 6.0001 29.317 6.7334 10.017 0.2167 20.142 0.9 30.05-1.0167 4.0083-0.0917 7.9917-0.6083 11.983-0.9666 9.4083-1.175 18.867-1.9333 28.333-2.4083 3.9083-0.2333 7.8083-0.425 11.725-0.4167-0.4083-15.358 1.1249-30.717 4.0499-45.783v-1e-4c0.2-0.9584 0.4166-1.9083 0.65-2.8417 3.5416-15.217 7.65-30.508 14.842-44.458 0.8334-2.2416 1.75-4.45 2.8168-6.5916 6.7749-13.542 14.675-26.558 24.05-38.467 32.992-42.517 82.008-72.325 135.07-81.575 17.692-3.0333 35.758-4.4583 53.692-2.9917 28.067 1.8917 55.8 9.0334 81.125 21.333 26.292 12.6 49.992 30.533 69.325 52.35 16.958 18.933 30.308 40.95 39.867 64.458 4.65 11.575 8.2584 23.567 10.817 35.775 0.8334 4.0585 1.8085 8.0834 2.7001 12.133 0.2833 5.575 1.2416 11.083 1.6499 16.65 0.8083 11.283 0.7751 22.625 0.0751 33.925-0.475 7.3083-1.7916 14.525-2.5166 21.808 4.9165 2.9666 10.033 5.5916 15.117 8.2833 5.5499 1.8167 10.992 3.9833 16.667 5.4167 10.85 4.5584 22.717 5.7416 34.367 6.2 9.2832 0.4501 17.658 4.8583 26.5 7.15 1.4667 0.2334 2.9501 0.4333 4.4667 0.5834 7.55-1.3917 15.208-1.9584 22.8-3.0667 9.5167-1.325 19.025-2.7417 28.525-4.15 12.35-2.1833 24.475-5.5916 36.092-10.325 0.9584-0.3417 1.9417-0.675 2.9333-1.0166 4.1417-1.8251 9.2584-2.6751 11.983-6.6667 3.1333-4.5667 4.5834-10.092 8.1-14.433 4.2167-5.5083 9.5917-10.067 15.608-13.525 9.1833-5.475 18.142-11.325 27.283-16.867 11.325-6.1334 22.558-12.442 33.65-19.008 6.0333-2.9084 12.142-6.1168 18.917-6.8167 1.975-0.3 4.1833-0.1 5.6832 1.3917 4.0583 3.7665 6.3 9.1832 10.9 12.45 8.1499 6.3 19.4 5.225 28.875 3.1833 12.233-4.475 23.292-11.5 34.667-17.733 3.7415-2.1083 7.6249-3.9583 11.325-6.15 4.775-2.6833 6.8002-8.15 10.858-11.633 6.4749-5.8083 11.15-13.183 16.575-19.892 4.4999-5.7083 11.566-8.0667 17.467-11.917 13.408-8.4919 28.216-14.35 42.583-20.942v-782.3h-318.82zm-826.2 306.69c5.975-1.875 12.292-2.0251 18.358-3.475 6.4333-1.6833 12.042-5.4 17.567-8.9667 2.9917-1.6251 7.0417-4.0833 10.15-1.3667-2.8667 1.6917-5.6417 3.6167-7.6417 6.3334-2.0583 2.8416-5.325 4.2832-8.325 5.8916-3.425 1.7917-6.6666 4.4417-10.725 4.4833-4.3334 0.225-8.7333 0.4417-12.892 1.8249-4.6166 1.3418-8.7083 4.1667-13.475 5.025-2.9833 0.5334-5.7917-1.1001-8.75-1.05-2.7 0.3417-5.3083 1.1916-7.95 1.8249-3.8333 0.8583-6.9833 3.3084-10.3 5.2668 5.1166 0.8583 9.8917-1.375 14.667-2.8 2.75-0.9333 5.3583 0.7417 7.775 1.8334-4.9584 0.3499-10.058 0.375-14.742 2.275-5.7583 2.275-11.625 4.3583-17.658 5.7833-4.45 1.05-9.0667 0.5833-13.558 1.3-5.1667 0.7583-10.142 2.4667-15.333 3.1084-5.9833 0.7-11.258 3.775-16.967 5.4167 0.625-0.95 1.2583-1.8833 1.9-2.8167-0.4417-0.9166-0.8833-1.8333-1.3167-2.7333 2.0667-1.7166 5.4749-4.5083 7.8166-1.7416 8.4334-2.3668 16.375-6.0833 24.6-9.0334 7.3917-3.1333 15.183-5.1667 22.575-8.3 5.7-2.4833 12.05-2.5417 17.9-4.5583 5.2836-1.8917 11.017-1.7335 16.325-3.525zm-61.208-43.817c-2.475 2.2833-5.5833 3.6667-8.75 4.7167-6.3333 2.0917-12.492 4.7917-19.083 6.0417-7.9583 2.1667-15.967 4.1583-24.042 5.8916-3.1583 0.6751-6.4083 0.7001-9.6166 0.4417 4.4166-5.3 11.425-7.15 17.692-9.3083 9.2584-3.3417 18.55-7.0083 28.383-8.2418-2.7417 2.0001-5.575 3.8751-8.2917 5.9167 8.1832-0.5416 15.558-4.7416 23.708-5.4583zm-210.59-47.542c-0.3841-0.4453-0.7235-0.9328-1.0367-1.4451 0.3132 0.5122 0.6527 0.9997 1.0367 1.4451zm-5.7666 38.892c-4.6251 3.6416-9.4833 7.5166-15.5 8.3916-5.55 0.825-10.983 2.175-16.358 3.7749-7.725 1.8501-15.608 5.3084-23.683 3.2917-1.825-0.3333-4.175-2.3083-3.1167-4.2917 0.9583-2.3667 2.5333-4.4084 4.0167-6.4583-4.7583 1.65-9.725 0.6167-14.583 0.3417-5.1917-0.2917-9.6333 2.7083-14.292 4.4666-2.675 1.0667-5.5667 0.3167-8.2916-0.0417-1.6417-4.125 0.0333-8.8333 3.2583-11.65 2.3583-0.8417 4.925-0.6167 7.3834-0.7583 1.9833-2.3 3.5333-6.1251 7.075-6.025 5.8833 0.1333 11.642 1.8333 17.55 1.5749 5.975-0.0167 11.283-3.1918 16.042-6.4833 1e-4 0 1e-4 -1e-4 1e-4 -1e-4 2.7416-1.9916 5.25-4.2666 7.8-6.4916 4.0166-3.4917 6.9916-8.0167 11.192-11.308 4.45-3.4917 8.8333-7.5501 14.608-8.6251 1.325 2 2.4083 4.3083 4.375 5.7749 2.525 1.5 5.5667 1.7083 8.4333 1.8334 8.5833 0.0083 17.325-0.7751 25.45-3.6417 4.475-4.625 7.15-11.125 12.95-14.458 4.6917-2.4751 9.9167-3.7084 14.992-5.1333 4.6583-1.1001 9.8583-2.325 14.417-0.2083 1.4083 2.7417-1.6083 5.0584-2.7665 7.3083 6.4916-0.2584 13.075-0.2751 19.425-1.8083 8.075-2.0001 15.675-5.4333 23.475-8.2418 3.8334-1.4833 7.9333-0.3166 11.9-0.5332 8.6-0.55 17.125-1.9668 25.525-3.8833 1.3833 0.7 2.8167 2.2 4.475 1.35 3.675-1.3001 7.1083-3.4832 11.092-3.7417 4.6417-0.3001 9.3-0.8083 13.958-0.7749 1.9917-0.0667 3.125 1.9332 4.0167 3.4166 1.375 2.3167-0.3 4.9584-1.8083 6.7418-2.5667 2.9083-6.8167 2.4499-10.25 3.3417-4.425 0.7332-8.075 3.9833-12.583 4.3083-3.15-0.9666-4.05-4.7583-5.6083-7.3-6.0333 1.075-11.633 3.675-17.45 5.5084-6.5667 2.3416-13.225 4.375-19.783 6.7333-5.7583 2.075-11.925 2.475-17.783 4.1417-3.9417 1.05-7.8333 2.7417-11.992 2.5333-7.425-0.3918-14.867-0.5583-22.25-1.4583-2.4666-0.1501-5.15-0.6416-7.4666 0.4749-4.35 3.2667-5.8167 8.7666-8.575 13.2-3.8417 4.6082-9.825 6.475-15.15 8.7666-5.825 2.25-10.95 5.9583-16.833 8.0582-5.9422 2.2084-12.226 3.9917-17.284 7.9835zm26.508-0.1252c-0.6666-0.5499-1.3333-1.0999-1.9916-1.6417h1e-4c0.6582 0.5419 1.3249 1.0918 1.9915 1.6417zm69.417 31.817c-4.4 1.375-8.8167-1.2416-13.225-0.0916-8.425 1.775-17.1 3.1917-25.717 2.175-4.5667-0.525-9.0333 0.8084-13.55 1.1333-3.45 0.25-6.8667 0.7832-10.233 1.5334-3.1583-2.75-7.4833-2.9751-11.317-4.1583 4.8583-2.7834 10.492-0.5918 15.708-0.6333-0.525-0.8667-1.0417-1.7251-1.5583-2.5834-3.6334-0.1083-7.725 0.2083-10.533-2.5499 2.125-1.5833 4.1583-3.3001 6.3583-4.7917 2.1833-1.5166 4.9916-1.5084 7.3333-2.6834 2.1167-1.3082 3.6167-3.35 5.1667-5.2415-3.1166-0.2333-5.6417 1.5916-7.7917 3.6166-1.1583-2.2833-2.5167-4.475-4.1666-6.425-0.6667 1.4583-1.4084 2.8917-2 4.3917-1.325-0.5751-2.7084-1.0833-3.875-1.9417-0.6917-1.3583-0.9833-2.875-1.3417-4.3417 4.6333-2.4666 9.3333-4.8584 14.408-6.2917 7.0667-2.7417 13.617-6.6583 20.733-9.3082 5.2333-1.8583 9.7833-5.0918 14.3-8.2333 4.0917-2.8417 7.525-6.6501 12.142-8.7084 5.0583-2.2833 9.8917-5.5833 15.55-6.0916 3.65-0.425 4.9166 3.9001 7.3167 5.8167 1.3 1.8418 3.5083 0.5834 5.175 0.0582 5.05-2.1416 9.9417-4.8832 15.467-5.6167-3.775 4.3-9.5583 5.425-14.558 7.6667-0.0167 0.7583-0.025 1.5166-0.0333 2.275 7.1417-1.8501 14.05-4.4833 21.083-6.7 5.3833-1.65 10.625-4.725 16.45-4.0917 2.55 0.0584 5.1166 0.0584 7.675-0.1499 6.3666-0.4751 12.233-3.2083 18.358-4.8 5.0583-1.3168 9.9666-3.125 14.683-5.375 4.8667-2.4333 10.433-2.0334 15.667-2.9333 0.1417-1.9083 0.0416-3.8917 0.7083-5.7084 1.9667-2.1498 5.175-2.7916 7.9833-2.5249 3.1666 0.2833 5.5583 2.575 7.7833 4.6166-0.9083 1.4833-1.8167 2.9751-2.7167 4.4668 1.1833 1.5083 2.375 3.0166 3.5667 4.5249-2.5416 1.025-5.175 1.8667-7.6 3.1583-3.1667 1.6917-3.9083 6.3084-7.7 7.05-6.1 1.5583-11.917 4.0084-18.017 5.5833-1.8668 0.3001-2.3333 2.2417-3.0668 3.6752 5.5417 1.4666 11.275 0.6749 16.825-0.3251 5.7084-1.0167 11.492 0.2584 16.883 2.125 4.125-1.8249 8.7167-2.4833 12.592-4.8833 1.9083-1.2084 4.2083-1.0167 6.3583-0.825 2.4833 0.625 5.3416 0.9 7.2916 2.7499 0.6083 2.5834-2.075 3.3167-3.9583 4.0167-0.45 1.875-0.8083 3.7583-1.175 5.65 1.3083-0.6084 2.6166-1.2084 3.8917-1.875-3.6 7.1832-11.633 10.458-19.05 12.075-5.35 1.45-10.683-2.05-15.992-0.3167-4.4333 1.2167-8.6166 3.1666-12.992 4.55-6.0417 2.0167-12.6 2.1416-18.417 4.8833-11.225 5.3083-23.692 7.625-34.442 13.992-2.5834 1.7251-1.8167 5.3083-2.15 7.9667-2.35 0.4167-5.6917 1.7415-7.1083-1.0333-1.2-3.0585 2.2333-5.3918 3.9-7.525-0.725-0.625-1.45-1.25-2.1667-1.8667-2.5 0.6334-5.025 1.325-7.1917 2.775-4.4833 2.9583-9.4584 5.1-14.467 6.975-7.6998 1.0914-15.625-0.967-23.25 1.1247zm253.31 69.992c-3.4584-0.2499-6.825-1.5333-10.308-1.2001-4.5333 0.5001-8.7833 2.2168-13.108 3.5251-3.2917 1.0167-6.7584 1.025-10.125 1.6084-3.025 0.5082-5.7666 1.9249-8.575 3.0666-3.7667 1.5583-7.8083 2.2083-11.7 3.3417-5 1.4417-10.108 2.6332-15.317 2.95-3.6083 0.2416-7.15-0.7583-10.75-0.6166-3.5333 0.3833-6.7333 2.075-10.1 3.1-28.225 9.1417-57.633 14.267-85.508 24.55-7.975 3.0167-16.225 5.2-24.175 8.2749-7.75 2.9918-15.633 5.5918-23.5 8.2251-5.2332 1.7333-10.483 3.6415-16.033 4.0416 1.9166-1.8168 4.0583-3.3667 6.325-4.7083 3.6251-2.175 6.8834-4.9332 10.708-6.775 4.9583-2.4333 10.183-4.2333 15.283-6.3333 2.2416-0.85 4.4917-1.9417 6.9417-1.9917 11.492 0.6917 22.283-4.1 33.117-7.1667 7.4584-1.975 14.467-5.3083 21.933-7.2667 4.4833-1.1667 8.7084-3.1 13.167-4.3583 12.6-3.2084 24.975-7.2334 37.458-10.883 4.8417-1.2917 9.6334-3.7834 14.775-2.875 4.0083 0.5917 8.1 0.7 12.075-0.2083 6.3333-1.4251 13-1.6418 18.983-4.3584 3.1334-1.3251 6.0917-3.175 9.475-3.8417 2.125-0.4583 4.3333-0.4833 6.425-1.125 2.7917-1.15 4.2917-4.175 7.025-5.4 7.525-0.0083 15.033 0.9583 22.517 1.675 5.7417 0.4749 11.192-2.4834 16.933-1.7667 7.2084 0.85 14.858 0.2167 21.392-3.15 3.0417-1.5667 6.6833-1.975 9.4083-4.1166 2.0333-2.725 3.3334-5.9334 5.4584-8.6084 1.7417-2.05 1-4.8667 0.9335-7.3 7.3499-0.5416 14.417-2.6917 21.55-4.3917 3.475-0.9749 7.075-1.5916 10.433-2.95 2.9917-1.1582 2.6083-5.7416 5.925-6.5332 6.8833-2.5584 14.092-4.1168 21.058-6.45 3.2667-0.9417 7.0083-2.5417 10.158-0.3834-7.1334 4.575-15.658 6.1833-23.158 10-2.825 1.8667-5.0751 4.5083-8.125 6.0417-8.0499 5.1167-17.958 5.0332-26.708 8.2834-3.8417 0.9-0.2001 5.9084-2.75 7.9499-1.9917 1.3333-4.5 1.525-6.5667 2.7167-2.1084 2.0584-3.475 4.9501-6.2916 6.2168-5.7917 3.0166-12.05 5.1583-18.4 6.6166-4.9167 1.1333-9.9834-0.1083-14.908 0.85-4.4167 0.775-8.8167 2.175-13.35 1.725zm172.2 6.275c-9.2417 3.3749-19.167 5.3333-27.45 10.875-4.2166 2.6584-9.0498 4.1084-13.275 6.7418-2.75 1.6917-5.3416 3.625-8.2167 5.1-4.6749 2.4583-9.8584 3.65-14.9 5.1083-8.0416 2.2917-16.15 4.3166-24.175 6.65-9.2001 3.175-18.192 7.2083-27.842 8.8832-5.2583 1.0001-10.733 0.7251-15.867 2.3918-5.775 1.8833-11.767 2.9417-17.725 3.9917-3.1083 0.625-6.1418-0.4751-9.1167-1.2001-3.0083-0.7667-6.1333-0.725-9.2083-0.6584 0.7583-0.8582 1.5167-1.7083 2.275-2.5582 7.8-0.8417 15.5-2.3834 23.05-4.5 6.5667-1.7083 13.433-2.4833 19.683-5.2666 4.6667-2.0167 8.5668-5.3834 13.058-7.7167 4.6752-2.4584 9.7001-4.15 14.458-6.4417 5.2083-2.525 10.875-3.9167 16.125-6.3501 4.1334-1.8917 8.5167-3.15 12.758-4.775 11.1-4.6167 22.617-8.125 34.075-11.75 13.133-4.35 26.575-7.6667 39.875-11.433 2.125 0.8083 3.9167 2.2417 5.9167 3.2917 3.0083 0.1917 6.0834-0.525 9.0416 0.4833-5.5833 6.7418-14.95 6.3668-22.542 9.1334zm220.99-161.71c-3.3 1.8667-6.2417 4.6166-9.9751 5.5416-5.3167 0.0167-11.283-1.1999-14.442-5.9167-0.8667 1.55-1.725 3.1-2.575 4.6583-11.15 0.8583-22.383-0.6-33.492 0.9667-2.2916 0.2416-4.5917 0.0667-6.8833 0.1667-2.6833 0.0249-3.85 2.9083-5.3333 4.6833 6.3082-0.7832 12.425-2.7333 18.792-3.1666 0 1.5583-0.1833 3.1749 0.2999 4.6917 3.1584 1.8917 7.0583 1.7999 10.583 2.5582-3.7 2.0501-8.375 3.0668-10.575 7.0251 1.4667 0.2583 2.9584 0.5 4.45 0.7499 0.3667 0.9084 0.7333 1.8168 1.1167 2.725-6.2167 2.925-12.9 4.5917-19.533 6.2583-6.3999 1.4917-12.425 4.4334-19.025 5.0751-4.9667 0.4749-9.4417 2.7416-14.058 4.4166-4.7166 1.875-10.417 0.1-14.508 3.6667-1.5082-0.225-3.0083-0.4583-4.5083-0.6918-1.4166 1.2334-2.7833 2.5751-4.4417 3.475-1.6168 0.1083-2.3333-1.7667-3.4-2.6501-6.625-0.8333-13.275 0.1084-19.758 1.4583-9.475 2.2253-19.325-0.1082-28.825 1.8168-1.1915 0.6917-2.0249 1.8251-2.95 2.8167-3.3501-1.975-6.9-3.6333-9.9917-6.0083 5.8417-1.6583 11.55-3.8833 17.6-4.7167 5.0166-0.5751 8.7916-4.4166 13.675-5.4167 7.3418-1.6167 14.575-3.7001 21.833-5.6666 2.8584-0.7751 5.5917-1.9584 8.2167-3.3417-8.1166 0.9083-16.042 2.8833-23.925 4.9583-6.8666 1.3417-13.342 4.0833-20.125 5.75-7.325 1.85-14.308 4.7833-21.6 6.7417-9.1416 2.1833-17.867 6.2917-27.367 6.7168-4.2499 0.2583-7.5999 3.2583-11.608 4.3333-7.4916 2.1-14.133 6.45-21.75 8.1751-7.2917 1.675-14.025 5.0167-21.15 7.2249-4.3917 1.4001-8.6084 3.3834-13.142 4.3416-2.9917 0.6584-6.05 1.05-8.95 2.0584-3.4001 1.1667-6.5084 3.0167-9.8584 4.2917-1.1321 0.5133-2.2943 0.9185-3.4758 1.2545 1.1815-0.3361 2.3438-0.7412 3.4758-1.2545-4.1334-0.2668-8.2416-0.975-12.158-2.3167 5.5667-0.4667 11.2-0.4751 16.692-1.6667-1.5083-1.9833-2.975-3.9917-4.4-6.0333-6.775-0.5668-13.567-0.0918-20.35-0.125-2.3167 0.0582-4.5249-0.6749-6.5667-1.7166 4.9084-2.4668 10.508-3.2667 15.183-6.2667-1.4166-1.2417-2.7084-3.0251-4.7583-3.0918-4.0668-0.2833-8.1417-0.3417-12.208-0.5417-4.0165-0.5082-5.9332 4.4334-9.7749 4.5334-4.725 0.075-9.4501-0.5083-14.075-1.45 4.0834-0.4749 8.1833-0.1834 12.267 0.175-0.0084-2.4667 0.0583-5.325 2.2833-6.9166 2.75-2.625 6.7833-1.5667 10.108-2.5668 1.3083-1.3082 2.1333-3 3.1-4.55 3.8334-0.1917 7.7334 0.0833 11.492-0.8083 0.7666-1.6167 1.0166-3.4167 1.325-5.1584-7.7916-0.5583-15.533 0.7417-23.317 0.7834-6.1 0-12.35 1.0083-18.275-0.95 3.8999-2.3 8.5083-1.175 12.742-2.0083 0.9917-1.2083 1.6167-2.6583 2.35-4.0251 4.15-0.4335 8.6416 0.0665 12.35-2.2085 2.5416-1.6082 5.5583-1.9167 8.5-1.975 0.4333 0.5583 0.875 1.125 1.3251 1.6999 1.05-0.85 2.0667-1.8082 3.3167-2.3667 3.75-0.0416 7.4584 1.35 11.225 0.6084 5.175-0.8834 10.408-0.2751 15.617-0.5751 6.7417-1.0084 12.892-4.1833 19.125-6.7917 4.5251-2.0417 9.7084-0.2417 14.275-2.1334 5.3416-2.1249 10.392-5.0083 15.983-6.4916 5.9001-1.6833 12.083-0.8417 18.125-1.325 4.175-0.3333 8.375-0.4 12.558-0.7417 3.4666-0.1834 6.0583-2.8 9.2583-3.7999 2.875-0.6168 5.8417-0.1751 8.7666-0.1502 5.3917 0.225 10.708-1.1833 16.108-0.9583 4.2168 0.1167 8.5001 1.225 12.675 0.075 4.1417-1.1333 8.3667-1.8667 12.633-2.3667 5.6666-0.6417 10.683-3.6999 16.317-4.5166 5.0083-0.8001 9.8834-2.7417 15.033-2.4084 5.1084 0.2333 10.192 0.8083 15.292 1.25 0.8333 1.3334 1.6749 2.6667 2.5333 4 3.1-1.1999 6.2582-2.3833 9.5999-2.675 5.2917-0.6667 10.742-0.0417 15.917-1.5833 4.2251-1.275 8.6333-0.0499 12.942-0.5083 4.0833-0.4333 8.2084-0.625 12.308-0.1417 0.6666 1.4917 1.35 2.9833 2.0416 4.475 3.2167-2.3501 6.7167-4.3249 10.6-5.3333 5.3668-1.4251 9.65-5.45 15.167-6.4418 4.0251-0.6749 8.1168-0.1584 12.158 0.0917-1.3334-0.9666-2.6584-1.9249-3.9584-2.8917 5.4833-2.7917 11.692 0.0667 17.425-1.575 0.5251 4.2091 0.6086 8.4591 0.3086 12.692zm-326.62 29.319c0.5217 0.2032 0.9683 0.6136 1.3903 1.0279-0.4221-0.4142-0.8686-0.8247-1.3903-1.0279zm250.07-73.826c3.0582-0.0337 6.1138-0.2773 9.0979-0.9568-2.9842 0.6797-6.0397 0.9231-9.0979 0.9568zm96.359-26.292c-3.225 2.1333-5.6166 5.2167-7.7 8.425-8.4166 0.5417-16.883 0.4083-25.275-0.4917-0.2667 0.9583-0.5333 1.9082-0.775 2.8751-3.9916 0.3249-8.0665 0.0249-11.975 0.9333-2.4083 2.225-1.1832 5.8583-0.9916 8.6918-2.925 0.4167-5.8834 0.55-8.8 0.8916-3.4666 0.3667-6.075 3.3667-9.625 3.3667-6.875 0.225-13.808-0.9417-20.633 0.2668-0.1-1.8002-0.1833-3.5918-0.2667-5.3834-4.3749 1.6334-8.7999 3.6417-13.592 3.3417-6.975-0.3417-13.925 0.4583-20.892 0.7-2.5583 0.0751-4.9917 0.8583-7.3999 1.6167-3.6584 1.1918-7.6835 0.6666-11.208 2.3083-4.7166 2.1751-9.8248 3.3167-14.933 4.0918-5.2084 0.8417-10.617-1.7584-15.658 0.4-5.225 2.3499-11.058 1.7916-16.625 1.6917-3.9083-0.025-7.625-1.5167-11.517-1.6167-4.1 0.3083-6.75 3.9583-10.367 5.4583-2.9749 0.4333-5.9498-0.425-8.9249-0.5-4.2252-0.275-8.2666 1.2917-12.45 1.5667-8.6417 0.6834-17.6-1.325-26 1.5084-7.0916 2.1083-13.792 6.4917-21.458 5.8167-5.1667-0.45-10.358-1.0167-15.517-0.2083 1.875 0.7416 3.7667 1.4417 5.6667 2.1583-5.7917-0.0499-11.608-0.3167-17.367 0.35-2.4415 0.175-4.9667 0.6667-7.3499-0.025-1.1084-1.6083-1.7583-3.4749-2.8751-5.0584-3.7333-0.7749-7.5498 0.0668-11.292 0.3168-0.3999-1.5084-0.7916-3.0084-1.1749-4.5083-5.325-0.4917-10.675-0.4085-16.008-0.3251-15.025-0.025-30.058 0.0584-45.083-0.0751-3.4584-0.2999-5.725 3.0334-9.0334 3.2585-3.2917 0.2999-6.6083 0.375-9.825 1.1333-3.4833 0.6667-7.3917 1.5-10.675-0.2333-1.0416-1.1916-1.525-2.7249-2.2083-4.1166 5.8917-2.6416 12.433-2.4416 18.725-2.9833 6.9332-0.3417 14.15-1.4667 20.8 1.15 0.3916-2.0667 0.7999-4.1166 1.1917-6.175 4.6166-0.1501 9.375-0.0083 13.733-1.8 3.4-1.425 7.05-0.1166 10.567-0.3917 2.7749-0.7499 4.9584-2.875 7.75-3.6333 2.3165-0.825 4.9667-0.8749 7.075-2.2417 0.875-2.8249 0.8666-5.825 1.1833-8.7417 4.0082-0.1332 8.0249-0.2499 12.042-0.2999 0.3-1.5334 0.6167-3.0667 0.9333-4.5917 0.3417 1.225 0.6918 2.4583 1.0417 3.6916 0.9917-0.0417 1.9916-0.0833 2.9999-0.125-0.2999-1.0083-0.5917-2.0167-0.8832-3.025 2.4418 1.1918 4.9833 2.5584 7.8 2.3 4.5082-0.2668 9.0084-0.85 13.533-0.6333 8.35 0.3584 16.667-0.5249 24.992-0.9916 3.7584-0.1582 7.25-1.675 10.508-3.4417 4.9084-2.7666 10.725-1.8833 16.108-2.4501 6.275-0.6749 12.925 0.25 18.792-2.5499 4.5834-2.0417 9.4585-3.4 14.434-4.0833 2.7666-0.4 5.2916 1.075 7.7916 2.0166 2.25-1.8249 5.1333-2.2166 7.9417-2.2083 7.0917-0.0834 13.975-2.4 21.1-2.125 5.2916 0.1833 10.575-0.175 15.842-0.65 6.6749-0.5917 13.808 1.1001 20.025-2.15 3.4583 1.5333 6.7915 3.9001 10.742 3.7583 6.5751-0.0332 13.158 0.0499 19.708-0.5 5.9583-0.5084 11.883 0.6751 17.842 0.3666 2.7668 0.0333 5.7917-0.4917 8.3083 0.975 2.3167 1.3333 4.7167 2.9083 7.5333 2.6584 4.3 0.3333 7.4083-3.4834 11.592-3.6501 5.3251-0.3249 10.65 0.3417 15.983 0.1168 4.2001 0.0665 7.275-3.7833 11.525-3.4917 7.175 0.1417 14.458-0.5167 21.533 1.0333 3.95 0.85 8.0083 0.9083 12.025 0.6666 0.3334-1.9249-0.3499-4.5917 1.3-5.9499 4.3667-1.4583 9.4501-1.3334 13.492 1.0333-4.125 2.05-9.725 0.7167-12.758 4.7333 3.8417-0.0333 7.6749-0.25 11.525-0.4-1.7332 2.5078-4.0416 4.4995-6.5666 6.1578z" fill="url(#i)" stroke="#EFA998"/>
	<path d="m1600.5 866.05c-0.4083-5.5667-1.3667-11.075-1.65-16.65-0.8916-4.05-1.8667-8.075-2.7-12.133-2.5583-12.208-6.1667-24.2-10.817-35.775-9.5583-23.508-22.908-45.525-39.867-64.458-19.333-21.817-43.033-39.75-69.325-52.35-25.325-12.3-53.058-19.442-81.125-21.333-17.933-1.4667-36-0.0417-53.692 2.9916-53.058 9.25-102.08 39.058-135.07 81.575-9.375 11.908-17.275 24.925-24.05 38.467-1.0667 2.1417-1.9833 4.35-2.8167 6.5916-7.1917 13.95-11.3 29.242-14.842 44.458-0.2333 0.9333-0.45 1.8834-0.65 2.8417-2.9249 15.067-4.4583 30.425-4.0499 45.783 15.05-0.1083 30.1-0.0833 45.15-0.05 15.433 0.0667 30.875-0.275 46.3 0.2751 19.533 1.15 38.875 4.4583 58.008 8.4666 14.367 2.4167 28.55 5.7667 42.792 8.8251 8.4167 1.0167 16.908 1.6333 25.392 1.275 7.6666-0.3 14.833-3.2583 22.15-5.2583 15.942-4.4417 32.4-0.2417 48.267 2.3334 6.0083 0.6083 12 1.4417 18.025 1.95 22.258 1.3916 44.567 0.2499 66.833 1.025 13.675-0.6917 27.817-0.9083 40.758 4.275 8.6583 3.1833 16.45 8.225 24.533 12.608 0.725-7.2833 2.0416-14.5 2.5166-21.808 0.7004-11.3 0.7336-22.642-0.0746-33.925z" fill="#FED0B1" stroke="#FED0B1"/>
		<linearGradient id="j" x1="915.64" x2="909.64" y1="-219.59" y2="436.41" gradientTransform="matrix(.8333 0 0 -.8333 480 1333.3)" gradientUnits="userSpaceOnUse">
		<stop stop-color="#1A1A1C" offset="0"/>
		<stop stop-color="#2C2C2F" offset=".402"/>
		<stop stop-color="#4D4D52" offset="1"/>
	</linearGradient>
	<path d="m1814.2 1022.7c9.375-1.35 18.867-1.6 28.325-1.7416 6.85-0.1584 13.583 1.2083 20.325 2.2333 3.8584 0.9251 8.025 1.2667 11.517 3.3084 3.4084 2.9583 4.5251 7.6 7.1667 11.158 2.0751 3.1582 5.4417 5.1499 8.9 6.4999 10.65 5.1334 22.75 4.0668 34.208 4.7001 9.0833 0.5917 18.183 0.625 27.283 0.4 9.1416 0.275 18.925-0.8167 27.158 4.1083 7.4833 4.8834 14.892 10.067 23.367 13.15-2.3584 5.2084-7.4084 8.2084-11.367 12.042-6.2167 5.9-13.017 11.325-20.767 15.075-7.3333 3.5083-15.542 4.825-23.625 4.8167-10.842 0-21.675-0.05-32.517-0.025-7.2083 0.1167-14.558 0.3667-21.45 2.6667-4.4417 1.4583-8.8082 3.2666-13.442 4.0416-5 0.8999-10.092 0.45-15.125 0.7583-5.8833 0.2917-11.392 2.5751-17.117 3.7167-8.7251 1.9667-17.742 1.4083-26.567 2.5333-11.342 1.3083-22.267 5.4584-33.775 5.325-16.925-0.075-34.283-0.1083-50.492 5.425-15.108 6.2084-30.083 12.783-44.5 20.508-7.175 3.5667-13.5 8.775-21.142 11.383-4.6583 1.7417-9.6083 2.3418-14.492 3.0835-7.0166 1.0833-13.983 4.0166-18.792 9.3999-4.6333 5.1167-8.8083 10.633-13.275 15.9-4.625 5.3333-6.3416 12.367-10.05 18.258-2.6749 4.2916-5.4916 8.5167-7.8167 13.025-2.6083 4.7417-4.7583 9.9333-8.8167 13.675-2.8999 2.6666-5.9917 5.1167-8.725 7.9584-3.5083 3.5583-7.4249 7.1333-12.408 8.375-4.4917 1-9.125 0.4166-13.675 0.4501-21.942 0.15-43.892 0.1083-65.833 0.0083-11.425-0.4833-22.858-0.9417-34.225-2.2501-8.7084-0.9916-17.475-1.225-26.167-2.3248-7.325-0.9001-13.642-5.2417-18.55-10.542-3.4834-3.8667-8.2-6.2167-12.05-9.625-3.0333-2.5333-5.475-6.7083-9.8584-6.7833-6.0916-0.1333-11.608 2.8833-16.933 5.4834-4.8083 2.525-9.7251 4.8167-14.683 7.0332-9.1 4.2084-16.067 11.617-23.517 18.117-3.1084 2.7167-5.8834 5.7917-8.525 8.9667-6.0166 7.4501-15.192 11.192-23.892 14.517-11.542 4.7416-23.633 7.95-35.75 10.825-17.583 3.9333-35.6 6.6416-52.4 13.425-15.533 6.325-30.225 14.483-45.65 21.042-7.3333 2.9916-14.233 7.225-22.1 8.75-5.9083 1.4-12.225 0.65-17.933 2.9417-5.2084 2.25-9.6 5.9417-14.417 8.875-4.9667 3.0667-11.017 2.8833-16.525 4.2834-12.775 3.0665-25.125 7.6083-37.642 11.558-17.325 5.6-34.95 10.258-52.2 16.1-33.067 10.5-66.675 19.175-99.842 29.325-13.483 4.125-27.083 7.8167-40.567 11.908-19.308 5.2167-38.425 11.092-57.3 17.683-14.017 5.0083-28.558 8.7749-41.783 15.75-7.7583 3.6918-15.233 7.9418-22.475 12.55-5.0334 3.2666-9.525 7.3584-14.917 10.075-6.6083 3.3999-12.233 8.2999-18.275 12.55-3.2667 2.2999-6.4584 4.7749-8.9917 7.8999-5.2833 4.4333-10.583 8.9834-16.725 12.208-7.0167 3.6582-14.142 7.1083-21.367 10.35-7.9916 3.6-15.517 8.8667-24.475 9.6917-8.7 0.7083-17.383-0.7999-26.067-1.1167-9.825-0.2999-19.725-0.1749-29.442 1.425-14.767 2.4833-29.625 5.15-43.7 10.425-16.475 6.675-31.033 17-45.775 26.75-6.1 4.1001-11.908 8.6084-17.925 12.817-1.3333 0.7917-2.7 1.5251-4.0167 2.3668v-223.39c5.5583-6.5583 12.65-11.542 19.167-17.067 10.408-8.2 20.808-17.008 33.45-21.55 7.375-2.8417 15.267-4.1 23.142-4.425 8.8666-0.4083 17.775-0.9583 26.633-0.1499 4.5667 1.9 5.15 7.275 8.025 10.725 1.95 2.3333 5.3167 2.275 7.9916 1.4667 8.325-2.3334 14.858-8.4667 22.933-11.383 5.8417-2.45 12.342-2.6167 18.55-1.825 5.3167 4.3333 7.875 12.408 15.308 13.692 7.9167 1.5001 16.125 1.4333 24.092 0.3 13.4-2.2417 26.658-5.3 40.083-7.45 9.2584-1.2417 18.583-1.7833 27.917-2.2667 21.075-1.6917 42.167-3.5 63.075-6.7417 13.283-2.4 26.733-4.7333 39.275-9.9083 9.2501-3.6832 18.625-7.4417 26.733-13.317 8.775-6.2833 13.025-16.567 18.225-25.633 4.6166-7.1918 9.0416-14.908 16.05-20.075 5.7832-4.3916 13.433-5.35 20.458-4.35 13.042 1.9083 26.175 3.775 39.383 3.65 19.492 1.8667 39.125 0.9166 58.675 1.225 18.133 0.125 36.067-3.5416 53.425-8.5499 7.5583-2.2417 15.417-3.2084 23.275-3.4834 22.017-1.0667 43.992-2.65 66-3.7749 6.7999-0.1835 13.608 0.1 20.4-0.4584 8.9584 0.3417 17.925 0.1832 26.9 0.1832 13.342-0.0416 26.65 1.2334 39.992 1.4667 8.8083 0.2084 18.025 0.8334 26.342-2.6832 7.9333-3.4418 15.375-9.1417 18.892-17.258 1.4917-2.9834 2.6917-6.3917 5.525-8.3667 6.7167-4.3168 15.85-0.6334 22.208-5.6417 4.0333-3.9083 7.5166-8.35 11.475-12.325 6.9667-7.0834 14-14.108 20.975-21.175 6.9-6.5416 12.317-14.617 20.2-20.108 5.8751-3.1167 11.95-6.3 18.658-7.0751 10.033-0.3916 20.075-0.3167 30.108-0.3167 7.0834 0.7584 14.15 1.75 21.208 2.8 10.817 1.6917 21.8 2.075 32.742 2.0332 11.442-0.1166 23.108 1.0333 34.292-2.0833 6.9917-1.575 13.025-5.5834 18.892-9.5083 4.25-2.8834 7.7666-6.6583 11.475-10.175 5.1-5.0917 10.492-9.875 15.675-14.875 2.9833-2.6917 5.4583-5.8667 8.3667-8.625 1.0499-1.35 2.8083-0.2833 4.05 0.2084 4.2583 2.2416 8.2417 5.1833 13.058 6.1917 6.8833 1.6833 14.025 2.0083 21.017 3.1333 22.075 2.8417 44.158 7.4333 66.525 6.1167 4.9083-0.2333 7.35-5.0917 9.8334-8.625 6.5999-10.642 16.183-19.008 26.325-26.175 4.4082-3.0334 9.25-5.3668 14.042-7.7334 6.4333-3.1667 12.842-6.3917 19.308-9.5084 14.008-6.3416 28.267-12.333 43.192-16.166 6.8419-1.5834 13.734-2.9251 20.634-4.2334z" fill="url(#j)" stroke="#2C2C2F"/>
		<linearGradient id="k" x1="1524.7" x2="1467.7" y1="258.63" y2="581.49" gradientTransform="matrix(.8333 0 0 -.8333 480 1333.3)" gradientUnits="userSpaceOnUse">
		<stop stop-color="#887678" offset="0"/>
		<stop stop-color="#686069" offset=".4032"/>
		<stop stop-color="#51515F" offset=".7679"/>
		<stop stop-color="#494C5B" offset="1"/>
	</linearGradient>
	<path d="m2037.4 803.24c-5.9 3.85-12.967 6.2084-17.467 11.917-5.4248 6.7083-10.1 14.083-16.575 19.892-4.0582 3.4833-6.0834 8.95-10.858 11.633-3.7 2.1917-7.5834 4.0416-11.325 6.15-11.375 6.2333-22.434 13.258-34.667 17.733-9.4751 2.0416-20.725 3.1166-28.875-3.1834-4.6-3.2667-6.8418-8.6833-10.9-12.45-1.5-1.4917-3.7084-1.6917-5.6833-1.3917-6.775 0.7-12.883 3.9083-18.917 6.8167-11.092 6.5667-22.325 12.875-33.65 19.008-9.1416 5.5417-18.1 11.392-27.283 16.867-6.0166 3.4584-11.392 8.0167-15.608 13.525-3.5166 4.3417-4.9667 9.8667-8.1 14.433-2.725 3.9916-7.8417 4.8416-11.983 6.6667-0.9918 0.3416-1.9751 0.6749-2.9333 1.0167-11.617 4.7333-23.742 8.1417-36.092 10.325-9.5 1.4083-19.008 2.825-28.525 4.15-7.5917 1.1083-15.25 1.675-22.8 3.0667-5.8999 1.0833-11.733 2.5249-17.483 4.1916-11.383 3.3-22.858 6.25-34.433 8.7667-7.3667 1.6168-15.25 1.7834-21.983 5.525-6.6251 3.8084-14.667 3.0667-21.883 1.7833-8.4583-2.0667-16.983-3.9166-25.375-6.2333-5.7334-1.6833-12.542-3.5834-17.883 0.1833-11.333 8-22.675 16.108-35 22.525-5.2 2.6417-8.9166 7.2333-12.508 11.675-6.5083 7.8917-13.8 15.117-20.058 23.217-4.1334 5.2416-6.2667 11.792-10.717 16.817-3.5167 4.0167-8.1166 6.8251-12.417 9.9-10.067 4.7584-19.425 11.892-30.792 13.183-4.6 0.5917-9.2832 0.9917-13.658 2.6167-7.0334 2.5499-13.45 6.4834-19.725 10.483-3.65 2.475-7.1666 5.1417-10.742 7.7167-11.333 8.0333-22.667 16.883-29.817 29.042 14.5 1.9335 28.292 7.3 42.733 9.425 10.033-0.3916 20.075-0.3167 30.108-0.3167 7.0834 0.7584 14.15 1.75 21.208 2.8 10.817 1.6917 21.8 2.075 32.742 2.0332 11.442-0.1166 23.108 1.0333 34.292-2.0833 6.9917-1.575 13.025-5.5834 18.892-9.5083 4.25-2.8834 7.7666-6.6583 11.475-10.175 5.1-5.0917 10.492-9.875 15.675-14.875 2.9833-2.6917 5.4583-5.8667 8.3667-8.625 1.0499-1.35 2.8083-0.2833 4.05 0.2084 4.2583 2.2416 8.2417 5.1833 13.058 6.1917 6.8833 1.6833 14.025 2.0083 21.017 3.1333 22.075 2.8417 44.158 7.4333 66.525 6.1167 4.9083-0.2333 7.35-5.0917 9.8334-8.625 6.5999-10.642 16.183-19.008 26.325-26.175 4.4082-3.0334 9.25-5.3668 14.042-7.7334 6.4333-3.1667 12.842-6.3917 19.308-9.5084 14.008-6.3416 28.267-12.333 43.192-16.166 6.8417-1.5834 13.733-2.925 20.633-4.2334 9.375-1.35 18.867-1.6 28.325-1.7416 6.85-0.1584 13.583 1.2083 20.325 2.2333 3.8584 0.9251 8.025 1.2667 11.517 3.3084 3.4084 2.9583 4.5251 7.6 7.1667 11.158 2.0751 3.1582 5.4417 5.1499 8.9 6.4999 10.65 5.1334 22.75 4.0668 34.208 4.7001 9.0833 0.5917 18.183 0.625 27.283 0.4 9.1416 0.275 18.925-0.8167 27.158 4.1083 7.4834 4.8834 14.892 10.067 23.367 13.15 6.975 2.3667 14.45 3.0583 21.783 2.8083 8.6082-0.475 17.75-4.4333 21.858-12.4 2.2166-5.8417 1.9583-12.258 2.0083-18.408 0.2666-3.4583 0.0667-7.1833 1.7-10.35 2.1084-1.8251 5.175-1.7334 7.8252-1.9833 7.4666-0.1334 15.075-0.6918 22.4 1.1832v-245.06c-14.367 6.5917-29.175 12.45-42.584 20.942z" fill="url(#k)" stroke="#6D6068"/>
		<linearGradient id="l" x1="641.8" x2="588.77" y1="27.563" y2="268.41" gradientTransform="matrix(.8333 0 0 -.8333 480 1333.3)" gradientUnits="userSpaceOnUse">
		<stop stop-color="#887678" offset="0"/>
		<stop stop-color="#6E656C" offset=".2395"/>
		<stop stop-color="#595763" offset=".4964"/>
		<stop stop-color="#4D4F5D" offset=".7513"/>
		<stop stop-color="#494C5B" offset="1"/>
	</linearGradient>
	<path d="m1360.7 1110.8c-13.225-1.6917-26.592-1.0833-39.875-0.7166-13.242 0.2167-26.5 1.1499-39.525 3.6416-11.358 2.2251-22.7 4.5-34.042 6.7917-9.2583 1.8666-18.642 3.1083-27.767 5.6-7.3416 1.9916-14.742 3.7833-22.192 5.2999-10.392 1.8418-20.875 3.1083-31.325 4.6084-8.0665 1.1833-16.25 0.8082-24.367 0.6-6.0166-0.1583-12.025-1.3417-17.5-3.8833-7.25-2.825-13.066-8.025-19.008-12.85-4.8167-3.3251-9.7001-7.6833-15.892-7.7084-7.3834-0.125-14.775 0.2167-22.167-0.0917-3.1417 0.4917-6.3167 0.7584-9.4333 1.3834-6.575 1.1915-11.492 6.3583-17.958 7.8666-9.3167 2.3334-19.117 0.3083-28.475 2.4333-4.15 1.1083-7.375 4.1166-10.683 6.7-3.8667 3.1833-8.0168 6-12.242 8.6917-6.8 5.0417-13.808 9.9-19.733 16-5.4333 5.55-11.375 11.183-19.042 13.333-4.7666 0.95-9.6583 0.3917-14.475 0.4917-20.017-0.25-40.025 0.6583-60.042 0.525-7.525 0.2166-16.008-0.225-22.133 4.9583-6.2083 5.2583-13.833 8.3-20.75 12.475-3.6083 2.1084-7.4 3.8667-11.217 5.5834-7.3833 3.3167-13.375 8.9166-20.283 13.033-5.3333 3.1416-10.908 6.425-17.208 6.9917-12.017 1.0583-23.942-1.3417-35.892-2.1-6.95-0.15-14.183-0.4-20.775 2.1333-5.175 2.35-9.6333 6-14.792 8.3916-7.1583 3.4584-14.525 6.475-21.533 10.25-7.7167 4.025-15.65 7.675-23.117 12.175-0.8833 0.5917-1.7583 1.2001-2.6333 1.8334-13.992 9.9166-28.325 19.392-41.692 30.167-7.45 5.9333-15.342 11.258-23.217 16.608-5.9166 2.8333-11.608 6.1333-17.325 9.35 4.5667 1.9 5.15 7.275 8.025 10.725 1.95 2.3333 5.3167 2.275 7.9917 1.4667 8.325-2.3334 14.858-8.4667 22.933-11.383 5.8417-2.45 12.342-2.6167 18.55-1.825 5.3167 4.3333 7.8749 12.408 15.308 13.692 7.9167 1.5001 16.125 1.4333 24.092 0.3 13.4-2.2417 26.658-5.3 40.083-7.45 9.2583-1.2417 18.583-1.7833 27.917-2.2667 21.075-1.6917 42.167-3.5 63.075-6.7417 13.283-2.4 26.733-4.7333 39.275-9.9083 9.25-3.6832 18.625-7.4417 26.733-13.317 8.775-6.2833 13.025-16.567 18.225-25.633 4.6166-7.1918 9.0416-14.908 16.05-20.075 5.7833-4.3916 13.433-5.35 20.458-4.35 13.042 1.9083 26.175 3.775 39.383 3.65 19.492 1.8667 39.125 0.9166 58.675 1.225 18.133 0.125 36.067-3.5416 53.425-8.5499 7.5582-2.2417 15.417-3.2084 23.275-3.4834 22.017-1.0667 43.992-2.65 66-3.7749 6.7999-0.1835 13.608 0.1 20.4-0.4584 8.9583 0.3417 17.925 0.1832 26.9 0.1832 13.342-0.0416 26.65 1.2334 39.992 1.4667 8.8085 0.2084 18.025 0.8334 26.342-2.6832 7.9333-3.4418 15.375-9.1417 18.892-17.258 1.4917-2.9834 2.6917-6.3917 5.525-8.3667 6.7166-4.3168 15.85-0.6334 22.208-5.6417 4.0333-3.9083 7.5166-8.35 11.475-12.325 6.9668-7.0834 14-14.108 20.975-21.175 6.8999-6.5416 12.317-14.617 20.2-20.108 5.875-3.1167 11.95-6.3 18.658-7.0751-14.442-2.1247-28.234-7.4913-42.734-9.4248z" fill="url(#l)" stroke="#6D6068"/>
		<radialGradient id="m" cx="1918.5" cy="-316.04" r="1773.2" gradientTransform="matrix(.8333 0 0 -.8333 480 1333.3)" gradientUnits="userSpaceOnUse">
		<stop stop-color="#302F34" offset="0"/>
		<stop stop-color="#1F1E21" offset=".1881"/>
		<stop stop-color="#0E0D0F" offset=".4431"/>
		<stop stop-color="#030304" offset=".7088"/>
		<stop offset="1"/>
	</radialGradient>
	<path d="m2060.8 1276c-3.6833-0.2833-7.3 0.8083-10.425 2.6833-6.7584 3.9249-13.95 7.0583-20.65 11.083-6.5165 4.1501-7.45 12.792-13.042 17.808-5.3165 4.6915-11.425 8.5249-18.033 11.117-6.0583 2.275-12.05 5.525-18.683 5.475-2.875 0.1-5.225-1.7416-7.2916-3.4666-5.0084-4.2668-10.242-8.3417-15.992-11.55-5.4417-3.0499-11.958-4.3333-18.092-3.0166-4.0084 0.9417-7.1835 3.8-9.9667 6.675-5.8419 6.1333-9.425 13.917-14.217 20.808-7.3501 10.733-15.275 21.292-25.375 29.617-7.7499 6.9-17.333 11.133-26.267 16.217-6.0083 3.2-11.983 6.4417-17.983 9.6416-5.4249 2.9833-11.375 4.8334-16.808 7.7999-4.5667 0.9167-9.7833 1.875-13.842-1.0499-7.6333-5.2084-14.992-10.908-23.25-15.125-5.2749-2.7084-10.292-5.8917-15.617-8.4917-7.875-3.8667-15.583-8.1-22.9-12.942-4.5834-2.9417-9.175-6.725-14.883-6.8583-3.2667-0.025-7.3583 0.2582-9.1583 3.4417-2.5834 4.25-4.8 8.8667-8.625 12.2-4.8417 4.3167-9.7501 8.6083-13.717 13.783-3.5916 4.7167-8.6915 8.2917-14.525 9.5333-3.9 1.0834-8.85 0.7916-11.275 4.65-6.6 9.425-16.017 16.658-21.4 26.958-4.1417 8.0167-10.692 14.342-15.875 21.633-4.0167 5.3916-7.5583 11.175-10.1 17.417-2.2 4.95-3.325 10.317-5.625 15.233-1.0249 2.2334-2.85 4.5001-5.5333 4.5334-5.9166 0.5333-10.775-3.3917-15.625-6.1417-6.5416-3.9083-14.025-5.8583-21.525-6.8334-6.675-0.7999-12.942-3.3833-18.883-6.4082-5.35-3.2001-10.95-6.65-14.258-12.108-5.025-8.2916-5.5333-18.508-10.842-26.658-3.8334-5.7999-9.2667-10.35-15.025-14.133-7.8501-5.05-15.633-10.492-21.675-17.683-4.6499-5.5834-10.442-10-15.833-14.8-4.425-3.9335-9.2667-7.3168-13.892-10.992-8.0167-4.35-15.525-9.9332-24.475-12.258-10.175-2.9584-20.858-2.0667-31.3-2.1-6.3416 0.1084-12.642-0.9083-18.975-0.6167-7.5917 0.3501-15.133-0.7916-22.708-1.1-4.3916-0.1833-8.7333-0.9083-12.983-2.0083-7.0416-1.7334-14.883-2.425-21.625 0.7417-5.3 2.5833-7.1 8.6166-10.208 13.183-3.8582 6.65-9.6666 12.25-11.85 19.783-1.0083 3.2167-2.3167 6.3584-4.0667 9.2584-3.3832 5.5834-7.7666 10.558-12.658 14.867-5.3333 4.7-12.825 5.1333-18.767 8.7167-3.9667 2.3083-6.7999 5.9999-9.7916 9.3833-4 4.575-8.7583 8.4083-12.833 12.908-5.1666 7.6749-11.008 15.333-13.025 24.558-1.225 5.0416-2.2417 10.35-5.35 14.65-4.5917 6.6167-12.342 10.733-20.358 11.117-9.3834 0.4667-18.783-0.1083-28.15-0.575-8.2167-0.3833-16.158-3.1917-23.092-7.5416-2.7584-1.9834-5.5167-3.9584-8.1918-6.0417-4.1499-3.1-7.5083-7.225-12.117-9.6917-8.4083-0.3417-17.15-0.3917-24.933-4.0416-8.4583-3.9667-16.133-9.3833-24.142-14.142-7.0083-2.8416-13.667-6.4584-20.625-9.4083-7.0667-3.125-14.967-3.8167-21.875-7.3584-6.6-2.7416-12.833-7.8416-20.367-7.0833-7.6666 0.8583-14.65 4.4166-22.008 6.5-9.1 3.475-18.883 5.1749-27.458 9.9417-5.9333 3.2917-12.292 5.7667-18.008 9.4584-5.65 3.6167-11.733 6.5083-17.358 10.158-5.5583 3.5333-11.192 7.0083-17.325 9.475-3.1417 2.1417-6.3667 4.1583-9.725 5.9584-6.4417 3.3999-12.475 7.4916-18.583 11.45-11.575 7.9833-24.925 13.067-38.508 16.458-10.308 2.0833-20.617 4.2333-30.833 6.7416-16.175 3.6417-31.758 9.3334-47.642 14-15.392 4.2333-30.875 8.5416-45.325 15.458-7.7417 3.5167-15.4 7.25-22.842 11.375-5.75 3.3167-11.917 5.825-17.825 8.8333-5.975 3.0001-12.375 4.9918-18.675 7.1752-6.6417 2.475-12.792 6.0833-19.192 9.1083-7.8083 3.6917-13.692 10.167-20.225 15.633-4.1749 3.4333-7.9166 7.3334-11.842 11.05h1443.7v-321.35c-6.3667-1.1-12.742-2.2583-19.183-2.675z" fill="url(#m)" stroke="#302F34"/>
		<linearGradient id="n" x1="960" x2="960" y1="-322" y2="220.24" gradientTransform="matrix(.8333 0 0 -.8333 480 1333.3)" gradientUnits="userSpaceOnUse">
		<stop stop-color="#434347" offset="0"/>
		<stop stop-color="#404044" offset=".2843"/>
		<stop stop-color="#37373A" offset=".5034"/>
		<stop stop-color="#27272A" offset=".7009"/>
		<stop stop-color="#121213" offset=".8845"/>
		<stop offset="1"/>
	</linearGradient>
	<path d="m2057.6 1026.2c-2.6501 0.2499-5.7168 0.1582-7.8252 1.9833-1.6333 3.1666-1.4333 6.8917-1.7 10.35-0.05 6.15 0.2083 12.567-2.0083 18.408-4.1083 7.9667-13.25 11.925-21.858 12.4-7.3334 0.25-14.808-0.4417-21.783-2.8083-2.3584 5.2084-7.4084 8.2084-11.367 12.042-6.2167 5.9-13.017 11.325-20.767 15.075-7.3334 3.5083-15.542 4.825-23.625 4.8167-10.842 0-21.675-0.05-32.517-0.025-7.2083 0.1167-14.558 0.3667-21.45 2.6667-4.4417 1.4583-8.8082 3.2666-13.442 4.0416-5 0.8999-10.092 0.45-15.125 0.7583-5.8833 0.2917-11.392 2.5751-17.117 3.7167-8.7251 1.9667-17.742 1.4083-26.567 2.5333-11.342 1.3083-22.267 5.4584-33.775 5.325-16.925-0.075-34.283-0.1083-50.492 5.425-15.108 6.2084-30.083 12.783-44.5 20.508-7.175 3.5667-13.5 8.775-21.142 11.383-4.6583 1.7417-9.6083 2.3418-14.492 3.0835-7.0166 1.0833-13.983 4.0166-18.792 9.3999-4.6333 5.1167-8.8083 10.633-13.275 15.9-4.625 5.3333-6.3416 12.367-10.05 18.258-2.6749 4.2916-5.4916 8.5167-7.8167 13.025-2.6083 4.7417-4.7583 9.9333-8.8167 13.675-2.8999 2.6666-5.9917 5.1167-8.725 7.9584-3.5083 3.5583-7.4249 7.1333-12.408 8.375-4.4917 1-9.125 0.4166-13.675 0.4501-21.942 0.15-43.892 0.1083-65.833 0.0083-11.425-0.4833-22.858-0.9417-34.225-2.2501-8.7084-0.9916-17.475-1.225-26.167-2.3248-7.325-0.9001-13.642-5.2417-18.55-10.542-3.4834-3.8667-8.2-6.2167-12.05-9.625-3.0333-2.5333-5.475-6.7083-9.8584-6.7833-6.0916-0.1333-11.608 2.8833-16.933 5.4834-4.8083 2.525-9.7251 4.8167-14.683 7.0332-9.1 4.2084-16.067 11.617-23.517 18.117-3.1084 2.7167-5.8834 5.7917-8.525 8.9667-6.0167 7.4501-15.192 11.192-23.892 14.517-11.542 4.7416-23.633 7.95-35.75 10.825-17.584 3.9333-35.6 6.6416-52.4 13.425-15.533 6.325-30.225 14.483-45.65 21.042-7.3333 2.9916-14.233 7.225-22.1 8.75-5.9084 1.4-12.225 0.65-17.933 2.9417-5.2084 2.25-9.6 5.9417-14.417 8.875-4.9667 3.0667-11.017 2.8833-16.525 4.2834-12.775 3.0665-25.125 7.6083-37.642 11.558-17.325 5.6-34.95 10.258-52.2 16.1-33.067 10.5-66.675 19.175-99.842 29.325-13.483 4.125-27.083 7.8167-40.567 11.908-19.308 5.2167-38.425 11.092-57.3 17.683-14.017 5.0083-28.558 8.7749-41.783 15.75-7.7583 3.6918-15.233 7.9418-22.475 12.55-5.0334 3.2666-9.525 7.3584-14.917 10.075-6.6083 3.3999-12.233 8.2999-18.275 12.55-3.2667 2.2999-6.4584 4.7749-8.9917 7.8999-5.2833 4.4333-10.583 8.9834-16.725 12.208-7.0167 3.6582-14.142 7.1083-21.367 10.35-7.9916 3.6-15.517 8.8667-24.475 9.6917-8.7 0.7083-17.383-0.7999-26.067-1.1167-9.825-0.2999-19.725-0.1749-29.442 1.425-14.767 2.4833-29.625 5.15-43.7 10.425-16.475 6.675-31.033 17-45.775 26.75-6.1 4.1001-11.908 8.6084-17.925 12.817-1.3333 0.7917-2.7 1.5251-4.0167 2.3668v32.042h156.27c3.925-3.7167 7.6666-7.6167 11.842-11.05 6.5333-5.4666 12.417-11.942 20.225-15.633 6.4-3.025 12.55-6.6333 19.192-9.1083 6.3-2.1833 12.7-4.175 18.675-7.1752 5.9083-3.0083 12.075-5.5166 17.825-8.8333 7.4417-4.125 15.1-7.8583 22.842-11.375 14.45-6.9166 29.933-11.225 45.325-15.458 15.883-4.6667 31.467-10.358 47.642-14 10.217-2.5083 20.525-4.6583 30.833-6.7416 13.583-3.3916 26.933-8.4751 38.508-16.458 6.1083-3.9584 12.142-8.05 18.583-11.45 3.3584-1.8 6.5834-3.8167 9.725-5.9584 6.1334-2.4667 11.767-5.9417 17.325-9.475 5.625-3.65 11.708-6.5416 17.358-10.158 5.7167-3.6917 12.075-6.1666 18.008-9.4584 8.575-4.7667 18.358-6.4667 27.458-9.9417 7.3583-2.0834 14.342-5.6417 22.008-6.5 7.5333-0.7583 13.767 4.3417 20.367 7.0833 6.9083 3.5417 14.808 4.2334 21.875 7.3584 6.9584 2.95 13.617 6.5668 20.625 9.4083 8.0083 4.7584 15.684 10.175 24.142 14.142 7.7833 3.6499 16.525 3.7 24.933 4.0416 4.6083 2.4667 7.9666 6.5917 12.117 9.6917 2.6752 2.0834 5.4333 4.0583 8.1918 6.0417 6.9335 4.35 14.875 7.1583 23.092 7.5416 9.3667 0.4667 18.767 1.0416 28.15 0.575 8.0167-0.3833 15.767-4.5 20.358-11.117 3.1083-4.2999 4.125-9.6083 5.35-14.65 2.0166-9.225 7.8584-16.883 13.025-24.558 4.075-4.5 8.8334-8.3334 12.833-12.908 2.9916-3.3834 5.825-7.075 9.7916-9.3833 5.9417-3.5834 13.433-4.0167 18.767-8.7167 4.8917-4.3083 9.275-9.2833 12.658-14.867 1.7499-2.9 3.0582-6.0417 4.0667-9.2584 2.1833-7.5333 7.9917-13.133 11.85-19.783 3.1084-4.5667 4.9083-10.6 10.208-13.183 6.7417-3.1667 14.583-2.4751 21.625-0.7417 4.25 1.1 8.5917 1.825 12.983 2.0083 7.5751 0.3083 15.117 1.4501 22.708 1.1 6.3334-0.2916 12.633 0.7251 18.975 0.6167 10.442 0.0333 21.125-0.8584 31.3 2.1 8.9501 2.3251 16.458 7.9083 24.475 12.258 4.6249 3.675 9.4666 7.0583 13.892 10.992 5.3916 4.7999 11.183 9.2166 15.833 14.8 6.0417 7.1917 13.825 12.633 21.675 17.683 5.7583 3.7832 11.192 8.3334 15.025 14.133 5.3083 8.15 5.8167 18.367 10.842 26.658 3.3083 5.4584 8.9083 8.9083 14.258 12.108 5.9417 3.0249 12.208 5.6083 18.883 6.4082 7.5 0.9751 14.983 2.925 21.525 6.8334 4.85 2.75 9.7084 6.675 15.625 6.1417 2.6833-0.0333 4.5084-2.3 5.5333-4.5334 2.3-4.9165 3.425-10.283 5.625-15.233 2.5416-6.2417 6.0833-12.025 10.1-17.417 5.1833-7.2916 11.733-13.617 15.875-21.633 5.3833-10.3 14.8-17.533 21.4-26.958 2.425-3.8584 7.375-3.5667 11.275-4.65 5.8334-1.2416 10.933-4.8167 14.525-9.5333 3.9667-5.175 8.8751-9.4667 13.717-13.783 3.825-3.3333 6.0416-7.95 8.625-12.2 1.8-3.1835 5.8916-3.4667 9.1583-3.4417 5.7083 0.1333 10.3 3.9166 14.883 6.8583 7.3167 4.8417 15.025 9.075 22.9 12.942 5.325 2.6 10.342 5.7833 15.617 8.4917 8.2584 4.2167 15.617 9.9166 23.25 15.125 4.0583 2.9249 9.275 1.9667 13.842 1.0499 5.4333-2.9666 11.383-4.8167 16.808-7.7999 6-3.2 11.975-6.4417 17.983-9.6416 8.9333-5.0835 18.517-9.3168 26.267-16.217 10.1-8.325 18.025-18.883 25.375-29.617 4.7916-6.8917 8.3748-14.675 14.217-20.808 2.7832-2.875 5.9583-5.7334 9.9667-6.675 6.1332-1.3167 12.65-0.0333 18.092 3.0166 5.75 3.2085 10.983 7.2833 15.992 11.55 2.0667 1.725 4.4166 3.5665 7.2916 3.4666 6.6333 0.05 12.625-3.2 18.683-5.475 6.6085-2.5917 12.717-6.425 18.033-11.117 5.5917-5.0167 6.5251-13.658 13.042-17.808 6.7001-4.0249 13.892-7.1583 20.65-11.083 3.125-1.875 6.7417-2.9667 10.425-2.6833 6.4417 0.4167 12.817 1.5751 19.183 2.675v-251.29c-7.3247-1.8749-14.933-1.3166-22.4-1.1832z" fill="url(#n)" stroke="#2C2C2F"/>
		<linearGradient id="o" x1="-6.7887e-6" x2="1458.2" y1="510.85" y2="510.85" gradientTransform="matrix(.8333 0 0 -.8333 480 1333.3)" gradientUnits="userSpaceOnUse">
		<stop stop-color="#494C5B" offset="0"/>
		<stop stop-color="#5C5963" offset=".2032"/>
		<stop stop-color="#8C7A78" offset=".612"/>
		<stop stop-color="#C09D8F" offset="1"/>
	</linearGradient>
	<path d="m1690.7 948.83c-8.8417-2.2917-17.217-6.7-26.5-7.15-11.65-0.4584-23.517-1.6417-34.367-6.2001-5.675-1.4333-11.117-3.6-16.667-5.4167-5.0835-2.6917-10.2-5.3167-15.117-8.2833-8.0834-4.3834-15.875-9.425-24.533-12.608-12.942-5.1833-27.083-4.9666-40.758-4.275-22.267-0.775-44.575 0.3666-66.833-1.025-6.025-0.5083-12.017-1.3417-18.025-1.95-15.867-2.5751-32.325-6.775-48.267-2.3334-7.3167 2-14.483 4.9583-22.15 5.2582-8.4833 0.3584-16.975-0.2582-25.392-1.2749-14.242-3.0583-28.425-6.4084-42.792-8.8251-19.133-4.0083-38.475-7.3166-58.008-8.4666-15.425-0.55-30.867-0.2083-46.3-0.275-15.05-0.0333-30.1-0.0583-45.15 0.05-3.9167-0.0084-7.8168 0.1833-11.725 0.4166-9.4666 0.475-18.925 1.2333-28.333 2.4084-3.9917 0.3583-7.9751 0.8749-11.983 0.9666-9.9083 1.9167-20.033 1.2335-30.05 1.0168-10.042-0.7333-20.025-2.8-29.317-6.7334-6.9917-2.95-13.717-6.4999-20.5-9.8834-2.2917-1.2333-4.5084-2.5916-6.8-3.8083-17.858-8.35-35.383-17.375-52.7-26.792-5.3167-2.8833-10.625-5.7916-15.725-9.0416-6.925-3.6833-13.675-7.7001-20.8-10.983-10.767-6.0999-22.158-11.092-33.908-14.95-13.583-4.5916-27.725-8.4084-42.175-7.9833-10.65-0.3334-21.833 0.5667-31.808-3.8917-11.017-4.2749-18.025-14.625-28.442-19.892-2.2167-1.15-4.4916-2.1667-6.725-3.2667-7.1917-3.4667-13.575-8.35-20.742-11.867-7.4667-3.75-15.392-7.4-23.9-7.475-7.7917-0.0751-15.792 0.45-23.05 3.5334-5.8834 2.2584-10.45 6.7249-15.417 10.433-5.775 4.4083-11.658 8.8751-16.05 14.75-3.4667 4.4583-5.0917 10.142-9.1167 14.2-3.85 3.9501-8.2333 7.3417-12.008 11.367-3.25 3.1166-5.9416 6.8833-9.7416 9.4-5.7167 3.5833-12.342 5.275-18.333 8.3-9.5 4.7667-19.183 9.3334-29.442 12.208-9.8333 2.1-19.917 0.2333-29.625-1.65-10.975-2.1917-22.342-0.0083-33.275-2.5083-7.3666-1.8334-14.608-4.5417-22.25-4.925-6.6833-0.3667-13.375-0.0417-20.058 0.175-9.0833 0.55-18.55 2.4917-25.85 8.2501v208.85c15.338-2.5857 16.696 3.7682 32.399 0.9493 15.905-2.8551 14.727-9.4169 30.632-12.272 15.903-2.8547 17.081 3.707 32.983 0.8523 15.903-2.8549 14.725-9.4165 30.629-12.271 15.902-2.8547 17.08 3.7071 32.983 0.8525 15.902-2.8547 14.724-9.4165 30.626-12.271 15.9-2.8542 17.078 3.7075 32.979 0.8533l-0.5889-3.2809c5.3333-4.0583 10.108-8.8083 15.533-12.733 12.625-7.9083 25.7-15.342 39.85-20.158 7.9-2.9417 15.908-5.6417 24.142-7.475 7.6417-2.0167 15.525-2.9667 23.083-5.3167 22.342-5.3584 44.908-9.7 67.608-13.242 19.933-3.7084 40.192-5.6334 60.475-5.4667 9.0583-0.2416 18.167 0.5417 27.183-0.6499 4.325 0.3917 8.6667 0.5249 13.008 0.7666 8.8667 0.5417 17.65 1.925 26.5 2.675 10.017 0.9667 19.967 2.4918 29.908 4.05 16.558 2.3333 32.7 6.8333 49.117 9.9583 5.025 1.0083 10.108 1.6583 15.175 2.4666 15.7 2.9083 31.583 4.8584 47.092 8.7584 10.217 2.3083 20.333 5.0751 30.133 8.8084 0.425 0.1 1.275 0.2916 1.7 0.3916 11.217 3.7667 21.825 9.125 32.625 13.925 2.2084 1.0167 4.3833 2.0917 6.5834 3.1334 14.792 6.6833 29.75 13.017 45.1 18.325 1.7917 0.6083 3.5918 1.2167 5.4083 1.8 7.4834 2.2084 14.967 4.4583 22.617 6.0416 9.2749 1.9417 18.542 4.175 28.025 4.775 9.9583 1.6666 19.917 3.6166 29.342 7.3583 5.1249 1.7501 10.25 3.4917 15.4 5.1584 7.3417 2.5416 14.775 4.8167 22.333 6.6166 9.1918 1.7666 18.408 3.4333 27.625 5.125 8.8667 1.6416 17.825 2.9751 26.433 5.7667 11.367-1.2917 20.725-8.425 30.792-13.183 4.3-3.075 8.8999-5.8833 12.417-9.9 4.4501-5.0249 6.5833-11.575 10.717-16.817 6.2584-8.1 13.55-15.325 20.058-23.217 3.5917-4.4418 7.3083-9.0333 12.508-11.675 12.325-6.4167 23.667-14.525 35-22.525 5.3417-3.7667 12.15-1.8666 17.883-0.1833 8.3917 2.3167 16.917 4.1667 25.375 6.2333 7.2167 1.2833 15.258 2.025 21.883-1.7834 6.7333-3.7416 14.617-3.9083 21.983-5.525 11.575-2.5167 23.05-5.4666 34.433-8.7667 5.75-1.6666 11.583-3.1083 17.483-4.1916-1.5164-0.1499-2.9998-0.3499-4.4664-0.5833z" fill="url(#o)" stroke="#545360"/>
		<linearGradient id="p" x1="594" x2="532.53" y1="-10.792" y2="474.48" gradientTransform="matrix(.8333 0 0 -.8333 480 1333.3)" gradientUnits="userSpaceOnUse">
		<stop stop-color="#B47F78" offset="0"/>
		<stop stop-color="#5C5661" offset=".7405"/>
		<stop stop-color="#4B4E5C" offset=".8809"/>
	</linearGradient>
	<path d="m1408.2 1055.2c-9.2166-1.6917-18.433-3.3583-27.625-5.125-7.5582-1.7999-14.992-4.0748-22.333-6.6166-5.15-1.6666-10.275-3.4083-15.4-5.1584-9.425-3.7416-19.383-5.6915-29.342-7.3583-9.4833-0.6-18.75-2.8334-28.025-4.7749-7.6501-1.5834-15.134-3.8334-22.617-6.0417-1.8167-0.5833-3.6167-1.1917-5.4083-1.8-15.35-5.3083-30.308-11.642-45.1-18.325-2.2001-1.0416-4.375-2.1167-6.5834-3.1333-10.8-4.8-21.408-10.158-32.625-13.925-0.425-0.1-1.275-0.2916-1.7001-0.3917-9.7999-3.7333-19.916-6.5-30.133-8.8083-15.508-3.9-31.392-5.85-47.092-8.7584-5.0668-0.8083-10.15-1.4583-15.175-2.4666-16.417-3.125-32.558-7.6251-49.117-9.9583-9.9417-1.5583-19.892-3.0834-29.908-4.0501-8.8501-0.7499-17.633-2.1332-26.5-2.6749-4.3417-0.2417-8.6833-0.375-13.008-0.7666-9.0167 1.1916-18.125 0.4083-27.183 0.6499-20.283-0.1666-40.542 1.7583-60.475 5.4667-22.7 3.5416-45.267 7.8833-67.608 13.242-7.5582 2.35-15.442 3.3-23.083 5.3167-8.2333 1.8333-16.242 4.5333-24.142 7.475-14.15 4.8167-27.225 12.25-39.85 20.158-5.425 3.925-10.2 8.675-15.533 12.733l0.5889 3.2809c-15.9 2.8542-17.078-3.7075-32.979-0.8533-15.902 2.8546-14.724 9.4164-30.626 12.271s-17.08-3.7072-32.983-0.8524c-15.903 2.8547-14.725 9.4165-30.628 12.271-15.903 2.8547-17.081-3.707-32.983-0.8523-15.905 2.8551-14.727 9.4169-30.632 12.272-15.703 2.8188-17.061-3.535-32.399-0.9493v297.89c5.5583-6.5583 12.65-11.542 19.167-17.067 10.408-8.2 20.808-17.008 33.45-21.55 7.375-2.8417 15.267-4.1 23.142-4.425 8.8666-0.4083 17.775-0.9583 26.633-0.1499 5.7167-3.2167 11.408-6.5167 17.325-9.35 7.875-5.3501 15.767-10.675 23.217-16.608 13.367-10.775 27.7-20.25 41.692-30.167 0.875-0.6333 1.75-1.2417 2.6334-1.8334 7.4667-4.5 15.4-8.15 23.117-12.175 7.0084-3.775 14.375-6.7916 21.533-10.25 5.1583-2.3916 9.6167-6.0416 14.792-8.3916 6.5917-2.5333 13.825-2.2833 20.775-2.1333 11.95 0.7583 23.875 3.1583 35.892 2.1 6.3-0.5667 11.875-3.8501 17.208-6.9917 6.9083-4.1167 12.9-9.7167 20.283-13.033 3.8167-1.7167 7.6083-3.475 11.217-5.5834 6.9166-4.1749 14.542-7.2167 20.75-12.475 6.125-5.1832 14.608-4.7417 22.133-4.9583 20.017 0.1333 40.025-0.775 60.042-0.525 4.8167-0.1 9.7083 0.4583 14.475-0.4917 7.6667-2.15 13.608-7.7833 19.042-13.333 5.925-6.1 12.933-10.958 19.734-16 4.2249-2.6917 8.3749-5.5083 12.242-8.6917 3.3083-2.5834 6.5334-5.5917 10.683-6.7 9.3583-2.125 19.158-0.1 28.475-2.4333 6.4667-1.5083 11.383-6.675 17.958-7.8666 3.1166-0.625 6.2916-0.8917 9.4333-1.3834 7.3917 0.3083 14.783-0.0333 22.167 0.0917 6.1915 0.025 11.075 4.3833 15.892 7.7084 5.9417 4.825 11.758 10.025 19.008 12.85 5.4751 2.5416 11.483 3.725 17.5 3.8833 8.1167 0.2083 16.3 0.5834 24.367-0.6 10.45-1.5001 20.933-2.7666 31.325-4.6084 7.4498-1.5166 14.85-3.3083 22.192-5.2999 9.125-2.4917 18.508-3.7334 27.767-5.6 11.342-2.2917 22.683-4.5667 34.042-6.7917 13.025-2.4917 26.283-3.4249 39.525-3.6416 13.283-0.3667 26.65-0.9751 39.875 0.7166 7.1501-12.158 18.483-21.008 29.817-29.042 3.575-2.575 7.0917-5.2417 10.742-7.7167 6.275-3.9999 12.692-7.9333 19.725-10.483 4.375-1.625 9.0583-2.025 13.658-2.6167-8.6083-2.7918-17.567-4.1251-26.433-5.7669z" fill="url(#p)" stroke="#545360"/>
</g>
</svg>