<?xml version='1.0' encoding='utf-8'?>
<svg xmlns="http://www.w3.org/2000/svg" version="1.1" width="600px" height="976px" viewBox="0 0 600 976"> <g id="layer1"> <g style="fill:rgb(0,0,0); fill-opacity:1.0; stroke-linejoin: miter"> <path d="M64.451195,324.40903C64.45811,324.40903,64.4648,324.4092,64.47126,324.4096C64.632904,324.4191,65.16685,324.7182,65.16159,324.8071C65.15732,324.87988,65.62163,328.15155,65.71338,328.65982C65.828384,329.32358,65.83542,330.58118,65.72365,331.10178C65.71767,331.13293,65.711845,331.1614,65.70604,331.18738L65.70538,331.18738L65.32857,331.43542L65.32857,331.43542L65.266235,331.43176L65.28294,331.46545L65.28294,331.46545L65.12279,331.5709L65.12279,331.5709C65.01898,331.37488,64.888336,331.13324,64.72569,330.83215C64.68909,330.76514,64.55786,330.51407,64.44189,330.28012C64.211624,329.84253,64.16317,329.80234,62.931705,329.14505L62.931076,329.14505Q62.8813,328.96655,62.80742,328.80856Q62.260532,327.6993,60.8626,327.66904L60.849792,327.669Q60.84674,327.669,60.843693,327.669Q60.377018,327.669,59.89568,327.82477L59.89508,327.82477C59.588024,327.87433,59.225555,327.98468,58.602375,328.20862C58.41031,328.27652,58.22373,328.34094,58.05579,328.3976L58.05579,328.3976Q58.342724,328.02332,58.49158,327.73065Q58.531063,327.64374,58.561897,327.5099Q58.62161,327.16666,58.657776,326.98718L58.658363,326.98718L59.29664,327.02475C59.70886,327.049,60.956,327.0819,62.06619,327.09866L64.09166,327.1368L64.41025,326.82303L64.736435,326.5178L64.522026,326.1645C64.40316,325.97906,64.13075,325.6467,63.915363,325.44748L63.516006,325.06705L63.264576,325.03595L63.263943,325.03595Q63.374535,324.93512,63.511265,324.8456Q63.55062,324.81033,63.570015,324.7813L63.57297,324.77356L63.57234,324.77356C63.58195,324.7681,63.590824,324.76212,63.59923,324.75565C63.869053,324.5677,64.25082,324.40903,64.451195,324.40903 Z M62.798626,331.55243L62.798626,331.55243C63.256477,331.8671,63.662315,332.19235,63.943348,332.47614L63.942707,332.47614L63.774044,332.64072L63.774044,332.64072L63.4315,332.91595L63.432095,332.91595C63.442883,332.9273,63.45344,332.93848,63.46378,332.9495L63.463146,332.9495Q63.288464,333.0328,63.226883,333.04553L63.226883,333.04553C63.20419,333.0212,63.180588,332.99615,63.15602,332.97018C62.970325,332.77658,62.74321,332.56058,62.541885,332.38525L62.54126,332.38525Q62.645256,332.07977,62.739265,331.76492Q62.77026,331.6573,62.797997,331.55243 Z M43.36848,365.1758L43.423508,365.38293L43.423073,365.38293C43.416004,365.38452,43.412003,365.38568,43.411278,365.38632C43.39464,365.3935,43.482582,365.69064,43.60807,366.0387C43.78728,366.57645,43.890934,366.74478,44.214695,367.0315C44.90027,367.6477,45.15843,367.80893,45.763695,367.99872C45.935284,368.0525,46.109085,368.10876,46.245262,368.15503L46.2448,368.15503L46.818165,368.46335L46.817696,368.46335C46.816193,368.47244,46.81478,368.48145,46.813473,368.4904C46.77377,368.79382,46.276657,370.09613,46.068974,370.47083L46.068974,370.47083Q45.93967,370.4312,45.771805,370.3834L45.771347,370.3834C45.805317,369.95242,45.7769,369.9817,44.212177,369.27805C43.627853,369.00842,42.73496,368.6071,42.237167,368.3831C41.73936,368.15915,40.885475,367.7844,40.339653,367.5495C39.793842,367.31458,39.279884,367.08963,39.193356,367.04404C39.181015,367.03754,39.16608,367.03018,39.14904,367.02225L39.148647,367.02225Q39.199722,366.92435,39.25365,366.82007L39.254044,366.82007L39.255173,366.8205L39.621773,366.5177C40.2682,365.9841,41.59494,365.5165,43.36805,365.1758 Z M63.519,288.4113C63.45839,288.4113,63.40857,288.41208,63.371063,288.4137C63.06201,288.42795,62.492405,288.4593,62.109684,288.4854C61.726933,288.51157,61.16541,288.54337,60.848743,288.54904C60.125565,288.57135,59.748024,288.64642,59.10045,288.9003C58.81225,289.01205,58.565224,289.10236,58.537643,289.10236C58.537422,289.10236,58.537216,289.10233,58.53702,289.10233L58.53683,289.10233C58.518456,289.10233,58.195652,289.22888,57.822834,289.3847C57.057323,289.71274,56.373116,290.1753,55.211964,291.16132C54.767853,291.5407,54.198223,291.98575,53.944305,292.1654C53.369446,292.56143,52.297695,293.54462,52.007637,293.925C51.893044,294.08044,51.57113,294.4508,51.294876,294.73465C50.66436,295.38693,50.321514,295.8372,49.87264,296.57318C49.675316,296.8941,49.433727,297.27728,49.344345,297.41803C49.246857,297.5583,48.959652,298.02805,48.707153,298.45923C48.462746,298.89096,48.112766,299.46243,47.943012,299.7282C47.701916,300.10336,47.605858,300.3572,47.518337,300.87927C47.27767,302.21152,47.13927,302.90903,47.101223,303.0041C47.081715,303.05972,47.171566,303.18668,47.303272,303.29178L47.543354,303.48434L47.699333,303.3151C47.781815,303.22772,47.854057,303.1845,47.914524,303.1845C48.018932,303.1845,48.08821,303.31342,48.11439,303.56662C48.127705,303.75397,48.17571,303.90277,48.208027,303.9047C48.20841,303.90472,48.208794,303.90472,48.209187,303.90472C48.25027,303.90472,48.345745,303.78156,48.42676,303.63373C48.507614,303.4861,48.610775,303.36362,48.659973,303.36362C48.660538,303.36362,48.6611,303.36365,48.66165,303.36368C48.766735,303.36984,48.74245,303.78204,48.62025,304.06683C48.578697,304.15527,48.560726,304.20273,48.57987,304.20273C48.60344,304.20273,48.683292,304.13074,48.84468,303.9746C49.01132,303.8109,49.146244,303.7211,49.236454,303.7076L49.236946,303.7076Q49.24353,303.7759,49.253223,303.86057Q49.262417,304.10727,49.266937,304.11017Q49.261654,304.12244,49.32085,304.26578L49.344254,304.30713L49.34376,304.30713C49.332684,304.32388,49.3412,304.38495,49.357185,304.49957C49.373825,304.63034,49.435104,305.24225,49.488792,305.8456C49.550556,306.44943,49.64893,307.2582,49.70739,307.64288C49.765846,308.02753,49.860424,308.62518,49.904625,308.97656C49.95404,309.37692,50.109947,309.89706,50.33101,310.41296C50.622894,311.10333,50.78691,311.3482,51.455376,312.11755C52.89876,313.7761,53.044685,314.1902,53.040268,316.4691C53.044003,317.36963,53.097717,317.55933,53.484257,317.8822C53.716263,318.07428,53.81992,318.1047,54.490788,318.14423L55.226322,318.18756L55.2591,318.45712C55.27431,318.61212,55.34846,319.00583,55.426414,319.33487C55.58138,320.0091,55.850933,320.38992,56.2427,320.48602C56.46617,320.54782,56.48851,320.58157,56.472343,320.8564C56.450428,321.2282,56.806984,321.78455,57.320007,322.1635C57.654797,322.41376,57.743767,322.55408,57.83206,323.09286L57.831482,323.09286Q57.832207,323.1739,57.837128,323.24765Q57.85838,323.4727,57.859837,323.52243L57.865902,323.72632Q57.870102,323.76248,57.87899,323.79147L57.95433,324.02582Q57.960625,324.0473,57.977253,324.1792L58.009193,324.2924Q58.012756,324.31564,58.01566,324.3335L58.01508,324.3335C57.81626,324.40076,57.48383,324.6994,56.41399,325.70328C54.748825,327.25983,53.88486,328.1579,53.74553,328.45795C53.69892,328.56064,53.652786,328.79312,53.64232,328.97095C53.61709,329.39932,53.452553,329.71405,52.98467,330.22186C52.378403,330.87555,52.36747,330.92355,52.37263,331.79987C52.37974,332.23013,52.401096,332.8316,52.422955,333.14917C52.658665,336.06827,52.66982,337.05093,52.416016,338.25424L52.415493,338.25424L52.353146,338.305Q52.353535,338.30438,52.353565,338.30414L52.353043,338.30414Q52.34226,338.31012,52.11048,338.54526Q51.930645,338.7885,51.768982,339.10294Q51.747375,339.1638,51.731503,339.22247L51.730984,339.22247C51.654163,339.34952,51.56901,339.4938,51.48063,339.64728C51.181522,340.18118,50.92712,340.64478,50.92522,340.6771C50.92284,340.7175,50.24427,342.0483,49.541435,343.37762C49.449677,343.55878,49.36693,343.7242,49.365498,343.74847C49.36455,343.76465,49.217144,344.06418,49.035023,344.40225C48.59848,345.20383,47.536156,347.2663,47.53426,347.2986C47.532352,347.33096,47.10296,348.1492,46.55754,349.14716C45.26649,351.51248,45.09388,351.82678,44.52182,353.00162C43.99637,354.07373,43.882717,354.48877,43.73474,356.03738C43.67241,356.68256,43.562523,357.5845,43.4945,358.05093C43.42647,358.51733,43.31563,359.43546,43.25188,360.1049C43.23745,360.2557,43.222054,360.4086,43.20646,360.55704L43.206028,360.55704Q43.20566,360.5585,43.205296,360.56L43.13706,360.86374Q43.051533,361.187,43.03772,361.26202Q43.01044,361.3723,43.00297,361.63034Q43.00533,361.84396,42.99666,361.986Q42.99488,362.00363,43.010906,362.13605Q43.012608,362.1579,43.012604,362.18448Q43.009438,362.24048,43.011265,362.2731Q43.011703,362.27682,43.012127,362.2805L43.012127,362.2805C42.83035,362.19427,42.703094,362.14087,42.669777,362.1389C42.58894,362.13416,42.52619,362.098,42.528084,362.06567C42.530464,362.02524,42.167233,361.85788,41.72269,361.69382C40.937252,361.39612,39.286964,360.77173,36.10573,359.56238C34.47113,358.94708,32.099586,358.0369,29.997623,357.23178C29.236435,356.9355,28.394878,356.6264,28.132431,356.53796C27.869991,356.4495,26.957603,356.10376,26.109402,355.76993C24.737732,355.235,22.366184,354.32477,21.707203,354.0832C21.391077,353.96994,20.946,353.9064,20.56245,353.9064C20.387033,353.9064,20.224487,353.9197,20.093033,353.9476C19.747837,354.02457,18.799267,354.29318,16.694847,354.90732C16.398136,354.98718,16.026314,355.24106,15.149998,355.9356C15.069588,355.9972,14.906416,356.138,14.696703,356.32465L14.696703,356.32465L8.65677,353.6129L8.656684,353.6129Q8.669777,353.65543,8.682812,353.6976L8.682724,353.6976C8.567807,353.72104,8.3808565,353.9251,7.960163,354.48215C7.096898,355.60986,6.6060333,356.2343,6.4091616,356.44672L6.409162,356.44672L4.9273796,356.09427L4.915395,356.09146L4.915395,356.09146L9.090142,360.75323L9.090052,360.75323Q8.849002,361.9956,9.17494,362.6969Q9.576451,363.6843,11.0308,364.45508Q13.138072,365.57065,18.698114,366.77502L18.697927,366.77502C19.071459,367.15915,19.485533,367.5977,19.758812,367.88666C20.93216,369.1724,21.258781,369.4106,22.944237,370.26416C23.424923,370.50333,24.218422,370.9394,24.712902,371.21997C25.206875,371.5086,25.756493,371.81674,25.92955,371.90802C26.102615,371.99933,26.470135,372.23184,26.75016,372.43494C27.030205,372.63794,27.668701,373.08923,28.175056,373.44345C28.681873,373.78964,29.257153,374.21283,29.458752,374.37073C29.76112,374.6075,30.61073,375.19287,31.500286,375.78867C31.890392,376.0506,32.960075,376.6306,33.20921,376.73026L33.208878,376.73026Q33.286373,376.8229,33.36793,376.9186L33.604305,377.0481L33.60397,377.0481C33.707226,377.19745,33.718113,377.40326,33.691998,378.23743L33.663395,379.27393L34.50208,379.6315C35.468193,380.02908,35.522404,380.0728,35.883232,380.6943C36.03061,380.9463,36.203655,381.17545,36.27497,381.20398C36.354378,381.23297,36.551197,381.3338,36.72427,381.4251C37.227764,381.69,38.85999,382.34576,39.314995,382.46988C39.547012,382.52408,40.075237,382.6444,40.47557,382.73288C41.214355,382.8931,41.603725,383.0676,41.920372,383.40045L41.919952,383.40045Q41.84766,384.2018,41.89604,385.4196L41.978374,387.306L42.02296,387.9235L42.02254,387.9235C42.014286,387.98627,42.007042,388.0438,42.00096,388.09473C41.96149,388.48987,41.855396,389.32715,41.770252,389.9467C41.461517,392.29684,41.39198,394.16635,41.535446,396.13757C41.57249,396.61023,41.625214,397.5055,41.6613,398.1322C41.69739,398.75885,41.75867,399.64658,41.79716,400.0949C41.835163,400.55136,41.851288,401.10385,41.837963,401.33014C41.82702,401.51602,41.814373,401.61862,41.8619,401.71774L41.86148,401.71774Q41.836426,401.85406,41.808815,402.00168L41.801357,402.078L41.801357,402.078L41.794163,402.0738L41.78262,402.26978L41.728233,402.82645Q41.727905,402.8803,41.726494,402.94327L41.726074,402.94327C41.687946,403.23346,41.629025,403.5919,41.57391,403.88574C41.483067,404.32648,41.35607,405.10574,41.293274,405.62115C41.19479,406.46698,41.162415,407.01666,41.0429,409.7348C41.025764,410.16367,40.95584,410.6624,40.88736,410.86118C40.81888,411.0599,40.71235,411.4916,40.652424,411.82065C40.448376,412.94412,40.151146,420.88333,40.230877,423.1104C40.245117,423.55737,40.232674,424.59482,40.216457,425.42114C40.186577,426.44186,40.160435,427.32675,40.137215,428.0938L40.136814,428.0938L39.451572,433.62918L49.676105,433.8555L49.675606,433.8555C51.022232,433.9163,52.297077,433.974,53.053345,434.0041C54.323772,434.05453,58.060406,434.23404,61.35962,434.40402L67.36848,434.7011L67.43412,434.41293C67.46786,434.25272,67.58534,433.9109,67.69802,433.64984C67.85115,433.25333,67.91205,432.90817,68.02148,431.60062L68.14665,430.0264L68.55272,429.60425C69.12332,429.00516,69.23932,428.82547,69.41053,428.25967C69.60312,427.60593,69.6474,426.85425,69.54668,425.8101C69.46591,424.97803,69.46686,424.96188,69.677055,424.42273C70.498314,422.3217,71.447495,420.11472,71.668594,419.80328C71.810776,419.59268,72.41942,419.0364,73.04037,418.5458C73.81496,417.9263,74.20152,417.55975,74.31994,417.33963C74.46686,417.04816,74.68849,416.17712,74.88778,415.13446C74.97149,414.67706,75.39945,414.021,75.78031,413.7514C75.9491,413.6397,76.15596,413.4329,76.244385,413.3083C76.33331,413.17566,76.67189,412.24664,76.990524,411.24344C77.53836,409.51566,77.57215,409.35538,77.62593,408.44208C77.699814,407.18762,77.742935,405.5041,77.70973,405.2701L77.708954,405.2701Q77.74212,405.1069,77.770836,404.95767L77.77006,404.95767C77.93053,404.86862,77.95125,404.7391,78.03652,404.50003C78.232925,403.91953,78.29144,403.339,78.30485,401.87173C78.308945,401.12003,78.281105,400.7036,78.11202,399.79388L78.111244,399.79388Q78.11729,399.65488,78.12362,399.5926Q78.42641,396.86823,78.40753,396.75546L78.5359,394.23102Q78.522484,393.1758,78.43709,391.75146Q78.3202,390.3836,78.118034,389.62473Q78.0958,389.51645,78.03421,389.31027L78.03343,389.31027C78.18164,389.23538,78.32725,389.1635,78.448364,389.1056C79.40738,388.6592,79.65178,388.5033,79.87291,388.19186C80.08498,387.89615,80.84253,386.05093,81.29332,384.73105C81.43028,384.3336,81.645706,383.7055,81.781265,383.33224C81.916794,382.95905,82.03469,382.60913,82.03852,382.54446C82.04233,382.4798,82.15122,382.1456,82.277245,381.7961C82.827484,380.30365,83.01198,379.78732,83.0177,379.69037C83.02103,379.63376,83.11089,379.34708,83.20886,379.06085C83.3073,378.76654,83.47279,378.29773,83.56268,378.01108C83.858955,377.11197,84.487625,375.38895,84.917984,374.27875C85.14719,373.69205,85.514336,372.6917,85.738304,372.05603C87.13121,368.09888,87.391785,367.5302,89.464096,363.8807C90.09796,362.7582,90.73326,361.61142,90.87165,361.32758C91.01004,361.04376,91.274414,360.54834,91.46368,360.22693C92.01431,359.27798,92.17413,358.63037,92.379684,356.51746C92.44342,355.84802,92.5148,355.1871,92.54666,355.0592C92.570915,354.92276,92.66368,354.03604,92.744095,353.0837C92.88875,351.45383,92.896866,350.62698,92.782425,348.98996C92.76058,348.67233,92.735886,348.12747,92.73257,347.77042C92.66576,344.4978,92.63724,344.15546,92.300674,343.12177C92.14905,342.66675,91.9161,341.9393,91.77919,341.50946C91.64229,341.07962,91.38086,340.28558,91.19307,339.75543C91.01385,339.2177,90.86271,338.7546,90.86414,338.73032C90.867485,338.67374,90.441536,337.36716,89.93671,335.8856C89.77839,335.40582,89.6073,334.86853,89.56117,334.68738C89.42238,334.152,89.151375,333.6575,88.54472,332.80258C88.221924,332.36182,87.5502,331.3733,87.04387,330.60538C86.54564,329.83798,85.806854,328.74817,85.41083,328.1733C85.19172,327.8574,85.037605,327.63782,84.920166,327.4848L84.921,327.4848L84.755646,327.26495L84.641205,327.12173L84.51549,326.9422Q84.51281,326.93707,84.504814,326.9298L84.50397,326.9298L84.50391,326.92972L84.50386,326.92972L84.51895,326.92847L83.87381,326.03885C83.25813,325.19965,81.979294,323.08847,81.18964,321.62256C80.87587,321.02823,79.2914,317.35803,78.034966,314.31546C77.98479,314.19452,77.934685,314.07816,77.886444,313.96964L77.88566,313.96964L77.569725,313.12546Q77.56228,313.12268,77.49932,312.89264L77.49854,312.89264C77.50309,312.78372,77.45385,312.37738,77.38991,311.90912C76.9489,308.79288,76.95415,308.8419,77.052605,307.99603C77.35802,305.42664,77.3723,305.1842,77.26538,304.52087C77.16414,303.8985,77.09001,303.36694,77.03488,302.92572C77.007324,302.70508,76.988815,302.0551,76.9884,300.96014C76.987,300.57074,76.9666,300.091,76.93715,299.9027C76.798355,299.09155,75.44925,295.28113,74.96199,294.3278C74.3872,293.2071,73.428276,292.13675,71.59784,290.57712C70.65604,289.76733,70.10687,289.4511,68.77562,288.91852C68.15755,288.67123,68.085266,288.65884,66.04126,288.52228C65.02253,288.45514,63.9709,288.4113,63.519,288.4113 Z"/> </g> </g> </svg>